G04*
G04 #@! TF.GenerationSoftware,Altium Limited,Altium Designer,25.8.1 (18)*
G04*
G04 Layer_Color=16711935*
%FSLAX25Y25*%
%MOIN*%
G70*
G04*
G04 #@! TF.SameCoordinates,68BE08DE-760B-43C3-A528-A1801879DF6B*
G04*
G04*
G04 #@! TF.FilePolarity,Positive*
G04*
G01*
G75*
%ADD76C,0.00100*%
%ADD77C,0.00394*%
D76*
X-61983Y95675D02*
G03*
X-61983Y95675I-1772J0D01*
G01*
X-65593Y106921D02*
G03*
X-65593Y106921I-1772J0D01*
G01*
D77*
X92943Y26737D02*
G03*
X93611Y27632I-29793J22900D01*
G01*
X94578Y30797D02*
G03*
X94502Y31911I-5527J179D01*
G01*
D02*
G03*
X93951Y34073I-11336J-1733D01*
G01*
X93951D02*
G03*
X93549Y35115I-27609J-10071D01*
G01*
X93611Y27632D02*
G03*
X94134Y28619I-17183J9732D01*
G01*
D02*
G03*
X94463Y29686I-10786J3921D01*
G01*
X94463Y29686D02*
G03*
X94578Y30797I-7146J1300D01*
G01*
X82654Y51736D02*
G03*
X83755Y51548I7026J37790D01*
G01*
X78310Y52761D02*
G03*
X79381Y52445I5473J16574D01*
G01*
X80461Y52156D02*
G03*
X81556Y51940I3648J15646D01*
G01*
X77270Y53168D02*
G03*
X78310Y52761I5023J11312D01*
G01*
X84859Y51381D02*
G03*
X83755Y51548I-4030J-22837D01*
G01*
X85739Y21522D02*
G03*
X86710Y22074I-16505J30190D01*
G01*
X87673Y22640D02*
G03*
X88620Y23231I-10412J17742D01*
G01*
X89556Y23842D02*
G03*
X90460Y24497I-13692J19867D01*
G01*
D02*
G03*
X91339Y25185I-5565J8002D01*
G01*
Y25185D02*
G03*
X92176Y25925I-15418J18288D01*
G01*
Y25925D02*
G03*
X92943Y26737I-27757J27018D01*
G01*
X47268Y6682D02*
G03*
X48347Y6969I-15418J60024D01*
G01*
X44030Y5821D02*
G03*
X45109Y6107I-11705J46344D01*
G01*
X88216Y47411D02*
G03*
X88658Y46385I29084J11911D01*
G01*
X85942Y51114D02*
G03*
X84859Y51381I-1557J-3991D01*
G01*
X87364Y49476D02*
G03*
X86812Y50442I-6358J-2991D01*
G01*
D02*
G03*
X85942Y51114I-1450J-977D01*
G01*
X76245Y53609D02*
G03*
X77270Y53168I4064J8016D01*
G01*
X75277Y54170D02*
G03*
X76245Y53609I17272J28747D01*
G01*
X74324Y54752D02*
G03*
X75277Y54170I7387J11000D01*
G01*
X73404Y55385D02*
G03*
X74324Y54752I12051J16542D01*
G01*
X72492Y56031D02*
G03*
X73404Y55385I15550J21010D01*
G01*
X71649Y56762D02*
G03*
X72492Y56031I7672J7989D01*
G01*
X70838Y57529D02*
G03*
X71649Y56762I11990J11875D01*
G01*
X86338Y222205D02*
G03*
X86728Y223251I-39941J15467D01*
G01*
X70026Y173505D02*
G03*
X70327Y174580I-51974J15128D01*
G01*
X69693Y172439D02*
G03*
X70026Y173505I-49275J15994D01*
G01*
X69693Y172439D02*
G03*
X69367Y171371I47677J-15113D01*
G01*
X63474Y148671D02*
G03*
X62974Y146494I89813J-21795D01*
G01*
X60737Y135552D02*
G03*
X60534Y134454I61149J-11880D01*
G01*
X60123Y132258D02*
G03*
X59940Y131157I42065J-7544D01*
G01*
X57991Y115644D02*
G03*
X57888Y114532I56269J-5770D01*
G01*
X57625Y111192D02*
G03*
X57553Y110077I50060J-3785D01*
G01*
X57380Y106731D02*
G03*
X57344Y105615I44053J-1986D01*
G01*
X57275Y102265D02*
G03*
X57278Y101148I49582J-409D01*
G01*
X57295Y98914D02*
G03*
X57324Y97798I36782J409D01*
G01*
X57466Y94450D02*
G03*
X57546Y93336I45225J2669D01*
G01*
X57627Y92222D02*
G03*
X57708Y91108I60913J3890D01*
G01*
D02*
G03*
X57826Y89998I29039J2520D01*
G01*
X58083Y87778D02*
G03*
X58223Y86670I37847J4223D01*
G01*
X58223D02*
G03*
X58404Y85568I32412J4783D01*
G01*
X58777Y83365D02*
G03*
X58981Y82267I33832J5716D01*
G01*
D02*
G03*
X59224Y81177I44112J9285D01*
G01*
X59708Y78996D02*
G03*
X59976Y77912I30100J6864D01*
G01*
X60574Y75759D02*
G03*
X60882Y74685I43209J11818D01*
G01*
Y74685D02*
G03*
X61220Y73621I33984J10212D01*
G01*
X61934Y71503D02*
G03*
X62319Y70455I19054J6399D01*
G01*
X63165Y68387D02*
G03*
X63609Y67362I18549J7424D01*
G01*
Y67362D02*
G03*
X64118Y66368I27456J13445D01*
G01*
X64619Y65368D02*
G03*
X65157Y64390I12669J6331D01*
G01*
X65746Y63441D02*
G03*
X66391Y62530I11730J7616D01*
G01*
Y62530D02*
G03*
X67064Y61639I28833J21108D01*
G01*
X67759Y60764D02*
G03*
X68501Y59930I13081J10876D01*
G01*
X68501D02*
G03*
X69271Y59121I46221J43272D01*
G01*
X18794Y1096D02*
G03*
X19903Y1230I-6601J59097D01*
G01*
X15459Y772D02*
G03*
X16571Y874I-5157J62359D01*
G01*
X-13557Y160D02*
G03*
X-12442Y106I2577J41357D01*
G01*
X-20244Y601D02*
G03*
X-19132Y497I5619J54021D01*
G01*
X-26904Y1341D02*
G03*
X-25797Y1195I8128J57109D01*
G01*
X-33529Y2352D02*
G03*
X-32428Y2167I9958J56091D01*
G01*
X-55320Y7222D02*
G03*
X-54248Y6911I14346J47458D01*
G01*
X-70182Y12073D02*
G03*
X-69135Y11685I17746J46243D01*
G01*
X-85656Y18480D02*
G03*
X-84643Y18011I18522J38699D01*
G01*
X-88667Y19950D02*
G03*
X-87668Y19451I15454J29690D01*
G01*
X-91627Y21520D02*
G03*
X-90649Y20981I18308J32087D01*
G01*
X-94521Y23208D02*
G03*
X-93569Y22624I13438J20870D01*
G01*
X-94521Y23208D02*
G03*
X-95469Y23799I-32618J-51232D01*
G01*
X-96403Y24411D02*
G03*
X-95469Y23799I9255J13100D01*
G01*
X-96403Y24411D02*
G03*
X-97318Y25053I-18960J-26040D01*
G01*
X-98212Y25721D02*
G03*
X-97318Y25053I6272J7458D01*
G01*
X-98212Y25721D02*
G03*
X-99073Y26436I-22090J-25757D01*
G01*
X-99865Y27222D02*
G03*
X-99073Y26436I7473J6742D01*
G01*
X-100477Y28149D02*
G03*
X-99865Y27222I3367J1555D01*
G01*
X-100818Y29209D02*
G03*
X-100477Y28149I3750J622D01*
G01*
X-100961Y30316D02*
G03*
X-100818Y29209I16177J1529D01*
G01*
X-100860Y32544D02*
G03*
X-100982Y31433I17581J-2492D01*
G01*
X-100727Y33654D02*
G03*
X-100860Y32544I18906J-2823D01*
G01*
X-100458Y34732D02*
G03*
X-100727Y33654I6795J-2270D01*
G01*
X-99694Y36833D02*
G03*
X-100085Y35787I4837J-2401D01*
G01*
X-93713Y50059D02*
G03*
X-94714Y48063I38283J-20458D01*
G01*
X-93076Y50964D02*
G03*
X-93713Y50059I2081J-2142D01*
G01*
X-92026Y51325D02*
G03*
X-93076Y50964I550J-3304D01*
G01*
X-90930Y51537D02*
G03*
X-92026Y51325I2119J-13879D01*
G01*
X-90930Y51537D02*
G03*
X-89829Y51726I-3431J23241D01*
G01*
X-88731Y51942D02*
G03*
X-89829Y51726I4311J-24843D01*
G01*
X-88731Y51942D02*
G03*
X-87629Y52142I-4303J26850D01*
G01*
D02*
G03*
X-86556Y52442I-1711J8191D01*
G01*
X-85493Y52795D02*
G03*
X-86556Y52442I7068J-23057D01*
G01*
X-85493Y52795D02*
G03*
X-84425Y53136I-7373J24950D01*
G01*
Y53136D02*
G03*
X-83406Y53582I-2378J6816D01*
G01*
X-82410Y54096D02*
G03*
X-83406Y53582I7694J-16127D01*
G01*
X-82410Y54096D02*
G03*
X-81409Y54602I-6917J14940D01*
G01*
X-81409Y54602D02*
G03*
X-80496Y55237I-3216J5600D01*
G01*
X-79597Y55910D02*
G03*
X-80496Y55237I12870J-18128D01*
G01*
X-79597Y55910D02*
G03*
X-78719Y56602I-5890J8375D01*
G01*
D02*
G03*
X-77962Y57420I-6419J6701D01*
G01*
X-77192Y58239D02*
G03*
X-76496Y59108I-5688J5273D01*
G01*
X-76496Y59108D02*
G03*
X-75905Y60057I-33090J21274D01*
G01*
D02*
G03*
X-75300Y61001I-29291J19425D01*
G01*
D02*
G03*
X-74786Y61989I-5637J3561D01*
G01*
X-74348Y63018D02*
G03*
X-74786Y61989I37972J-16760D01*
G01*
X-74348Y63018D02*
G03*
X-73913Y64050I-28485J12612D01*
G01*
X-73913D02*
G03*
X-73552Y65104I-10547J4208D01*
G01*
X-72989Y67266D02*
G03*
X-72729Y68352I-26880J7004D01*
G01*
D02*
G03*
X-72518Y69449I-31868J6708D01*
G01*
X-72321Y70548D02*
G03*
X-72155Y71653I-15394J2882D01*
G01*
X-72155D02*
G03*
X-72007Y72760I-23681J3723D01*
G01*
X-71941Y73875D02*
G03*
X-71891Y74990I-38745J2304D01*
G01*
X-71891D02*
G03*
X-71878Y76107I-44101J1081D01*
G01*
X-71873Y77224D02*
G03*
X-71878Y76107I114474J-1045D01*
G01*
X-71873Y77224D02*
G03*
X-71888Y78341I-23097J248D01*
G01*
X-71902Y79458D02*
G03*
X-71930Y80575I-43985J-511D01*
G01*
X-71930D02*
G03*
X-71997Y81689I-24273J-903D01*
G01*
X-72179Y83917D02*
G03*
X-72313Y85025I-16913J-1489D01*
G01*
X-72650Y87234D02*
G03*
X-72844Y88334I-21218J-3165D01*
G01*
X-72844Y88334D02*
G03*
X-73085Y89424I-41217J-8541D01*
G01*
X-73333Y90514D02*
G03*
X-73581Y91603I-54019J-11747D01*
G01*
Y91603D02*
G03*
X-73874Y92680I-18616J-4483D01*
G01*
X-74503Y94824D02*
G03*
X-74830Y95892I-40333J-11733D01*
G01*
X-74830Y95892D02*
G03*
X-75194Y96948I-26581J-8573D01*
G01*
X-76322Y100103D02*
G03*
X-76726Y101144I-47023J-17625D01*
G01*
X-84418Y118498D02*
G03*
X-83984Y117469I13484J5078D01*
G01*
X-88929Y128714D02*
G03*
X-88491Y127687I32988J13492D01*
G01*
X-89340Y129752D02*
G03*
X-88929Y128714I55265J21237D01*
G01*
X-93680Y141244D02*
G03*
X-94085Y142285I-40933J-15323D01*
G01*
X-94473Y143332D02*
G03*
X-94085Y142285I21459J7350D01*
G01*
X-97211Y151837D02*
G03*
X-96890Y150767I46534J13370D01*
G01*
X-97506Y152914D02*
G03*
X-97211Y151837I58718J15510D01*
G01*
X-100065Y162634D02*
G03*
X-99804Y161548I59310J13659D01*
G01*
X-101434Y169193D02*
G03*
X-101222Y168096I34914J6183D01*
G01*
X-102502Y174674D02*
G03*
X-102305Y173575I60978J10351D01*
G01*
X-105388Y209135D02*
G03*
X-105390Y208018I311040J-934D01*
G01*
X-102361Y248067D02*
G03*
X-102527Y246963I62910J-10013D01*
G01*
X-102172Y249167D02*
G03*
X-102361Y248067I53143J-9724D01*
G01*
X-99521Y262303D02*
G03*
X-99785Y261218I18712J-5117D01*
G01*
X-99521Y262303D02*
G03*
X-99262Y263389I-39813J10098D01*
G01*
X-94520Y284072D02*
G03*
X-94311Y285169I-57165J11472D01*
G01*
X-93708Y288465D02*
G03*
X-93523Y289566I-47238J8516D01*
G01*
X-93039Y292882D02*
G03*
X-92892Y293989I-39571J5839D01*
G01*
X-92892D02*
G03*
X-92779Y295100I-56501J6293D01*
G01*
X-92549Y297323D02*
G03*
X-92456Y298436I-30351J3097D01*
G01*
X-92343Y300667D02*
G03*
X-92289Y301783I-48845J2886D01*
G01*
D02*
G03*
X-92274Y302899I-26563J914D01*
G01*
X-92292Y305134D02*
G03*
X-92328Y306250I-19488J-70D01*
G01*
X-92495Y308478D02*
G03*
X-92595Y309590I-26291J-1813D01*
G01*
X-92883Y311805D02*
G03*
X-93053Y312909I-43376J-6083D01*
G01*
X-93482Y315101D02*
G03*
X-93758Y316183I-10012J-1984D01*
G01*
X-94100Y317249D02*
G03*
X-94556Y318268I-27807J-11821D01*
G01*
D02*
G03*
X-95134Y319224I-4963J-2348D01*
G01*
D02*
G03*
X-95864Y320067I-3357J-2171D01*
G01*
X-95864D02*
G03*
X-96744Y320748I-2578J-2420D01*
G01*
Y320748D02*
G03*
X-97690Y321342I-10582J-15817D01*
G01*
X-98651Y321913D02*
G03*
X-97690Y321342I15320J24700D01*
G01*
X-99556Y322567D02*
G03*
X-98651Y321913I7183J8976D01*
G01*
X-100456Y323231D02*
G03*
X-99556Y322567I24084J31744D01*
G01*
X-101292Y323971D02*
G03*
X-100456Y323231I8577J8842D01*
G01*
X-102124Y324719D02*
G03*
X-101292Y323971I19797J21186D01*
G01*
X-102858Y325559D02*
G03*
X-102124Y324719I7625J5926D01*
G01*
X-103561Y326427D02*
G03*
X-102858Y325559I13819J10462D01*
G01*
X-104208Y327337D02*
G03*
X-103561Y326427I38612J26789D01*
G01*
X-104860Y328244D02*
G03*
X-105468Y329182I-13760J-8257D01*
G01*
X-106072Y330122D02*
G03*
X-105468Y329182I11742J6874D01*
G01*
X-106581Y331115D02*
G03*
X-106072Y330122I30115J14820D01*
G01*
X-107056Y332126D02*
G03*
X-106581Y331115I10261J4205D01*
G01*
X-107888Y334198D02*
G03*
X-107500Y333152I10875J3447D01*
G01*
X-108575Y336322D02*
G03*
X-108261Y335252I9207J2116D01*
G01*
X-108575Y336322D02*
G03*
X-108861Y337404I-54046J-13722D01*
G01*
X-109117Y338490D02*
G03*
X-108861Y337404I12306J2324D01*
G01*
X-109117Y338490D02*
G03*
X-109290Y339594I-56363J-8277D01*
G01*
X-109475Y340698D02*
G03*
X-109290Y339594I43224J6658D01*
G01*
X-109568Y341809D02*
G03*
X-109475Y340698I8979J195D01*
G01*
X-109675Y344043D02*
G03*
X-109626Y342927I19943J313D01*
G01*
X-109606Y345156D02*
G03*
X-109675Y344043I10020J-1185D01*
G01*
X-109606Y345156D02*
G03*
X-109525Y346272I-63651J5134D01*
G01*
X-109425Y347385D02*
G03*
X-109525Y346272I19413J-2306D01*
G01*
X-109230Y348483D02*
G03*
X-109425Y347385I15979J-3402D01*
G01*
X-109010Y349578D02*
G03*
X-109230Y348483I24272J-5451D01*
G01*
X-108715Y350655D02*
G03*
X-109010Y349578I16724J-5170D01*
G01*
X-108391Y351723D02*
G03*
X-108715Y350655I9218J-3371D01*
G01*
X-108020Y352777D02*
G03*
X-108391Y351723I20749J-7915D01*
G01*
X-107579Y353803D02*
G03*
X-108020Y352777I23568J-10737D01*
G01*
X-106618Y355819D02*
G03*
X-107116Y354819I15311J-8239D01*
G01*
X-106618Y355819D02*
G03*
X-106097Y356810I-31155J17001D01*
G01*
X-105551Y357783D02*
G03*
X-106097Y356810I8403J-5359D01*
G01*
X-104274Y359620D02*
G03*
X-104907Y358697I31136J-22035D01*
G01*
X-103567Y360481D02*
G03*
X-104274Y359620I6262J-5864D01*
G01*
X-103567Y360481D02*
G03*
X-102817Y361312I-21883J20497D01*
G01*
X-102062Y362137D02*
G03*
X-102817Y361312I12330J-12045D01*
G01*
X-101230Y362880D02*
G03*
X-102062Y362137I7090J-8780D01*
G01*
X-99527Y364326D02*
G03*
X-100394Y363624I6216J-8568D01*
G01*
X-99527Y364326D02*
G03*
X-98609Y364964I-23287J34484D01*
G01*
X-97689Y365600D02*
G03*
X-98609Y364964I15124J-22821D01*
G01*
X-96725Y366161D02*
G03*
X-97689Y365600I4870J-9485D01*
G01*
X-96725Y366161D02*
G03*
X-95742Y366695I-12375J23964D01*
G01*
X-94751Y367210D02*
G03*
X-95742Y366695I6103J-12946D01*
G01*
X-93717Y367634D02*
G03*
X-94751Y367210I11559J-29662D01*
G01*
X-91630Y368427D02*
G03*
X-92685Y368066I2263J-8337D01*
G01*
X-91630Y368427D02*
G03*
X-90557Y368744I-8630J31176D01*
G01*
X-89480Y369042D02*
G03*
X-90557Y368744I3724J-15525D01*
G01*
X-88382Y369243D02*
G03*
X-89480Y369042I2792J-18380D01*
G01*
X-86174Y369578D02*
G03*
X-87282Y369446I922J-12467D01*
G01*
X-83942Y369708D02*
G03*
X-85058Y369650I407J-18352D01*
G01*
X-82827Y369654D02*
G03*
X-83942Y369708I-1378J-16923D01*
G01*
X-80602Y369463D02*
G03*
X-81710Y369592I-1663J-9423D01*
G01*
X-80602Y369463D02*
G03*
X-79500Y369265I3985J18967D01*
G01*
X-78407Y369035D02*
G03*
X-79500Y369265I-2446J-8941D01*
G01*
X-77345Y368688D02*
G03*
X-78407Y369035I-14494J-42509D01*
G01*
X-76279Y368345D02*
G03*
X-77345Y368688I-9413J-27485D01*
G01*
X-75267Y367878D02*
G03*
X-76279Y368345I-3874J-7049D01*
G01*
X-73299Y366822D02*
G03*
X-74258Y367388I-3440J-4730D01*
G01*
X-73299Y366822D02*
G03*
X-72385Y366174I12096J16099D01*
G01*
X-71487Y365508D02*
G03*
X-72385Y366174I-6608J-7969D01*
G01*
X-70699Y364718D02*
G03*
X-71487Y365508I-9905J-9098D01*
G01*
X-69182Y363080D02*
G03*
X-69914Y363922I-7940J-6157D01*
G01*
X-69182Y363080D02*
G03*
X-68488Y362205I25077J19176D01*
G01*
D02*
G03*
X-67754Y361361I10551J8437D01*
G01*
D02*
G03*
X-66798Y360798I1765J1903D01*
G01*
X-66798Y360798D02*
G03*
X-65712Y360549I2126J6798D01*
G01*
X-65712D02*
G03*
X-64604Y360405I7222J51319D01*
G01*
X-57962Y359527D02*
G03*
X-59065Y359702I-10537J-62556D01*
G01*
X-49220Y357692D02*
G03*
X-50302Y357967I-8951J-32948D01*
G01*
X-33296Y352519D02*
G03*
X-34341Y352912I-21863J-56668D01*
G01*
X-31239Y351651D02*
G03*
X-32255Y352113I-3609J-6589D01*
G01*
X-31239Y351651D02*
G03*
X-30206Y351228I5030J10817D01*
G01*
X-28143Y350373D02*
G03*
X-29172Y350806I-14355J-32691D01*
G01*
X-23045Y348095D02*
G03*
X-24055Y348570I-13010J-26331D01*
G01*
X21982Y325793D02*
G03*
X23021Y325382I16711J40752D01*
G01*
D02*
G03*
X24068Y324996I21495J56617D01*
G01*
X25118Y324613D02*
G03*
X26165Y324227I19414J51000D01*
G01*
X27225Y323871D02*
G03*
X26165Y324227I-9625J-26931D01*
G01*
X28277Y323491D02*
G03*
X29340Y323152I5555J15575D01*
G01*
X29340D02*
G03*
X30424Y322884I7978J29994D01*
G01*
X31507Y322604D02*
G03*
X32592Y322338I8907J33974D01*
G01*
D02*
G03*
X33689Y322131I3128J13546D01*
G01*
X34793Y321957D02*
G03*
X33689Y322131I-6617J-38412D01*
G01*
X35896Y321771D02*
G03*
X37002Y321620I3235J19680D01*
G01*
Y321620D02*
G03*
X38115Y321539I2505J26703D01*
G01*
X39230Y321449D02*
G03*
X38115Y321539I-4256J-45630D01*
G01*
X39230Y321449D02*
G03*
X40345Y321374I2216J24682D01*
G01*
D02*
G03*
X41461Y321378I521J11247D01*
G01*
X42579Y321400D02*
G03*
X41461Y321378I199J-38336D01*
G01*
X42579Y321400D02*
G03*
X43696Y321431I-124J24297D01*
G01*
D02*
G03*
X44808Y321528I-1718J26166D01*
G01*
Y321528D02*
G03*
X45918Y321657I-1804J20309D01*
G01*
X47018Y321852D02*
G03*
X48105Y322106I-1446J8639D01*
G01*
D02*
G03*
X49177Y322419I-3399J13663D01*
G01*
X49177D02*
G03*
X50219Y322822I-6465J18267D01*
G01*
D02*
G03*
X51211Y323337I-10987J22353D01*
G01*
D02*
G03*
X52123Y323986I-9138J13812D01*
G01*
X52123D02*
G03*
X52699Y324913I-935J1224D01*
G01*
D02*
G03*
X52262Y325891I-1130J81D01*
G01*
X52262D02*
G03*
X51294Y326432I-1896J-2256D01*
G01*
Y326432D02*
G03*
X50222Y326742I-4280J-12781D01*
G01*
X49163Y327097D02*
G03*
X50222Y326742I2591J5969D01*
G01*
X49531Y327834D02*
G03*
X49163Y327097I-36J-442D01*
G01*
X50510Y328370D02*
G03*
X49531Y327834I9869J-19163D01*
G01*
X51494Y328899D02*
G03*
X52461Y329457I-8743J16276D01*
G01*
X53432Y330007D02*
G03*
X52461Y329457I7392J-14166D01*
G01*
X55424Y331019D02*
G03*
X54426Y330518I17990J-37145D01*
G01*
X57438Y331983D02*
G03*
X56429Y331505I20580J-44709D01*
G01*
X58463Y332427D02*
G03*
X57438Y331983I9016J-22236D01*
G01*
X60550Y333223D02*
G03*
X59503Y332835I3046J-9838D01*
G01*
X61627Y333518D02*
G03*
X60550Y333223I8701J-33815D01*
G01*
X64883Y334305D02*
G03*
X63795Y334054I11616J-52902D01*
G01*
X65975Y334538D02*
G03*
X67078Y334721I-5239J34948D01*
G01*
X68189Y334830D02*
G03*
X67078Y334721I567J-11515D01*
G01*
X69304Y334898D02*
G03*
X68189Y334830I245J-13276D01*
G01*
X71536Y334854D02*
G03*
X70421Y334903I-1352J-18086D01*
G01*
X72652Y334784D02*
G03*
X71536Y334854I-3997J-54475D01*
G01*
X73757Y334628D02*
G03*
X72652Y334784I-2547J-14052D01*
G01*
X73757Y334628D02*
G03*
X74865Y334469I5345J33454D01*
G01*
X75971Y334306D02*
G03*
X74865Y334469I-4335J-25495D01*
G01*
X77061Y334070D02*
G03*
X75971Y334306I-3995J-15832D01*
G01*
X80308Y333234D02*
G03*
X79229Y333523I-6914J-23675D01*
G01*
X81364Y332873D02*
G03*
X80308Y333234I-5018J-12938D01*
G01*
X81364Y332873D02*
G03*
X82418Y332501I17473J47793D01*
G01*
X84517Y331734D02*
G03*
X83475Y332134I-8086J-19502D01*
G01*
X85531Y331267D02*
G03*
X84517Y331734I-8755J-17658D01*
G01*
X85531Y331267D02*
G03*
X86550Y330806I19283J41276D01*
G01*
X87570Y330346D02*
G03*
X86550Y330806I-19016J-40782D01*
G01*
X88561Y329835D02*
G03*
X87570Y330346I-6954J-12272D01*
G01*
X91463Y328152D02*
G03*
X90497Y328715I-15140J-24876D01*
G01*
X92387Y327527D02*
G03*
X91463Y328152I-7039J-9407D01*
G01*
X95064Y325509D02*
G03*
X94181Y326193I-13703J-16758D01*
G01*
X95896Y324765D02*
G03*
X95064Y325509I-9476J-9764D01*
G01*
X95896Y324765D02*
G03*
X96720Y324010I33608J35875D01*
G01*
X97543Y323254D02*
G03*
X96720Y324010I-35694J-37995D01*
G01*
X98327Y322460D02*
G03*
X97543Y323254I-11310J-10381D01*
G01*
X98327Y322460D02*
G03*
X99088Y321642I40074J36551D01*
G01*
X100593Y319990D02*
G03*
X99858Y320830I-12476J-10175D01*
G01*
X102650Y317346D02*
G03*
X101988Y318244I-12048J-8199D01*
G01*
X103898Y315491D02*
G03*
X103279Y316422I-44628J-29009D01*
G01*
X104484Y314541D02*
G03*
X103898Y315491I-19096J-11120D01*
G01*
X105014Y313557D02*
G03*
X104484Y314541I-32906J-17084D01*
G01*
X106059Y311582D02*
G03*
X105554Y312578I-15658J-7305D01*
G01*
X106496Y310555D02*
G03*
X106059Y311582I-48216J-19924D01*
G01*
X107362Y308494D02*
G03*
X106946Y309530I-16852J-6163D01*
G01*
X107708Y307433D02*
G03*
X107362Y308494I-59636J-18850D01*
G01*
X108394Y305306D02*
G03*
X108065Y306373I-19308J-5353D01*
G01*
X108655Y304220D02*
G03*
X108394Y305306I-28744J-6346D01*
G01*
X108655Y304220D02*
G03*
X108924Y303135I60161J14341D01*
G01*
X109174Y302046D02*
G03*
X108924Y303135I-20348J-4091D01*
G01*
X109354Y300944D02*
G03*
X109174Y302046I-27474J-3935D01*
G01*
X109508Y299838D02*
G03*
X109354Y300944I-19757J-2188D01*
G01*
X109649Y297609D02*
G03*
X109600Y298725I-28525J-710D01*
G01*
X109679Y296493D02*
G03*
X109649Y297609I-36032J-408D01*
G01*
X109644Y294259D02*
G03*
X109668Y295376I-23210J1042D01*
G01*
X109419Y290914D02*
G03*
X109500Y292028I-33937J3017D01*
G01*
X109287Y289806D02*
G03*
X109419Y290914I-18147J2737D01*
G01*
X109287Y289806D02*
G03*
X109119Y288701I61658J-9933D01*
G01*
X108784Y286491D02*
G03*
X108970Y287592I-21215J4148D01*
G01*
X108528Y285405D02*
G03*
X108784Y286491I-14147J3908D01*
G01*
X108209Y284335D02*
G03*
X108528Y285405I-32961J10420D01*
G01*
X107864Y283273D02*
G03*
X108209Y284335I-48158J16238D01*
G01*
X107864Y283273D02*
G03*
X107519Y282211I39146J-13302D01*
G01*
X91329Y40240D02*
X91771Y39214D01*
X93092Y36135D02*
X93549Y35115D01*
X92652Y37162D02*
X93092Y36135D01*
X92212Y38188D02*
X92652Y37162D01*
X91771Y39214D02*
X92212Y38188D01*
X81556Y51940D02*
X82654Y51736D01*
X79381Y52445D02*
X80461Y52156D01*
X89558Y44341D02*
X90003Y43317D01*
X90888Y41266D02*
X91329Y40240D01*
X90447Y42292D02*
X90888Y41266D01*
X90003Y43317D02*
X90447Y42292D01*
X89110Y45364D02*
X89558Y44341D01*
X88658Y46385D02*
X89110Y45364D01*
X87802Y48448D02*
X88216Y47411D01*
X87364Y49476D02*
X87802Y48448D01*
X80787Y18943D02*
X81788Y19439D01*
X82783Y19945D01*
X83773Y20463D01*
X84758Y20989D01*
X85739Y21522D01*
X86710Y22074D02*
X87673Y22640D01*
X88620Y23231D02*
X89556Y23842D01*
X72636Y15286D02*
X73669Y15711D01*
X79781Y18458D02*
X80787Y18943D01*
X70570Y14437D02*
X71602Y14864D01*
X72636Y15286D01*
X73669Y15711D02*
X74694Y16155D01*
X75715Y16608D01*
X76736Y17060D01*
X77755Y17517D01*
X78771Y17983D01*
X79781Y18458D01*
X68495Y13610D02*
X69536Y14016D01*
X59013Y10277D02*
X60071Y10638D01*
X67452Y13211D02*
X68495Y13610D01*
X57954Y9925D02*
X59013Y10277D01*
X60071Y10638D02*
X61127Y11001D01*
X62184Y11361D01*
X63242Y11719D01*
X64298Y12080D01*
X65354Y12445D01*
X66407Y12816D01*
X67452Y13211D01*
X69536Y14016D02*
X70570Y14437D01*
X40771Y5042D02*
X41859Y5297D01*
X42945Y5556D01*
X44030Y5821D01*
X54761Y8909D02*
X55827Y9242D01*
X48347Y6969D02*
X49421Y7277D01*
X53694Y8578D02*
X54761Y8909D01*
X45109Y6107D02*
X46187Y6400D01*
X47268Y6682D01*
X49421Y7277D02*
X50490Y7598D01*
X51559Y7924D01*
X52627Y8250D01*
X53694Y8578D01*
X55827Y9242D02*
X56891Y9580D01*
X57954Y9925D01*
X69271Y59121D02*
X70049Y58320D01*
X70838Y57529D01*
X98148Y253558D02*
X98546Y254602D01*
X97747Y252516D02*
X98148Y253558D01*
X97347Y251473D02*
X97747Y252516D01*
X96946Y250431D02*
X97347Y251473D01*
X96542Y249390D02*
X96946Y250431D01*
X96138Y248348D02*
X96542Y249390D01*
X95737Y247306D02*
X96138Y248348D01*
X95347Y246260D02*
X95737Y247306D01*
X94966Y245210D02*
X95347Y246260D01*
X94574Y244164D02*
X94966Y245210D01*
X94177Y243120D02*
X94574Y244164D01*
X93777Y242077D02*
X94177Y243120D01*
X93376Y241035D02*
X93777Y242077D01*
X92975Y239993D02*
X93376Y241035D01*
X92575Y238950D02*
X92975Y239993D01*
X92175Y237907D02*
X92575Y238950D01*
X91774Y236865D02*
X92175Y237907D01*
X91374Y235822D02*
X91774Y236865D01*
X90976Y234779D02*
X91374Y235822D01*
X90581Y233734D02*
X90976Y234779D01*
X90190Y232688D02*
X90581Y233734D01*
X89801Y231641D02*
X90190Y232688D01*
X89415Y230593D02*
X89801Y231641D01*
X89029Y229545D02*
X89415Y230593D01*
X88643Y228497D02*
X89029Y229545D01*
X88257Y227449D02*
X88643Y228497D01*
X87871Y226401D02*
X88257Y227449D01*
X87484Y225353D02*
X87871Y226401D01*
X87101Y224304D02*
X87484Y225353D01*
X86728Y223251D02*
X87101Y224304D01*
X85937Y221163D02*
X86338Y222205D01*
X85538Y220119D02*
X85937Y221163D01*
X85146Y219074D02*
X85538Y220119D01*
X84759Y218026D02*
X85146Y219074D01*
X84375Y216977D02*
X84759Y218026D01*
X83993Y215928D02*
X84375Y216977D01*
X83614Y214877D02*
X83993Y215928D01*
X83235Y213827D02*
X83614Y214877D01*
X82858Y212775D02*
X83235Y213827D01*
X82482Y211724D02*
X82858Y212775D01*
X82108Y210671D02*
X82482Y211724D01*
X81736Y209618D02*
X82108Y210671D01*
X81367Y208564D02*
X81736Y209618D01*
X80998Y207510D02*
X81367Y208564D01*
X80632Y206455D02*
X80998Y207510D01*
X80265Y205400D02*
X80632Y206455D01*
X79899Y204345D02*
X80265Y205400D01*
X79533Y203290D02*
X79899Y204345D01*
X79166Y202235D02*
X79533Y203290D01*
X78796Y201182D02*
X79166Y202235D01*
X78412Y200132D02*
X78796Y201182D01*
X78054Y199075D02*
X78412Y200132D01*
X77697Y198016D02*
X78054Y199075D01*
X77342Y196958D02*
X77697Y198016D01*
X76988Y195898D02*
X77342Y196958D01*
X76636Y194838D02*
X76988Y195898D01*
X76286Y193778D02*
X76636Y194838D01*
X75936Y192717D02*
X76286Y193778D01*
X75587Y191656D02*
X75936Y192717D01*
X75239Y190595D02*
X75587Y191656D01*
X74893Y189533D02*
X75239Y190595D01*
X74549Y188471D02*
X74893Y189533D01*
X74210Y187407D02*
X74549Y188471D01*
X73877Y186341D02*
X74210Y187407D01*
X73550Y185273D02*
X73877Y186341D01*
X73223Y184205D02*
X73550Y185273D01*
X72896Y183137D02*
X73223Y184205D01*
X72567Y182070D02*
X72896Y183137D01*
X72238Y181002D02*
X72567Y182070D01*
X71579Y178868D02*
X72238Y181002D01*
X71250Y177801D02*
X71579Y178868D01*
X70927Y176732D02*
X71250Y177801D01*
X70621Y175658D02*
X70927Y176732D01*
X70327Y174580D02*
X70621Y175658D01*
X69059Y170297D02*
X69367Y171371D01*
X68756Y169222D02*
X69059Y170297D01*
X68461Y168145D02*
X68756Y169222D01*
X68173Y167066D02*
X68461Y168145D01*
X67887Y165986D02*
X68173Y167066D01*
X67596Y164908D02*
X67887Y165986D01*
X67305Y163830D02*
X67596Y164908D01*
X67019Y162750D02*
X67305Y163830D01*
X66737Y161670D02*
X67019Y162750D01*
X66457Y160589D02*
X66737Y161670D01*
X66179Y159507D02*
X66457Y160589D01*
X65901Y158425D02*
X66179Y159507D01*
X65624Y157343D02*
X65901Y158425D01*
X65348Y156261D02*
X65624Y157343D01*
X65074Y155178D02*
X65348Y156261D01*
X64803Y154095D02*
X65074Y155178D01*
X64533Y153011D02*
X64803Y154095D01*
X64266Y151927D02*
X64533Y153011D01*
X63736Y149757D02*
X64266Y151927D01*
X63474Y148671D02*
X63736Y149757D01*
X62743Y145402D02*
X62974Y146494D01*
X62287Y143215D02*
X62743Y145402D01*
X62059Y142122D02*
X62287Y143215D01*
X61834Y141028D02*
X62059Y142122D01*
X61612Y139933D02*
X61834Y141028D01*
X61393Y138838D02*
X61612Y139933D01*
X61177Y137742D02*
X61393Y138838D01*
X60958Y136647D02*
X61177Y137742D01*
X60737Y135552D02*
X60958Y136647D01*
X60329Y133356D02*
X60534Y134454D01*
X60123Y132258D02*
X60329Y133356D01*
X59779Y130052D02*
X59940Y131157D01*
X59624Y128946D02*
X59779Y130052D01*
X59473Y127839D02*
X59624Y128946D01*
X59323Y126732D02*
X59473Y127839D01*
X59175Y125625D02*
X59323Y126732D01*
X59027Y124518D02*
X59175Y125625D01*
X58881Y123411D02*
X59027Y124518D01*
X58741Y122303D02*
X58881Y123411D01*
X58603Y121195D02*
X58741Y122303D01*
X58465Y120086D02*
X58603Y121195D01*
X58335Y118977D02*
X58465Y120086D01*
X58219Y117866D02*
X58335Y118977D01*
X58106Y116755D02*
X58219Y117866D01*
X57991Y115644D02*
X58106Y116755D01*
X57803Y113419D02*
X57888Y114532D01*
X57713Y112305D02*
X57803Y113419D01*
X57625Y111192D02*
X57713Y112305D01*
X57497Y108962D02*
X57553Y110077D01*
X57437Y107846D02*
X57497Y108962D01*
X57380Y106731D02*
X57437Y107846D01*
X57321Y104498D02*
X57344Y105615D01*
X57293Y103382D02*
X57321Y104498D01*
X57275Y102265D02*
X57293Y103382D01*
X57278Y101148D02*
X57288Y100031D01*
X57295Y98914D01*
X57324Y97798D02*
X57369Y96682D01*
X57412Y95566D01*
X57466Y94450D01*
X57546Y93336D02*
X57627Y92222D01*
X57826Y89998D02*
X57958Y88888D01*
X58083Y87778D01*
X58404Y85568D02*
X58593Y84467D01*
X58777Y83365D01*
X59224Y81177D02*
X59466Y80086D01*
X59708Y78996D01*
X59976Y77912D02*
X60280Y76837D01*
X60574Y75759D01*
X61220Y73621D02*
X61581Y72564D01*
X61934Y71503D01*
X62319Y70455D02*
X62748Y69424D01*
X63165Y68387D01*
X64118Y66368D02*
X64619Y65368D01*
X65157Y64390D02*
X65746Y63441D01*
X67064Y61639D02*
X67759Y60764D01*
X39682Y4797D02*
X40771Y5042D01*
X38590Y4563D02*
X39682Y4797D01*
X37497Y4332D02*
X38590Y4563D01*
X36404Y4104D02*
X37497Y4332D01*
X35309Y3880D02*
X36404Y4104D01*
X34214Y3661D02*
X35309Y3880D01*
X33118Y3448D02*
X34214Y3661D01*
X32021Y3240D02*
X33118Y3448D01*
X30924Y3031D02*
X32021Y3240D01*
X29826Y2826D02*
X30924Y3031D01*
X28726Y2630D02*
X29826Y2826D01*
X27626Y2438D02*
X28726Y2630D01*
X26526Y2246D02*
X27626Y2438D01*
X25425Y2057D02*
X26526Y2246D01*
X24322Y1880D02*
X25425Y2057D01*
X23218Y1710D02*
X24322Y1880D01*
X22114Y1543D02*
X23218Y1710D01*
X21009Y1381D02*
X22114Y1543D01*
X19903Y1230D02*
X21009Y1381D01*
X17683Y981D02*
X18794Y1096D01*
X16571Y874D02*
X17683Y981D01*
X14345Y689D02*
X15459Y772D01*
X13231Y607D02*
X14345Y689D01*
X12117Y531D02*
X13231Y607D01*
X11002Y466D02*
X12117Y531D01*
X9887Y406D02*
X11002Y466D01*
X8772Y344D02*
X9887Y406D01*
X7656Y291D02*
X8772Y344D01*
X6540Y247D02*
X7656Y291D01*
X5424Y204D02*
X6540Y247D01*
X4308Y159D02*
X5424Y204D01*
X3192Y126D02*
X4308Y159D01*
X2075Y108D02*
X3192Y126D01*
X959Y90D02*
X2075Y108D01*
X-158Y67D02*
X959Y90D01*
X-1275Y44D02*
X-158Y67D01*
X-2392Y23D02*
X-1275Y44D01*
X-3508Y8D02*
X-2392Y23D01*
X-4625Y0D02*
X-3508Y8D01*
X-5742Y3D02*
X-4625Y0D01*
X-6859Y11D02*
X-5742Y3D01*
X-7976Y18D02*
X-6859Y11D01*
X-9092Y30D02*
X-7976Y18D01*
X-10209Y56D02*
X-9092Y30D01*
X-11326Y81D02*
X-10209Y56D01*
X-12442Y106D02*
X-11326Y81D01*
X-14673Y223D02*
X-13557Y160D01*
X-15789Y282D02*
X-14673Y223D01*
X-16904Y343D02*
X-15789Y282D01*
X-18019Y413D02*
X-16904Y343D01*
X-19132Y497D02*
X-18019Y413D01*
X-21354Y724D02*
X-20244Y601D01*
X-22466Y838D02*
X-21354Y724D01*
X-23577Y950D02*
X-22466Y838D01*
X-24688Y1066D02*
X-23577Y950D01*
X-25797Y1195D02*
X-24688Y1066D01*
X-28009Y1508D02*
X-26904Y1341D01*
X-29113Y1678D02*
X-28009Y1508D01*
X-30218Y1840D02*
X-29113Y1678D01*
X-31324Y2000D02*
X-30218Y1840D01*
X-32428Y2167D02*
X-31324Y2000D01*
X-34627Y2555D02*
X-33529Y2352D01*
X-35724Y2766D02*
X-34627Y2555D01*
X-36821Y2974D02*
X-35724Y2766D01*
X-37919Y3182D02*
X-36821Y2974D01*
X-39016Y3392D02*
X-37919Y3182D01*
X-40111Y3610D02*
X-39016Y3392D01*
X-41205Y3835D02*
X-40111Y3610D01*
X-42297Y4067D02*
X-41205Y3835D01*
X-43389Y4305D02*
X-42297Y4067D01*
X-44479Y4546D02*
X-43389Y4305D01*
X-45569Y4791D02*
X-44479Y4546D01*
X-46658Y5039D02*
X-45569Y4791D01*
X-47746Y5291D02*
X-46658Y5039D01*
X-48832Y5548D02*
X-47746Y5291D01*
X-49918Y5809D02*
X-48832Y5548D01*
X-51003Y6075D02*
X-49918Y5809D01*
X-52087Y6346D02*
X-51003Y6075D01*
X-53169Y6622D02*
X-52087Y6346D01*
X-54248Y6911D02*
X-53169Y6622D01*
X-56388Y7550D02*
X-55320Y7222D01*
X-57454Y7881D02*
X-56388Y7550D01*
X-58522Y8210D02*
X-57454Y7881D01*
X-59589Y8538D02*
X-58522Y8210D01*
X-60656Y8869D02*
X-59589Y8538D01*
X-61720Y9208D02*
X-60656Y8869D01*
X-62783Y9552D02*
X-61720Y9208D01*
X-63845Y9895D02*
X-62783Y9552D01*
X-64907Y10241D02*
X-63845Y9895D01*
X-65968Y10592D02*
X-64907Y10241D01*
X-67026Y10950D02*
X-65968Y10592D01*
X-68082Y11313D02*
X-67026Y10950D01*
X-69135Y11685D02*
X-68082Y11313D01*
X-71221Y12483D02*
X-70182Y12073D01*
X-72262Y12887D02*
X-71221Y12483D01*
X-73306Y13284D02*
X-72262Y12887D01*
X-74350Y13681D02*
X-73306Y13284D01*
X-75393Y14081D02*
X-74350Y13681D01*
X-76434Y14485D02*
X-75393Y14081D01*
X-77471Y14900D02*
X-76434Y14485D01*
X-78502Y15329D02*
X-77471Y14900D01*
X-79529Y15768D02*
X-78502Y15329D01*
X-80554Y16212D02*
X-79529Y15768D01*
X-81578Y16657D02*
X-80554Y16212D01*
X-82601Y17105D02*
X-81578Y16657D01*
X-83622Y17559D02*
X-82601Y17105D01*
X-84643Y18011D02*
X-83622Y17559D01*
X-86662Y18966D02*
X-85656Y18480D01*
X-87668Y19451D02*
X-86662Y18966D01*
X-89658Y20465D02*
X-88667Y19950D01*
X-90649Y20981D02*
X-89658Y20465D01*
X-92598Y22072D02*
X-91627Y21520D01*
X-93569Y22624D02*
X-92598Y22072D01*
X-100982Y31433D02*
X-100961Y30316D01*
X-100458Y34732D02*
X-100085Y35787D01*
X-99694Y36833D02*
X-99252Y37858D01*
X-98812Y38885D01*
X-98370Y39911D01*
X-97479Y41959D01*
X-97029Y42981D01*
X-96576Y44002D01*
X-96119Y45021D01*
X-95658Y46038D01*
X-95191Y47053D01*
X-94714Y48063D01*
X-77962Y57420D02*
X-77192Y58239D01*
X-73552Y65104D02*
X-73275Y66186D01*
X-72989Y67266D01*
X-72518Y69449D02*
X-72321Y70548D01*
X-72007Y72760D02*
X-71941Y73875D01*
X-71902Y79458D02*
X-71888Y78341D01*
X-72092Y82802D02*
X-71997Y81689D01*
X-72179Y83917D02*
X-72092Y82802D01*
X-72488Y86128D02*
X-72313Y85025D01*
X-72650Y87234D02*
X-72488Y86128D01*
X-73333Y90514D02*
X-73085Y89424D01*
X-74193Y93751D02*
X-73874Y92680D01*
X-74503Y94824D02*
X-74193Y93751D01*
X-75571Y97999D02*
X-75194Y96948D01*
X-75941Y99053D02*
X-75571Y97999D01*
X-76322Y100103D02*
X-75941Y99053D01*
X-77136Y102183D02*
X-76726Y101144D01*
X-77553Y103219D02*
X-77136Y102183D01*
X-77982Y104250D02*
X-77553Y103219D01*
X-78419Y105278D02*
X-77982Y104250D01*
X-78861Y106304D02*
X-78419Y105278D01*
X-79308Y107327D02*
X-78861Y106304D01*
X-79762Y108348D02*
X-79308Y107327D01*
X-80221Y109366D02*
X-79762Y108348D01*
X-80686Y110381D02*
X-80221Y109366D01*
X-81154Y111395D02*
X-80686Y110381D01*
X-81626Y112407D02*
X-81154Y111395D01*
X-82099Y113419D02*
X-81626Y112407D01*
X-82574Y114429D02*
X-82099Y113419D01*
X-83051Y115440D02*
X-82574Y114429D01*
X-83520Y116453D02*
X-83051Y115440D01*
X-83984Y117469D02*
X-83520Y116453D01*
X-84860Y119523D02*
X-84418Y118498D01*
X-85307Y120547D02*
X-84860Y119523D01*
X-85757Y121569D02*
X-85307Y120547D01*
X-86209Y122590D02*
X-85757Y121569D01*
X-86661Y123611D02*
X-86209Y122590D01*
X-87115Y124632D02*
X-86661Y123611D01*
X-87570Y125651D02*
X-87115Y124632D01*
X-88031Y126669D02*
X-87570Y125651D01*
X-88491Y127687D02*
X-88031Y126669D01*
X-89743Y130794D02*
X-89340Y129752D01*
X-90151Y131834D02*
X-89743Y130794D01*
X-90562Y132872D02*
X-90151Y131834D01*
X-90972Y133911D02*
X-90562Y132872D01*
X-91377Y134952D02*
X-90972Y133911D01*
X-91776Y135995D02*
X-91377Y134952D01*
X-92162Y137043D02*
X-91776Y135995D01*
X-92540Y138094D02*
X-92162Y137043D01*
X-92917Y139145D02*
X-92540Y138094D01*
X-93297Y140195D02*
X-92917Y139145D01*
X-93680Y141244D02*
X-93297Y140195D01*
X-94833Y144389D02*
X-94473Y143332D01*
X-95184Y145450D02*
X-94833Y144389D01*
X-95529Y146512D02*
X-95184Y145450D01*
X-95880Y147573D02*
X-95529Y146512D01*
X-96228Y148634D02*
X-95880Y147573D01*
X-96558Y149700D02*
X-96228Y148634D01*
X-96890Y150767D02*
X-96558Y149700D01*
X-97796Y153992D02*
X-97506Y152914D01*
X-98090Y155070D02*
X-97796Y153992D01*
X-98387Y156146D02*
X-98090Y155070D01*
X-98678Y157225D02*
X-98387Y156146D01*
X-98958Y158306D02*
X-98678Y157225D01*
X-99236Y159387D02*
X-98958Y158306D01*
X-99523Y160467D02*
X-99236Y159387D01*
X-99804Y161548D02*
X-99523Y160467D01*
X-100311Y163723D02*
X-100065Y162634D01*
X-100547Y164815D02*
X-100311Y163723D01*
X-100769Y165909D02*
X-100547Y164815D01*
X-100991Y167004D02*
X-100769Y165909D01*
X-101222Y168096D02*
X-100991Y167004D01*
X-101648Y170289D02*
X-101434Y169193D01*
X-101871Y171384D02*
X-101648Y170289D01*
X-102092Y172479D02*
X-101871Y171384D01*
X-102305Y173575D02*
X-102092Y172479D01*
X-102683Y175776D02*
X-102502Y174674D01*
X-102860Y176879D02*
X-102683Y175776D01*
X-103037Y177982D02*
X-102860Y176879D01*
X-103202Y179086D02*
X-103037Y177982D01*
X-103354Y180193D02*
X-103202Y179086D01*
X-103504Y181300D02*
X-103354Y180193D01*
X-103654Y182406D02*
X-103504Y181300D01*
X-103792Y183515D02*
X-103654Y182406D01*
X-103919Y184624D02*
X-103792Y183515D01*
X-104045Y185734D02*
X-103919Y184624D01*
X-104169Y186844D02*
X-104045Y185734D01*
X-104283Y187955D02*
X-104169Y186844D01*
X-104389Y189067D02*
X-104283Y187955D01*
X-104493Y190179D02*
X-104389Y189067D01*
X-104596Y191291D02*
X-104493Y190179D01*
X-104689Y192404D02*
X-104596Y191291D01*
X-104774Y193517D02*
X-104689Y192404D01*
X-104861Y194631D02*
X-104774Y193517D01*
X-104945Y195745D02*
X-104861Y194631D01*
X-105019Y196859D02*
X-104945Y195745D01*
X-105088Y197974D02*
X-105019Y196859D01*
X-105159Y199088D02*
X-105088Y197974D01*
X-105227Y200203D02*
X-105159Y199088D01*
X-105283Y201318D02*
X-105227Y200203D01*
X-105325Y202434D02*
X-105283Y201318D01*
X-105352Y203551D02*
X-105325Y202434D01*
X-105369Y204668D02*
X-105352Y203551D01*
X-105380Y205784D02*
X-105369Y204668D01*
X-105387Y206901D02*
X-105380Y205784D01*
X-105390Y208018D02*
X-105387Y206901D01*
X-105388Y209135D02*
X-105383Y210252D01*
X-105375Y211368D01*
X-105363Y212485D01*
X-105349Y213602D01*
X-105332Y214719D01*
X-105313Y215835D01*
X-105290Y216952D01*
X-105262Y218068D01*
X-105231Y219185D01*
X-105193Y220301D01*
X-105148Y221417D01*
X-105089Y222532D01*
X-105013Y223646D01*
X-104926Y224760D01*
X-104832Y225873D01*
X-104736Y226986D01*
X-104642Y228098D01*
X-104547Y229211D01*
X-104451Y230324D01*
X-104353Y231436D01*
X-104253Y232549D01*
X-104149Y233661D01*
X-104042Y234772D01*
X-103930Y235884D01*
X-103814Y236994D01*
X-103693Y238105D01*
X-103566Y239214D01*
X-103433Y240323D01*
X-103292Y241431D01*
X-103146Y242538D01*
X-102995Y243645D01*
X-102839Y244751D01*
X-102682Y245856D01*
X-102527Y246963D01*
X-102172Y249167D02*
X-101968Y250266D01*
X-101763Y251363D01*
X-101558Y252461D01*
X-101352Y253559D01*
X-101142Y254656D01*
X-100930Y255752D01*
X-100716Y256849D01*
X-100497Y257944D01*
X-100260Y259035D01*
X-100017Y260125D01*
X-99785Y261218D01*
X-99262Y263389D02*
X-99013Y264478D01*
X-98768Y265567D01*
X-98527Y266658D01*
X-98283Y267748D01*
X-98034Y268836D01*
X-97781Y269924D01*
X-97526Y271012D01*
X-97266Y272098D01*
X-97001Y273183D01*
X-96739Y274268D01*
X-96479Y275355D01*
X-96216Y276440D01*
X-95951Y277525D01*
X-95697Y278613D01*
X-95455Y279703D01*
X-95219Y280795D01*
X-94985Y281887D01*
X-94749Y282979D01*
X-94520Y284072D01*
X-94311Y285169D02*
X-94113Y286268D01*
X-93911Y287367D01*
X-93708Y288465D01*
X-93523Y289566D02*
X-93365Y290672D01*
X-93204Y291777D01*
X-93039Y292882D01*
X-92779Y295100D02*
X-92664Y296212D01*
X-92549Y297323D01*
X-92456Y298436D02*
X-92403Y299551D01*
X-92343Y300667D01*
X-92289Y304016D02*
X-92274Y302899D01*
X-92292Y305134D02*
X-92289Y304016D01*
X-92495Y308478D02*
X-92328Y306250D01*
X-92735Y310698D02*
X-92595Y309590D01*
X-92883Y311805D02*
X-92735Y310698D01*
X-93241Y314010D02*
X-93053Y312909D01*
X-93482Y315101D02*
X-93241Y314010D01*
X-94100Y317249D02*
X-93758Y316183D01*
X-104860Y328244D02*
X-104208Y327337D01*
X-107500Y333152D02*
X-107056Y332126D01*
X-108261Y335252D02*
X-107888Y334198D01*
X-109626Y342927D02*
X-109568Y341809D01*
X-107579Y353803D02*
X-107116Y354819D01*
X-105551Y357783D02*
X-104907Y358697D01*
X-101230Y362880D02*
X-100394Y363624D01*
X-93717Y367634D02*
X-92685Y368066D01*
X-88382Y369243D02*
X-87282Y369446D01*
X-86174Y369578D02*
X-85058Y369650D01*
X-82827Y369654D02*
X-81710Y369592D01*
X-75267Y367878D02*
X-74258Y367388D01*
X-70699Y364718D02*
X-69914Y363922D01*
X-64604Y360405D02*
X-63496Y360269D01*
X-62387Y360139D01*
X-61278Y360001D01*
X-60171Y359859D01*
X-59065Y359702D01*
X-57962Y359527D02*
X-56862Y359332D01*
X-55765Y359123D01*
X-54669Y358909D01*
X-53573Y358692D01*
X-52480Y358464D01*
X-51391Y358216D01*
X-50302Y357967D01*
X-49220Y357692D02*
X-48140Y357405D01*
X-47062Y357115D01*
X-45987Y356812D01*
X-44915Y356499D01*
X-43844Y356181D01*
X-42776Y355855D01*
X-41712Y355515D01*
X-40653Y355160D01*
X-39598Y354794D01*
X-38545Y354424D01*
X-37491Y354054D01*
X-36439Y353680D01*
X-35389Y353297D01*
X-34341Y352912D01*
X-33296Y352519D02*
X-32255Y352113D01*
X-30206Y351228D02*
X-29172Y350806D01*
X-28143Y350373D02*
X-27121Y349922D01*
X-26098Y349475D01*
X-25076Y349025D01*
X-24055Y348570D01*
X-23045Y348095D02*
X-22046Y347595D01*
X-21047Y347095D01*
X-20049Y346595D01*
X-19049Y346096D01*
X-18050Y345597D01*
X-17051Y345099D01*
X-16052Y344600D01*
X-15053Y344101D01*
X-14054Y343601D01*
X-13056Y343100D01*
X-12058Y342598D01*
X-11061Y342095D01*
X-10065Y341589D01*
X-9072Y341077D01*
X-8086Y340555D01*
X-7102Y340026D01*
X-6116Y339500D01*
X-5128Y338980D01*
X-4138Y338463D01*
X-2155Y337435D01*
X-1163Y336923D01*
X-170Y336412D01*
X824Y335902D01*
X1819Y335395D01*
X2815Y334889D01*
X3811Y334384D01*
X9815Y331409D01*
X11826Y330436D01*
X12833Y329953D01*
X13841Y329472D01*
X14851Y328995D01*
X15862Y328521D01*
X16875Y328051D01*
X17890Y327585D01*
X18908Y327125D01*
X19928Y326672D01*
X20953Y326226D01*
X21982Y325793D01*
X24068Y324996D02*
X25118Y324613D01*
X27225Y323871D02*
X28277Y323491D01*
X30424Y322884D02*
X31507Y322604D01*
X34793Y321957D02*
X35896Y321771D01*
X45918Y321657D02*
X47018Y321852D01*
X50510Y328370D02*
X51494Y328899D01*
X53432Y330007D02*
X54426Y330518D01*
X55424Y331019D02*
X56429Y331505D01*
X58463Y332427D02*
X59503Y332835D01*
X61627Y333518D02*
X62710Y333791D01*
X63795Y334054D01*
X64883Y334305D02*
X65975Y334538D01*
X69304Y334898D02*
X70421Y334903D01*
X77061Y334070D02*
X78143Y333792D01*
X79229Y333523D01*
X82418Y332501D02*
X83475Y332134D01*
X88561Y329835D02*
X89524Y329268D01*
X90497Y328715D01*
X92387Y327527D02*
X93278Y326853D01*
X94181Y326193D01*
X99088Y321642D02*
X99858Y320830D01*
X100593Y319990D02*
X101284Y319112D01*
X101988Y318244D01*
X102650Y317346D02*
X103279Y316422D01*
X105014Y313557D02*
X105554Y312578D01*
X106496Y310555D02*
X106946Y309530D01*
X107708Y307433D02*
X108065Y306373D01*
X109508Y299838D02*
X109600Y298725D01*
X109668Y295376D02*
X109679Y296493D01*
X109564Y293145D02*
X109644Y294259D01*
X109500Y292028D02*
X109564Y293145D01*
X108970Y287592D02*
X109119Y288701D01*
X107198Y281141D02*
X107519Y282211D01*
X106884Y280069D02*
X107198Y281141D01*
X106572Y278996D02*
X106884Y280069D01*
X106259Y277924D02*
X106572Y278996D01*
X105945Y276852D02*
X106259Y277924D01*
X105628Y275781D02*
X105945Y276852D01*
X105308Y274711D02*
X105628Y275781D01*
X104985Y273642D02*
X105308Y274711D01*
X104657Y272574D02*
X104985Y273642D01*
X104323Y271509D02*
X104657Y272574D01*
X103984Y270445D02*
X104323Y271509D01*
X103640Y269382D02*
X103984Y270445D01*
X103295Y268320D02*
X103640Y269382D01*
X102951Y267258D02*
X103295Y268320D01*
X102611Y266194D02*
X102951Y267258D01*
X102272Y265129D02*
X102611Y266194D01*
X101928Y264067D02*
X102272Y265129D01*
X101574Y263007D02*
X101928Y264067D01*
X101207Y261953D02*
X101574Y263007D01*
X100830Y260901D02*
X101207Y261953D01*
X100454Y259850D02*
X100830Y260901D01*
X100078Y258798D02*
X100454Y259850D01*
X99702Y257747D02*
X100078Y258798D01*
X99322Y256696D02*
X99702Y257747D01*
X98546Y254602D02*
X99322Y256696D01*
M02*
