G04*
G04 #@! TF.GenerationSoftware,Altium Limited,Altium Designer,25.8.1 (18)*
G04*
G04 Layer_Physical_Order=2*
G04 Layer_Color=16711680*
%FSLAX25Y25*%
%MOIN*%
G70*
G04*
G04 #@! TF.SameCoordinates,68BE08DE-760B-43C3-A528-A1801879DF6B*
G04*
G04*
G04 #@! TF.FilePolarity,Positive*
G04*
G01*
G75*
%ADD12R,0.03937X0.03150*%
%ADD19C,0.00800*%
%ADD20C,0.01100*%
%ADD21C,0.00700*%
%ADD22C,0.01968*%
%ADD23C,0.00500*%
%ADD24C,0.01000*%
%ADD26C,0.02362*%
%ADD27O,0.03543X0.07874*%
%ADD28O,0.03543X0.06693*%
%ADD29C,0.05000*%
%ADD30C,0.02756*%
%ADD31C,0.24016*%
G04:AMPARAMS|DCode=32|XSize=35.43mil|YSize=49.21mil|CornerRadius=0mil|HoleSize=0mil|Usage=FLASHONLY|Rotation=107.800|XOffset=0mil|YOffset=0mil|HoleType=Round|Shape=Rectangle|*
%AMROTATEDRECTD32*
4,1,4,0.02884,-0.00935,-0.01801,-0.02439,-0.02884,0.00935,0.01801,0.02439,0.02884,-0.00935,0.0*
%
%ADD32ROTATEDRECTD32*%

G04:AMPARAMS|DCode=33|XSize=31.5mil|YSize=35.43mil|CornerRadius=0mil|HoleSize=0mil|Usage=FLASHONLY|Rotation=107.800|XOffset=0mil|YOffset=0mil|HoleType=Round|Shape=Rectangle|*
%AMROTATEDRECTD33*
4,1,4,0.02168,-0.00958,-0.01205,-0.02041,-0.02168,0.00958,0.01205,0.02041,0.02168,-0.00958,0.0*
%
%ADD33ROTATEDRECTD33*%

%ADD34R,0.05512X0.11024*%
%ADD35R,0.16535X0.11811*%
%ADD36O,0.01181X0.05118*%
%ADD37R,0.03740X0.03740*%
G04:AMPARAMS|DCode=38|XSize=94.49mil|YSize=94.49mil|CornerRadius=23.62mil|HoleSize=0mil|Usage=FLASHONLY|Rotation=0.000|XOffset=0mil|YOffset=0mil|HoleType=Round|Shape=RoundedRectangle|*
%AMROUNDEDRECTD38*
21,1,0.09449,0.04724,0,0,0.0*
21,1,0.04724,0.09449,0,0,0.0*
1,1,0.04724,0.02362,-0.02362*
1,1,0.04724,-0.02362,-0.02362*
1,1,0.04724,-0.02362,0.02362*
1,1,0.04724,0.02362,0.02362*
%
%ADD38ROUNDEDRECTD38*%
%ADD39R,0.09449X0.09449*%
%ADD40O,0.05118X0.01181*%
G04:AMPARAMS|DCode=41|XSize=39.37mil|YSize=41.34mil|CornerRadius=0mil|HoleSize=0mil|Usage=FLASHONLY|Rotation=135.000|XOffset=0mil|YOffset=0mil|HoleType=Round|Shape=Rectangle|*
%AMROTATEDRECTD41*
4,1,4,0.02854,0.00070,-0.00070,-0.02854,-0.02854,-0.00070,0.00070,0.02854,0.02854,0.00070,0.0*
%
%ADD41ROTATEDRECTD41*%

G04:AMPARAMS|DCode=42|XSize=67.21mil|YSize=24.25mil|CornerRadius=12.12mil|HoleSize=0mil|Usage=FLASHONLY|Rotation=90.000|XOffset=0mil|YOffset=0mil|HoleType=Round|Shape=RoundedRectangle|*
%AMROUNDEDRECTD42*
21,1,0.06721,0.00000,0,0,90.0*
21,1,0.04296,0.02425,0,0,90.0*
1,1,0.02425,0.00000,0.02148*
1,1,0.02425,0.00000,-0.02148*
1,1,0.02425,0.00000,-0.02148*
1,1,0.02425,0.00000,0.02148*
%
%ADD42ROUNDEDRECTD42*%
%ADD43R,0.02425X0.06721*%
%ADD44R,0.02197X0.03828*%
%ADD45R,0.03150X0.03937*%
%ADD46R,0.02362X0.04488*%
%ADD47R,0.01181X0.04488*%
%ADD48R,0.03937X0.04134*%
%ADD49R,0.03150X0.02362*%
%ADD50R,0.04134X0.03937*%
G04:AMPARAMS|DCode=51|XSize=59.06mil|YSize=78.74mil|CornerRadius=0mil|HoleSize=0mil|Usage=FLASHONLY|Rotation=165.000|XOffset=0mil|YOffset=0mil|HoleType=Round|Shape=Round|*
%AMOVALD51*
21,1,0.01968,0.05906,0.00000,0.00000,255.0*
1,1,0.05906,0.00255,0.00951*
1,1,0.05906,-0.00255,-0.00951*
%
%ADD51OVALD51*%

G04:AMPARAMS|DCode=52|XSize=59.06mil|YSize=78.74mil|CornerRadius=14.76mil|HoleSize=0mil|Usage=FLASHONLY|Rotation=165.000|XOffset=0mil|YOffset=0mil|HoleType=Round|Shape=RoundedRectangle|*
%AMROUNDEDRECTD52*
21,1,0.05906,0.04921,0,0,165.0*
21,1,0.02953,0.07874,0,0,165.0*
1,1,0.02953,-0.00789,0.02759*
1,1,0.02953,0.02063,0.01995*
1,1,0.02953,0.00789,-0.02759*
1,1,0.02953,-0.02063,-0.01995*
%
%ADD52ROUNDEDRECTD52*%
%ADD53R,0.02362X0.02756*%
%ADD54C,0.01575*%
%ADD55C,0.00600*%
%ADD56C,0.01200*%
%ADD57C,0.03937*%
G36*
X-83826Y368687D02*
X-83564Y368678D01*
X-83302Y368666D01*
X-83040Y368649D01*
X-82909Y368638D01*
X-82896Y368640D01*
X-82883Y368636D01*
X-81769Y368575D01*
X-81644Y368567D01*
X-81396Y368546D01*
X-81149Y368517D01*
X-80902Y368481D01*
X-80794Y368462D01*
X-80671Y368436D01*
X-80665Y368436D01*
X-80660Y368434D01*
X-80386Y368380D01*
X-80378Y368380D01*
X-80371Y368378D01*
X-80095Y368328D01*
X-80088Y368328D01*
X-80081Y368326D01*
X-79805Y368280D01*
X-79799Y368280D01*
X-79794Y368278D01*
X-79655Y368257D01*
X-79652Y368257D01*
X-79649Y368256D01*
X-79526Y368238D01*
X-79281Y368194D01*
X-79038Y368143D01*
X-78796Y368085D01*
X-78694Y368057D01*
X-78582Y368021D01*
X-78323Y367939D01*
X-78061Y367853D01*
X-77804Y367767D01*
X-77674Y367723D01*
X-77655Y367720D01*
X-77638Y367711D01*
X-77508Y367672D01*
X-77251Y367592D01*
X-76993Y367510D01*
X-76737Y367425D01*
X-76625Y367386D01*
X-76528Y367349D01*
X-76303Y367255D01*
X-76082Y367153D01*
X-75865Y367043D01*
X-75758Y366984D01*
X-75733Y366976D01*
X-75712Y366960D01*
X-74703Y366471D01*
X-74696Y366469D01*
X-74691Y366465D01*
X-74586Y366416D01*
X-74383Y366308D01*
X-74184Y366191D01*
X-73992Y366065D01*
X-73904Y366001D01*
X-73796Y365920D01*
X-73791Y365918D01*
X-73788Y365914D01*
X-73562Y365749D01*
X-73555Y365746D01*
X-73550Y365741D01*
X-73321Y365579D01*
X-73315Y365576D01*
X-73310Y365571D01*
X-73079Y365412D01*
X-73074Y365410D01*
X-73070Y365406D01*
X-72954Y365328D01*
X-72950Y365326D01*
X-72947Y365323D01*
X-72842Y365254D01*
X-72636Y365109D01*
X-72433Y364959D01*
X-72235Y364803D01*
X-72159Y364740D01*
X-72084Y364671D01*
X-71898Y364492D01*
X-71716Y364310D01*
X-71537Y364123D01*
X-71450Y364028D01*
X-71435Y364017D01*
X-71425Y364002D01*
X-70642Y363209D01*
X-70558Y363122D01*
X-70388Y362938D01*
X-70224Y362748D01*
X-70065Y362554D01*
X-69989Y362457D01*
X-69906Y362348D01*
X-69903Y362346D01*
X-69902Y362343D01*
X-69736Y362130D01*
Y275984D01*
Y270657D01*
X-68629D01*
Y269657D01*
X-69736D01*
Y263252D01*
X-68525D01*
X-68491Y261006D01*
X-67025Y163943D01*
X-67008Y162875D01*
X-67289Y162591D01*
X-69437D01*
Y149378D01*
X-67445D01*
X-67362Y149369D01*
X-67358Y149368D01*
X-67355Y149366D01*
X-67333Y149342D01*
X-67292Y149275D01*
X-67242Y149153D01*
X-67194Y148974D01*
X-67155Y148741D01*
X-67139Y148563D01*
Y145386D01*
X-67181Y145177D01*
Y138795D01*
X-69579D01*
Y137688D01*
X-70579D01*
Y138795D01*
X-73835D01*
Y132783D01*
X-72727D01*
Y131783D01*
X-73835D01*
Y125772D01*
X-70579D01*
Y126879D01*
X-69579D01*
Y125772D01*
X-67181D01*
Y124027D01*
X-67050Y123369D01*
X-66678Y122812D01*
X-66399Y122533D01*
X-66352Y119461D01*
X-69249Y118531D01*
X-68615Y116556D01*
X-67560Y116894D01*
X-67255Y115942D01*
X-68309Y115604D01*
X-67675Y113628D01*
X-66591Y113976D01*
X-66266Y113743D01*
X-66208Y109914D01*
X-66237Y109862D01*
X-66604Y109622D01*
X-66785Y109674D01*
X-67488Y109731D01*
X-67883Y109686D01*
X-68554Y109471D01*
X-68902Y109277D01*
X-69439Y108822D01*
X-69687Y108510D01*
X-69687Y108510D01*
X-70009Y107883D01*
X-70118Y107501D01*
X-70176Y106798D01*
X-70131Y106403D01*
X-70130Y106403D01*
X-69915Y105732D01*
X-69722Y105384D01*
X-69266Y104847D01*
X-68954Y104599D01*
X-68954Y104599D01*
X-68328Y104277D01*
X-67945Y104168D01*
X-67243Y104110D01*
X-66847Y104155D01*
X-66176Y104371D01*
X-65829Y104564D01*
X-65291Y105020D01*
X-65044Y105331D01*
X-65044Y105331D01*
X-64951Y105512D01*
X-63222D01*
X-63094Y105133D01*
X-69797Y100063D01*
X-70190Y99621D01*
X-70384Y99062D01*
Y99062D01*
X-71355Y92064D01*
X-71342Y91850D01*
X-71353Y91636D01*
X-68032Y68977D01*
X-69874Y55696D01*
X-79911Y45659D01*
X-80240Y45167D01*
X-80355Y44587D01*
X-80355Y44587D01*
Y23721D01*
X-80355Y23720D01*
X-80240Y23140D01*
X-79911Y22648D01*
X-76114Y18851D01*
X-76056Y18813D01*
X-76013Y18759D01*
X-75812Y18650D01*
X-75622Y18523D01*
X-75554Y18509D01*
X-75493Y18476D01*
X-38301Y6889D01*
X-38151Y6874D01*
X-38006Y6829D01*
X-36692Y6693D01*
X-36651Y6696D01*
X-36612Y6686D01*
X-36358Y6724D01*
X-36103Y6747D01*
X-36067Y6766D01*
X-36026Y6772D01*
X-35806Y6904D01*
X-35579Y7024D01*
X-35553Y7055D01*
X-35519Y7076D01*
X-35365Y7282D01*
X-35201Y7479D01*
X-35189Y7518D01*
X-35165Y7550D01*
X-33317Y11442D01*
X-33247Y11561D01*
X-33140Y11716D01*
X-33045Y11830D01*
X-32966Y11906D01*
X-32912Y11945D01*
X-32292Y11779D01*
X-31428Y11722D01*
X-30608Y12001D01*
X-29956Y12572D01*
X-29573Y13349D01*
X-29135Y14985D01*
X-29108Y15005D01*
X-29034Y15044D01*
X-28921Y15085D01*
X-28770Y15123D01*
X-28579Y15154D01*
X-28440Y15166D01*
X-21691D01*
X-21611Y14766D01*
X-21949Y14626D01*
X-22128Y14489D01*
X-21324Y13684D01*
X-22031Y12977D01*
X-22835Y13781D01*
X-22972Y13602D01*
X-23252Y12928D01*
X-23347Y12205D01*
Y11130D01*
X-22215D01*
Y10130D01*
X-23347D01*
Y9055D01*
X-23252Y8332D01*
X-22972Y7657D01*
X-22835Y7479D01*
X-22031Y8283D01*
X-21324Y7576D01*
X-22128Y6771D01*
X-21949Y6634D01*
X-21275Y6355D01*
X-20551Y6260D01*
X-19828Y6355D01*
X-19153Y6634D01*
X-18974Y6771D01*
X-19779Y7576D01*
X-19072Y8283D01*
X-18267Y7479D01*
X-18130Y7657D01*
X-17851Y8332D01*
X-17756Y9055D01*
Y10130D01*
X-18887D01*
Y11130D01*
X-17756D01*
Y12205D01*
X-17851Y12928D01*
X-18130Y13602D01*
X-18267Y13781D01*
X-19072Y12977D01*
X-19779Y13684D01*
X-18974Y14489D01*
X-19153Y14626D01*
X-19491Y14766D01*
X-19411Y15166D01*
X12364D01*
X12444Y14766D01*
X12106Y14626D01*
X11927Y14489D01*
X12732Y13684D01*
X12025Y12977D01*
X11220Y13781D01*
X11083Y13602D01*
X10804Y12928D01*
X10708Y12205D01*
Y11130D01*
X11840D01*
Y10130D01*
X10708D01*
Y9055D01*
X10804Y8332D01*
X11083Y7657D01*
X11220Y7479D01*
X12025Y8283D01*
X12732Y7576D01*
X11927Y6771D01*
X12106Y6634D01*
X12780Y6355D01*
X13504Y6260D01*
X14228Y6355D01*
X14902Y6634D01*
X15081Y6771D01*
X14276Y7576D01*
X14983Y8283D01*
X15788Y7479D01*
X15925Y7657D01*
X16204Y8332D01*
X16299Y9055D01*
Y10130D01*
X15168D01*
Y11130D01*
X16299D01*
Y12205D01*
X16204Y12928D01*
X15925Y13602D01*
X15788Y13781D01*
X14983Y12977D01*
X14276Y13684D01*
X15081Y14489D01*
X14902Y14626D01*
X14564Y14766D01*
X14644Y15166D01*
X23241D01*
X26394Y12012D01*
X26497Y11892D01*
X26636Y11706D01*
X26754Y11525D01*
X26849Y11350D01*
X26926Y11182D01*
X26982Y11019D01*
X27022Y10862D01*
X27045Y10708D01*
X27054Y10520D01*
X27055Y10517D01*
Y8059D01*
X32418Y8059D01*
X32662Y7760D01*
X32834Y7760D01*
X35228D01*
Y8867D01*
X36228D01*
Y7760D01*
X38795D01*
Y10228D01*
X37688D01*
Y11228D01*
X38795D01*
Y13697D01*
X36228D01*
Y12589D01*
X35228D01*
Y13697D01*
X32662D01*
X32418Y13398D01*
X31451Y13398D01*
X31449Y13398D01*
X31447Y13402D01*
X31414Y13481D01*
X31380Y13608D01*
X31351Y13783D01*
X31339Y13915D01*
Y18527D01*
X31351Y18659D01*
X31380Y18834D01*
X31414Y18961D01*
X31447Y19040D01*
X31449Y19044D01*
X31451Y19045D01*
X37315D01*
Y29895D01*
X33518D01*
X33516Y29895D01*
X33513Y29900D01*
X33481Y29978D01*
X33447Y30106D01*
X33417Y30281D01*
X33406Y30413D01*
Y30906D01*
X33290Y31486D01*
X32962Y31978D01*
X32962Y31978D01*
X23218Y41722D01*
X22726Y42051D01*
X22146Y42166D01*
X22146Y42166D01*
X18670D01*
X18582Y42172D01*
X18392Y42195D01*
X18247Y42224D01*
X18221Y42232D01*
Y42728D01*
X17516D01*
X17508Y42730D01*
X17499Y42728D01*
X14457D01*
Y38571D01*
X17499D01*
X17508Y38569D01*
X17516Y38571D01*
X18221D01*
Y39067D01*
X18247Y39075D01*
X18382Y39102D01*
X18720Y39133D01*
X21518D01*
X30362Y30289D01*
X30361Y30281D01*
X30332Y30106D01*
X30298Y29978D01*
X30265Y29900D01*
X30263Y29895D01*
X30261Y29895D01*
X26464D01*
Y19045D01*
X28194D01*
X28196Y19044D01*
X28199Y19040D01*
X28231Y18961D01*
X28266Y18834D01*
X28295Y18659D01*
X28306Y18527D01*
Y14912D01*
X27937Y14759D01*
X24941Y17754D01*
X24449Y18083D01*
X23869Y18199D01*
X23869Y18199D01*
X-27898D01*
X-28144Y18388D01*
X-28150Y18816D01*
X-27846Y19066D01*
X-27775Y19052D01*
X-12795D01*
X-12327Y19145D01*
X-11930Y19410D01*
X-9729Y21611D01*
X3909D01*
X4378Y21704D01*
X4775Y21970D01*
X6022Y23217D01*
X6107Y23344D01*
X6505Y23383D01*
X6619Y23269D01*
X7421Y22937D01*
X8288D01*
X9024Y23242D01*
X8181Y24084D01*
X8889Y24791D01*
X9731Y23949D01*
X10035Y24684D01*
Y25552D01*
X9952Y25754D01*
X10174Y26087D01*
X10708D01*
Y24882D01*
X10804Y24158D01*
X11083Y23484D01*
X11220Y23305D01*
X12025Y24110D01*
X12732Y23403D01*
X11927Y22598D01*
X12106Y22461D01*
X12780Y22182D01*
X13504Y22086D01*
X14228Y22182D01*
X14902Y22461D01*
X15081Y22598D01*
X14276Y23403D01*
X14983Y24110D01*
X15788Y23305D01*
X15925Y23484D01*
X16204Y24158D01*
X16299Y24882D01*
Y26547D01*
X15168D01*
Y27547D01*
X16299D01*
Y29213D01*
X16204Y29936D01*
X15925Y30610D01*
X15481Y31189D01*
X15273Y31349D01*
X15408Y31749D01*
X18113D01*
X18179Y31743D01*
X18197Y31740D01*
Y30697D01*
X23535D01*
Y35248D01*
X18197D01*
Y34205D01*
X18179Y34202D01*
X18113Y34196D01*
X1926D01*
X1458Y34103D01*
X1061Y33838D01*
X1035Y33798D01*
X532Y33296D01*
X353Y33026D01*
X-40Y32934D01*
X-132Y32945D01*
X-698Y33511D01*
X-1045Y33743D01*
X-1455Y33825D01*
X-3029D01*
X-6691Y37487D01*
X-6538Y37857D01*
X-2903D01*
X-2494Y37938D01*
X-2146Y38170D01*
X-1447Y38870D01*
X-1411Y38900D01*
X-1348Y38947D01*
X-1292Y38984D01*
X-1241Y39012D01*
X-1196Y39032D01*
X-1157Y39046D01*
X-1123Y39055D01*
X-1093Y39059D01*
X-1029Y39062D01*
X-1026Y39063D01*
X2177D01*
Y43614D01*
X-3161D01*
Y40411D01*
X-3162Y40408D01*
X-3165Y40344D01*
X-3170Y40314D01*
X-3178Y40280D01*
X-3192Y40241D01*
X-3212Y40196D01*
X-3240Y40145D01*
X-3277Y40089D01*
X-3324Y40026D01*
X-3348Y39998D01*
X-7846D01*
Y41542D01*
X-8575D01*
Y47041D01*
X-7846D01*
Y50790D01*
X-7477Y50943D01*
X-3908Y47374D01*
X-3560Y47142D01*
X-3161Y47063D01*
Y44969D01*
X2177D01*
Y49520D01*
X-2440D01*
X-2449Y49521D01*
X-2457Y49520D01*
X-3025D01*
X-6148Y52642D01*
X-5921Y52981D01*
X-5824Y52941D01*
X-4997D01*
X-4233Y53257D01*
X-3648Y53842D01*
X-3331Y54606D01*
Y54772D01*
X-3315Y54876D01*
X-3291Y54992D01*
X-3263Y55094D01*
X-3232Y55183D01*
X-3200Y55257D01*
X-3167Y55319D01*
X-3135Y55369D01*
X-3104Y55409D01*
X-3087Y55426D01*
X-1227Y56824D01*
X-1176Y56880D01*
X-1113Y56923D01*
X-1061Y57000D01*
X-905Y57046D01*
X-645Y57046D01*
X-564Y57022D01*
X2431Y54028D01*
X2431Y54028D01*
X2493Y53965D01*
X2449Y53858D01*
Y53031D01*
X2765Y52267D01*
X3350Y51683D01*
X4114Y51366D01*
X4941D01*
X5705Y51683D01*
X6290Y52267D01*
X6606Y53031D01*
Y53197D01*
X6976Y53350D01*
X11699Y48628D01*
X11715Y48606D01*
X11745Y48559D01*
X11836Y48384D01*
X11869Y48306D01*
X11996Y47912D01*
Y47815D01*
X12313Y47051D01*
X12872Y46492D01*
X12892Y46386D01*
X12867Y46046D01*
X12550Y45834D01*
X9962Y43245D01*
X9696Y42848D01*
X9673Y42728D01*
X8945D01*
Y38571D01*
X12709D01*
Y42531D01*
X13922Y43745D01*
X30213D01*
X30666Y43292D01*
Y41454D01*
X30759Y40986D01*
X31024Y40589D01*
X39308Y32305D01*
X39705Y32040D01*
X40173Y31947D01*
X63567D01*
X67442Y28072D01*
X67839Y27807D01*
X68307Y27714D01*
X73527D01*
X73593Y27708D01*
X73610Y27705D01*
Y26268D01*
X78161D01*
Y31606D01*
X73610D01*
Y30169D01*
X73593Y30166D01*
X73527Y30160D01*
X68814D01*
X64939Y34036D01*
X64542Y34301D01*
X64074Y34394D01*
X40680D01*
X33113Y41961D01*
Y46971D01*
X34251D01*
X35051Y47076D01*
X35796Y47385D01*
X35907Y47470D01*
X36307Y47273D01*
Y46929D01*
X36624Y46165D01*
X37208Y45580D01*
X37972Y45264D01*
X38799D01*
X39563Y45580D01*
X40148Y46165D01*
X40465Y46929D01*
Y47756D01*
X40148Y48520D01*
X39899Y48769D01*
X39865Y48823D01*
X39772Y48918D01*
X39706Y48996D01*
X39650Y49071D01*
X39606Y49141D01*
X39570Y49206D01*
X39544Y49267D01*
X39524Y49325D01*
X39511Y49380D01*
X39507Y49407D01*
Y63237D01*
X39525Y63324D01*
Y64942D01*
X41171D01*
Y64780D01*
X42550D01*
Y63929D01*
X42527D01*
X42705Y63032D01*
X43207Y62280D01*
X43227Y62291D01*
X47303Y58215D01*
Y46672D01*
X47303Y46672D01*
X47388Y46243D01*
X47631Y45879D01*
X55425Y38085D01*
X55425Y38085D01*
X55789Y37842D01*
X56218Y37756D01*
X56218Y37756D01*
X71307D01*
Y36996D01*
X75858D01*
Y40760D01*
X71307D01*
Y39999D01*
X56683D01*
X49546Y47137D01*
Y58680D01*
X49460Y59109D01*
X49217Y59473D01*
X49217Y59473D01*
X45099Y63591D01*
X45063Y63631D01*
X44818Y63929D01*
X44793Y63954D01*
Y64780D01*
X46510D01*
Y64942D01*
X58226D01*
Y72923D01*
X59569Y74124D01*
X60027Y73997D01*
X60031Y73984D01*
X60032Y73980D01*
X60033Y73976D01*
X60118Y73710D01*
X60119Y73707D01*
X60120Y73703D01*
X60207Y73437D01*
X60208Y73435D01*
X60208Y73432D01*
X60253Y73299D01*
X60255Y73296D01*
X60255Y73292D01*
X60615Y72238D01*
X60967Y71182D01*
X60968Y71179D01*
X60969Y71175D01*
X61014Y71043D01*
X61016Y71039D01*
X61017Y71033D01*
X61110Y70770D01*
X61113Y70764D01*
X61115Y70757D01*
X61211Y70495D01*
X61214Y70488D01*
X61216Y70481D01*
X61315Y70221D01*
X61318Y70216D01*
X61319Y70211D01*
X61371Y70081D01*
X61376Y70073D01*
X61378Y70063D01*
X61805Y69038D01*
X62219Y68006D01*
X62220Y68006D01*
X62220Y68005D01*
X62273Y67875D01*
X62275Y67870D01*
X62277Y67865D01*
X62384Y67607D01*
X62388Y67601D01*
X62389Y67594D01*
X62500Y67338D01*
X62505Y67332D01*
X62506Y67325D01*
X62621Y67071D01*
X62624Y67066D01*
X62625Y67061D01*
X62684Y66934D01*
X62691Y66924D01*
X62694Y66912D01*
X62756Y66786D01*
X62758Y66783D01*
X62759Y66780D01*
X62884Y66530D01*
X62887Y66527D01*
X62888Y66522D01*
X63016Y66274D01*
X63019Y66270D01*
X63020Y66265D01*
X63150Y66018D01*
X63152Y66015D01*
X63153Y66012D01*
X63213Y65900D01*
X63708Y64912D01*
X63709Y64910D01*
X63710Y64908D01*
X63773Y64784D01*
X63778Y64778D01*
X63780Y64770D01*
X63909Y64523D01*
X63916Y64515D01*
X63919Y64505D01*
X64053Y64261D01*
X64060Y64253D01*
X64063Y64243D01*
X64202Y64002D01*
X64208Y63996D01*
X64210Y63989D01*
X64282Y63869D01*
X64288Y63862D01*
X64291Y63853D01*
X64880Y62904D01*
X64889Y62894D01*
X64894Y62881D01*
X64970Y62765D01*
X64976Y62759D01*
X64979Y62752D01*
X65136Y62521D01*
X65143Y62514D01*
X65147Y62504D01*
X65308Y62277D01*
X65316Y62269D01*
X65320Y62260D01*
X65486Y62035D01*
X65492Y62030D01*
X65495Y62023D01*
X65575Y61919D01*
X65652Y61813D01*
X65654Y61811D01*
X65656Y61809D01*
X65822Y61585D01*
X65825Y61582D01*
X65827Y61578D01*
X65996Y61356D01*
X65999Y61353D01*
X66000Y61349D01*
X66171Y61128D01*
X66173Y61126D01*
X66174Y61123D01*
X66260Y61013D01*
X66264Y61010D01*
X66266Y61005D01*
X66961Y60130D01*
X66971Y60122D01*
X66978Y60110D01*
X67067Y60002D01*
X67072Y59999D01*
X67076Y59993D01*
X67258Y59781D01*
X67264Y59776D01*
X67269Y59769D01*
X67454Y59560D01*
X67461Y59555D01*
X67465Y59548D01*
X67654Y59342D01*
X67659Y59338D01*
X67663Y59333D01*
X67757Y59232D01*
X67853Y59131D01*
X67854Y59130D01*
X67855Y59128D01*
X68047Y58925D01*
X68049Y58924D01*
X68050Y58922D01*
X68242Y58720D01*
X68244Y58718D01*
X68246Y58716D01*
X68439Y58515D01*
X68440Y58514D01*
X68441Y58513D01*
X68538Y58412D01*
X68539Y58412D01*
X68539Y58412D01*
X69317Y57610D01*
X69323Y57606D01*
X69327Y57600D01*
X70116Y56809D01*
X70116Y56809D01*
X70116Y56809D01*
X70215Y56710D01*
X70220Y56706D01*
X70224Y56701D01*
X70424Y56506D01*
X70431Y56501D01*
X70436Y56494D01*
X70639Y56302D01*
X70646Y56298D01*
X70651Y56291D01*
X70857Y56102D01*
X70863Y56099D01*
X70867Y56094D01*
X70959Y56011D01*
X71049Y55926D01*
X71057Y55921D01*
X71063Y55913D01*
X71269Y55725D01*
X71280Y55718D01*
X71288Y55708D01*
X71499Y55525D01*
X71510Y55518D01*
X71519Y55508D01*
X71734Y55331D01*
X71743Y55326D01*
X71749Y55319D01*
X71858Y55232D01*
X71875Y55223D01*
X71888Y55209D01*
X72000Y55127D01*
X72004Y55125D01*
X72007Y55122D01*
X72233Y54958D01*
X72238Y54956D01*
X72242Y54952D01*
X72470Y54791D01*
X72475Y54788D01*
X72479Y54784D01*
X72708Y54625D01*
X72712Y54624D01*
X72715Y54621D01*
X72818Y54551D01*
X72919Y54477D01*
X72924Y54475D01*
X72928Y54471D01*
X73156Y54310D01*
X73162Y54307D01*
X73167Y54302D01*
X73397Y54144D01*
X73404Y54141D01*
X73409Y54136D01*
X73641Y53981D01*
X73646Y53979D01*
X73650Y53975D01*
X73764Y53901D01*
X73877Y53826D01*
X73884Y53823D01*
X73890Y53817D01*
X74125Y53666D01*
X74136Y53662D01*
X74143Y53655D01*
X74382Y53509D01*
X74392Y53505D01*
X74400Y53498D01*
X74641Y53357D01*
X74649Y53355D01*
X74655Y53349D01*
X74765Y53288D01*
X74874Y53223D01*
X74877Y53222D01*
X74879Y53219D01*
X75120Y53077D01*
X75124Y53076D01*
X75127Y53073D01*
X75370Y52933D01*
X75374Y52932D01*
X75377Y52929D01*
X75620Y52791D01*
X75623Y52790D01*
X75626Y52788D01*
X75748Y52719D01*
X75772Y52712D01*
X75791Y52697D01*
X75916Y52634D01*
X75928Y52631D01*
X75938Y52624D01*
X76191Y52506D01*
X76206Y52502D01*
X76219Y52493D01*
X76476Y52382D01*
X76491Y52379D01*
X76505Y52370D01*
X76765Y52267D01*
X76776Y52265D01*
X76787Y52259D01*
X76889Y52221D01*
X76990Y52178D01*
X76998Y52176D01*
X77005Y52171D01*
X77263Y52063D01*
X77275Y52061D01*
X77284Y52055D01*
X77545Y51953D01*
X77556Y51951D01*
X77566Y51945D01*
X77829Y51849D01*
X77837Y51847D01*
X77845Y51843D01*
X77977Y51797D01*
X77986Y51796D01*
X77995Y51791D01*
X78127Y51748D01*
X78133Y51747D01*
X78139Y51744D01*
X78405Y51661D01*
X78414Y51660D01*
X78421Y51656D01*
X78689Y51577D01*
X78697Y51577D01*
X78704Y51573D01*
X78973Y51498D01*
X78980Y51498D01*
X78985Y51495D01*
X79119Y51459D01*
X80197Y51171D01*
X80216Y51170D01*
X80234Y51162D01*
X80370Y51131D01*
X80376Y51131D01*
X80383Y51128D01*
X80656Y51069D01*
X80665Y51069D01*
X80673Y51066D01*
X80947Y51012D01*
X80956Y51012D01*
X80964Y51009D01*
X81239Y50960D01*
X81246Y50960D01*
X81252Y50957D01*
X81379Y50936D01*
X82468Y50734D01*
X82469Y50734D01*
X82470Y50734D01*
X82607Y50709D01*
X82610Y50709D01*
X82612Y50708D01*
X82887Y50658D01*
X82891Y50659D01*
X82894Y50657D01*
X83170Y50610D01*
X83174Y50610D01*
X83177Y50609D01*
X83452Y50564D01*
X83455Y50564D01*
X83458Y50563D01*
X83596Y50541D01*
X83611Y50542D01*
X83626Y50537D01*
X83759Y50520D01*
X84023Y50483D01*
X84287Y50443D01*
X84550Y50400D01*
X84682Y50377D01*
X84715Y50377D01*
X84746Y50367D01*
X84852Y50356D01*
X85062Y50318D01*
X85269Y50267D01*
X85472Y50203D01*
X85571Y50164D01*
X85589Y50161D01*
X85603Y50152D01*
X85659Y50133D01*
X85761Y50077D01*
X85854Y50006D01*
X85934Y49921D01*
X85966Y49872D01*
X85968Y49870D01*
X85969Y49868D01*
X86036Y49769D01*
X86162Y49568D01*
X86281Y49361D01*
X86390Y49149D01*
X86433Y49058D01*
X86859Y48059D01*
X87269Y47033D01*
X87272Y47028D01*
X87274Y47023D01*
X87327Y46894D01*
X87329Y46891D01*
X87329Y46887D01*
X87437Y46630D01*
X87440Y46626D01*
X87441Y46622D01*
X87551Y46365D01*
X87554Y46361D01*
X87555Y46357D01*
X87668Y46101D01*
X87670Y46099D01*
X87670Y46095D01*
X87727Y45970D01*
X88177Y44953D01*
X88624Y43932D01*
X89068Y42911D01*
X89510Y41888D01*
X89952Y40863D01*
X90393Y39837D01*
X90393Y39837D01*
X90834Y38811D01*
X91275Y37786D01*
X91715Y36759D01*
X91716Y36759D01*
X92155Y35734D01*
X92160Y35727D01*
X92162Y35719D01*
X92611Y34714D01*
X92656Y34605D01*
X92756Y34354D01*
X92853Y34103D01*
X92948Y33850D01*
X92994Y33724D01*
X93079Y33488D01*
X93228Y33001D01*
X93354Y32508D01*
X93455Y32009D01*
X93494Y31757D01*
X93497Y31748D01*
X93497Y31739D01*
X93516Y31626D01*
X93543Y31400D01*
X93559Y31172D01*
X93563Y30944D01*
X93559Y30830D01*
X93560Y30827D01*
X93559Y30823D01*
X93556Y30703D01*
X93541Y30463D01*
X93516Y30225D01*
X93482Y29987D01*
X93467Y29904D01*
X93444Y29816D01*
X93375Y29571D01*
X93300Y29329D01*
X93219Y29087D01*
X93195Y29020D01*
X93161Y28952D01*
X93040Y28716D01*
X92916Y28482D01*
X92789Y28250D01*
X92751Y28184D01*
X92706Y28120D01*
X92544Y27899D01*
X92382Y27683D01*
X92218Y27466D01*
X92162Y27393D01*
X92101Y27327D01*
X91916Y27128D01*
X91728Y26929D01*
X91541Y26734D01*
X91464Y26655D01*
X91384Y26582D01*
X91187Y26403D01*
X90987Y26226D01*
X90784Y26051D01*
X90682Y25965D01*
X90675Y25956D01*
X90665Y25950D01*
X90571Y25868D01*
X90379Y25708D01*
X90182Y25554D01*
X89981Y25405D01*
X89878Y25334D01*
X89863Y25318D01*
X89844Y25308D01*
X89737Y25227D01*
X89523Y25068D01*
X89305Y24911D01*
X89087Y24757D01*
X88988Y24689D01*
X88063Y24085D01*
X88061Y24083D01*
X88057Y24081D01*
X87947Y24008D01*
X87723Y23864D01*
X87498Y23724D01*
X87271Y23587D01*
X87157Y23520D01*
X87156Y23519D01*
X87156Y23519D01*
X86193Y22953D01*
X86193Y22952D01*
X86192Y22952D01*
X86075Y22883D01*
X85841Y22748D01*
X85606Y22614D01*
X85369Y22482D01*
X85250Y22417D01*
X84274Y21887D01*
X83297Y21364D01*
X82315Y20851D01*
X81330Y20350D01*
X80340Y19859D01*
X79343Y19378D01*
X78341Y18907D01*
X77335Y18446D01*
X76323Y17993D01*
X75302Y17540D01*
X75302Y17540D01*
X75301Y17540D01*
X74284Y17089D01*
X73272Y16650D01*
X72250Y16230D01*
X71216Y15807D01*
X71215Y15806D01*
X71213Y15806D01*
X70183Y15380D01*
X69159Y14963D01*
X68128Y14561D01*
X67089Y14164D01*
X66058Y13774D01*
X65018Y13408D01*
X63966Y13044D01*
X62914Y12684D01*
X61857Y12326D01*
X61856Y12326D01*
X61856Y12326D01*
X60798Y11966D01*
X60797Y11965D01*
X60795Y11965D01*
X59740Y11602D01*
X58689Y11244D01*
X57635Y10893D01*
X56581Y10551D01*
X55519Y10214D01*
X54458Y9882D01*
X53395Y9553D01*
X52328Y9225D01*
X51261Y8899D01*
X50195Y8574D01*
X49134Y8255D01*
X48071Y7951D01*
X47943Y7915D01*
X47679Y7844D01*
X47414Y7773D01*
X47148Y7704D01*
X47014Y7669D01*
X47013Y7668D01*
X47011Y7668D01*
X45930Y7387D01*
X45925Y7385D01*
X45920Y7384D01*
X44842Y7091D01*
X44839Y7090D01*
X44837Y7090D01*
X44704Y7053D01*
X44442Y6982D01*
X44176Y6911D01*
X43913Y6843D01*
X43784Y6811D01*
X42706Y6547D01*
X41625Y6290D01*
X40543Y6036D01*
X39463Y5793D01*
X38378Y5560D01*
X37288Y5330D01*
X36198Y5102D01*
X35107Y4879D01*
X34016Y4661D01*
X32926Y4449D01*
X31830Y4241D01*
X30735Y4033D01*
X29643Y3829D01*
X28551Y3634D01*
X27451Y3443D01*
X27451Y3443D01*
X27450Y3443D01*
X26352Y3250D01*
X25258Y3063D01*
X24164Y2887D01*
X23063Y2718D01*
X21965Y2552D01*
X20866Y2391D01*
X19767Y2240D01*
X19634Y2223D01*
X19363Y2189D01*
X19090Y2156D01*
X18816Y2124D01*
X18686Y2109D01*
X17581Y1995D01*
X16473Y1888D01*
X16471Y1888D01*
X16469Y1888D01*
X16331Y1874D01*
X16059Y1848D01*
X15787Y1823D01*
X15510Y1799D01*
X15380Y1788D01*
X14270Y1706D01*
X14270Y1706D01*
X14270Y1706D01*
X13159Y1624D01*
X12053Y1548D01*
X10946Y1484D01*
X9832Y1424D01*
X9831Y1424D01*
X9831Y1424D01*
X8719Y1363D01*
X7612Y1310D01*
X6500Y1266D01*
X5384Y1222D01*
X5384Y1222D01*
X5384Y1222D01*
X4272Y1178D01*
X3169Y1146D01*
X2058Y1127D01*
X942Y1109D01*
X940Y1109D01*
X938Y1109D01*
X-179Y1086D01*
X-179Y1086D01*
X-180Y1086D01*
X-1295Y1063D01*
X-2407Y1043D01*
X-3519Y1027D01*
X-4628Y1020D01*
X-5738Y1022D01*
X-6851Y1030D01*
X-6852Y1030D01*
X-6852Y1030D01*
X-7966Y1038D01*
X-9075Y1049D01*
X-10184Y1076D01*
X-10186Y1075D01*
X-10187Y1076D01*
X-11302Y1100D01*
X-12413Y1125D01*
X-12542Y1130D01*
X-12814Y1141D01*
X-13087Y1154D01*
X-13358Y1170D01*
X-13494Y1178D01*
X-13497Y1178D01*
X-13500Y1178D01*
X-14616Y1241D01*
X-14617Y1241D01*
X-14619Y1241D01*
X-15733Y1300D01*
X-16844Y1361D01*
X-17949Y1430D01*
X-19051Y1513D01*
X-19185Y1524D01*
X-19457Y1548D01*
X-19729Y1574D01*
X-20003Y1601D01*
X-20135Y1615D01*
X-21242Y1737D01*
X-21246Y1737D01*
X-21249Y1738D01*
X-22361Y1853D01*
X-22362Y1853D01*
X-22364Y1853D01*
X-23472Y1964D01*
X-24576Y2080D01*
X-25677Y2207D01*
X-25809Y2223D01*
X-26082Y2258D01*
X-26353Y2294D01*
X-26626Y2332D01*
X-26756Y2350D01*
X-27856Y2516D01*
X-28957Y2686D01*
X-28961Y2685D01*
X-28965Y2687D01*
X-30070Y2849D01*
X-30071Y2849D01*
X-30072Y2849D01*
X-31174Y3008D01*
X-32273Y3175D01*
X-32403Y3195D01*
X-32677Y3240D01*
X-32946Y3285D01*
X-33215Y3331D01*
X-33348Y3355D01*
X-34437Y3557D01*
X-35532Y3767D01*
X-35533Y3767D01*
X-35534Y3768D01*
X-36632Y3976D01*
X-36632D01*
X-36632Y3976D01*
X-37727Y4183D01*
X-38820Y4393D01*
X-39908Y4609D01*
X-40996Y4833D01*
X-42085Y5064D01*
X-43170Y5300D01*
X-44258Y5541D01*
X-45344Y5785D01*
X-46427Y6032D01*
X-47514Y6284D01*
X-48595Y6539D01*
X-49679Y6800D01*
X-50758Y7064D01*
X-51838Y7334D01*
X-52911Y7608D01*
X-53979Y7894D01*
X-54107Y7930D01*
X-54369Y8004D01*
X-54631Y8080D01*
X-54895Y8158D01*
X-55022Y8197D01*
X-56087Y8524D01*
X-57152Y8855D01*
X-57153Y8855D01*
X-57154Y8855D01*
X-58221Y9184D01*
X-58222Y9184D01*
X-58222Y9185D01*
X-59290Y9513D01*
X-60351Y9842D01*
X-61408Y10178D01*
X-62469Y10522D01*
X-62469Y10522D01*
X-62469Y10522D01*
X-63531Y10865D01*
X-64589Y11209D01*
X-65644Y11559D01*
X-66697Y11915D01*
X-67746Y12275D01*
X-68794Y12646D01*
X-68920Y12691D01*
X-69178Y12785D01*
X-69434Y12880D01*
X-69689Y12976D01*
X-69812Y13023D01*
X-70847Y13431D01*
X-70850Y13432D01*
X-70852Y13433D01*
X-71894Y13837D01*
X-71897Y13838D01*
X-71899Y13839D01*
X-72943Y14237D01*
X-72943Y14237D01*
X-72943Y14237D01*
X-73987Y14634D01*
X-75027Y15032D01*
X-76060Y15434D01*
X-77085Y15844D01*
X-78105Y16268D01*
X-79126Y16704D01*
X-80148Y17147D01*
X-81169Y17591D01*
X-82189Y18038D01*
X-83207Y18490D01*
X-83208Y18491D01*
X-83209Y18491D01*
X-84228Y18942D01*
X-84351Y18997D01*
X-84599Y19110D01*
X-84846Y19224D01*
X-85093Y19341D01*
X-85214Y19398D01*
X-86218Y19884D01*
X-86219Y19884D01*
X-86219Y19884D01*
X-87226Y20369D01*
X-87227Y20370D01*
X-87228Y20370D01*
X-87350Y20429D01*
X-87593Y20548D01*
X-87835Y20669D01*
X-88077Y20792D01*
X-88196Y20854D01*
X-88197Y20854D01*
X-88197Y20854D01*
X-89188Y21370D01*
X-90173Y21883D01*
X-90291Y21946D01*
X-90529Y22074D01*
X-90768Y22206D01*
X-91004Y22338D01*
X-91122Y22406D01*
X-91123Y22406D01*
X-91123Y22407D01*
X-92095Y22958D01*
X-92095Y22958D01*
X-93061Y23508D01*
X-93172Y23573D01*
X-93401Y23710D01*
X-93630Y23850D01*
X-93857Y23992D01*
X-93969Y24065D01*
X-93972Y24066D01*
X-93975Y24068D01*
X-94093Y24143D01*
X-94094Y24144D01*
X-94095Y24145D01*
X-94332Y24294D01*
X-94334Y24295D01*
X-94336Y24296D01*
X-94573Y24444D01*
X-94575Y24445D01*
X-94577Y24447D01*
X-94814Y24594D01*
X-94816Y24594D01*
X-94818Y24595D01*
X-94937Y24668D01*
X-94939Y24669D01*
X-94940Y24671D01*
X-95052Y24738D01*
X-95273Y24878D01*
X-95491Y25021D01*
X-95708Y25169D01*
X-95810Y25240D01*
X-95918Y25319D01*
X-95921Y25320D01*
X-95923Y25322D01*
X-96150Y25485D01*
X-96154Y25487D01*
X-96158Y25490D01*
X-96386Y25651D01*
X-96390Y25653D01*
X-96394Y25656D01*
X-96624Y25814D01*
X-96627Y25816D01*
X-96629Y25818D01*
X-96745Y25897D01*
X-96751Y25899D01*
X-96755Y25903D01*
X-96859Y25972D01*
X-97064Y26116D01*
X-97264Y26266D01*
X-97460Y26421D01*
X-97553Y26500D01*
X-97656Y26588D01*
X-97659Y26589D01*
X-97661Y26592D01*
X-97875Y26772D01*
X-97878Y26774D01*
X-97881Y26777D01*
X-98096Y26956D01*
X-98100Y26958D01*
X-98103Y26961D01*
X-98320Y27138D01*
X-98322Y27140D01*
X-98325Y27142D01*
X-98414Y27215D01*
X-98490Y27281D01*
X-98673Y27453D01*
X-98851Y27630D01*
X-99024Y27811D01*
X-99108Y27904D01*
X-99175Y27979D01*
X-99299Y28139D01*
X-99410Y28308D01*
X-99509Y28485D01*
X-99551Y28577D01*
X-99559Y28587D01*
X-99563Y28600D01*
X-99608Y28692D01*
X-99685Y28882D01*
X-99747Y29076D01*
X-99795Y29275D01*
X-99812Y29376D01*
X-99833Y29503D01*
X-99871Y29762D01*
X-99905Y30021D01*
X-99934Y30281D01*
X-99942Y30373D01*
X-99961Y31403D01*
X-99955Y31485D01*
X-99930Y31747D01*
X-99902Y32009D01*
X-99869Y32271D01*
X-99850Y32401D01*
X-99852Y32427D01*
X-99844Y32452D01*
X-99832Y32585D01*
X-99805Y32848D01*
X-99774Y33110D01*
X-99738Y33373D01*
X-99720Y33494D01*
X-99702Y33602D01*
X-99653Y33836D01*
X-99595Y34067D01*
X-99528Y34296D01*
X-99494Y34400D01*
X-99124Y35447D01*
X-99117Y35491D01*
X-99098Y35531D01*
X-99069Y35641D01*
X-99001Y35857D01*
X-98922Y36070D01*
X-98832Y36278D01*
X-98781Y36380D01*
X-98774Y36406D01*
X-98758Y36429D01*
X-98316Y37455D01*
X-98316Y37456D01*
X-98315Y37457D01*
X-97875Y38483D01*
X-97435Y39505D01*
X-96545Y41549D01*
X-96096Y42569D01*
X-95644Y43587D01*
X-95189Y44602D01*
X-94730Y45615D01*
X-94267Y46623D01*
X-93792Y47627D01*
X-93792Y47628D01*
X-93792Y47629D01*
X-93676Y47876D01*
X-93437Y48366D01*
X-93193Y48854D01*
X-92942Y49338D01*
X-92813Y49578D01*
X-92804Y49610D01*
X-92785Y49637D01*
X-92747Y49720D01*
X-92656Y49879D01*
X-92550Y50029D01*
X-92462Y50133D01*
X-92326Y50192D01*
X-92142Y50256D01*
X-91954Y50303D01*
X-91859Y50319D01*
X-91827Y50331D01*
X-91793Y50332D01*
X-91666Y50362D01*
X-91413Y50416D01*
X-91159Y50466D01*
X-90904Y50510D01*
X-90776Y50529D01*
X-90640Y50550D01*
X-90636Y50551D01*
X-90631Y50551D01*
X-90355Y50595D01*
X-90350Y50597D01*
X-90343Y50597D01*
X-90068Y50644D01*
X-90062Y50647D01*
X-90056Y50647D01*
X-89782Y50697D01*
X-89777Y50699D01*
X-89773Y50699D01*
X-89636Y50725D01*
X-89624Y50730D01*
X-89610Y50731D01*
X-89479Y50759D01*
X-89217Y50814D01*
X-88953Y50866D01*
X-88688Y50915D01*
X-88561Y50937D01*
X-88428Y50959D01*
X-88425Y50960D01*
X-88421Y50960D01*
X-88145Y51007D01*
X-88140Y51009D01*
X-88134Y51009D01*
X-87859Y51059D01*
X-87854Y51061D01*
X-87849Y51061D01*
X-87574Y51113D01*
X-87570Y51115D01*
X-87566D01*
X-87429Y51142D01*
X-87421Y51146D01*
X-87412Y51146D01*
X-87276Y51175D01*
X-87264Y51181D01*
X-87251Y51181D01*
X-86981Y51247D01*
X-86965Y51254D01*
X-86948Y51256D01*
X-86679Y51331D01*
X-86664Y51339D01*
X-86647Y51341D01*
X-86381Y51424D01*
X-86370Y51431D01*
X-86357Y51432D01*
X-86225Y51478D01*
X-86219Y51481D01*
X-86213Y51482D01*
X-86086Y51527D01*
X-85832Y51615D01*
X-85578Y51699D01*
X-85323Y51781D01*
X-85198Y51819D01*
X-85068Y51858D01*
X-85064Y51860D01*
X-85060Y51860D01*
X-84792Y51943D01*
X-84787Y51945D01*
X-84781Y51946D01*
X-84514Y52031D01*
X-84509Y52034D01*
X-84504Y52035D01*
X-84238Y52123D01*
X-84234Y52125D01*
X-84230Y52125D01*
X-84097Y52170D01*
X-84089Y52175D01*
X-84080Y52176D01*
X-83949Y52223D01*
X-83937Y52231D01*
X-83922Y52234D01*
X-83663Y52336D01*
X-83646Y52346D01*
X-83626Y52351D01*
X-83371Y52463D01*
X-83355Y52474D01*
X-83336Y52479D01*
X-83085Y52600D01*
X-83073Y52609D01*
X-83059Y52614D01*
X-82935Y52678D01*
X-82924Y52687D01*
X-82910Y52691D01*
X-82795Y52755D01*
X-82562Y52880D01*
X-82327Y53002D01*
X-82090Y53119D01*
X-81974Y53175D01*
X-81851Y53233D01*
X-81845Y53236D01*
X-81839Y53238D01*
X-81587Y53360D01*
X-81580Y53365D01*
X-81571Y53368D01*
X-81321Y53494D01*
X-81314Y53500D01*
X-81305Y53502D01*
X-81057Y53633D01*
X-81052Y53637D01*
X-81046Y53639D01*
X-80923Y53706D01*
X-80909Y53717D01*
X-80892Y53723D01*
X-80772Y53794D01*
X-80759Y53805D01*
X-80744Y53811D01*
X-80509Y53960D01*
X-80492Y53975D01*
X-80472Y53984D01*
X-80243Y54143D01*
X-80228Y54159D01*
X-80208Y54169D01*
X-79986Y54338D01*
X-79975Y54350D01*
X-79960Y54358D01*
X-79858Y54441D01*
X-79759Y54519D01*
X-79546Y54683D01*
X-79332Y54843D01*
X-79116Y55001D01*
X-79007Y55079D01*
X-79006Y55079D01*
X-79005Y55080D01*
X-78891Y55161D01*
X-78884Y55169D01*
X-78874Y55173D01*
X-78650Y55340D01*
X-78640Y55351D01*
X-78628Y55357D01*
X-78408Y55531D01*
X-78399Y55541D01*
X-78386Y55548D01*
X-78172Y55727D01*
X-78165Y55735D01*
X-78156Y55741D01*
X-78050Y55832D01*
X-78032Y55855D01*
X-78008Y55871D01*
X-77908Y55968D01*
X-77901Y55978D01*
X-77892Y55984D01*
X-77696Y56183D01*
X-77688Y56196D01*
X-77675Y56205D01*
X-77486Y56410D01*
X-77478Y56423D01*
X-77465Y56433D01*
X-77282Y56643D01*
X-77276Y56653D01*
X-77267Y56660D01*
X-77198Y56744D01*
X-76449Y57541D01*
X-76445Y57547D01*
X-76439Y57552D01*
X-76345Y57655D01*
X-76338Y57667D01*
X-76327Y57676D01*
X-76144Y57887D01*
X-76135Y57903D01*
X-76121Y57915D01*
X-75947Y58133D01*
X-75938Y58149D01*
X-75924Y58162D01*
X-75758Y58385D01*
X-75752Y58398D01*
X-75742Y58407D01*
X-75662Y58521D01*
X-75653Y58542D01*
X-75637Y58558D01*
X-75562Y58676D01*
X-75561Y58678D01*
X-75559Y58680D01*
X-75410Y58916D01*
X-75408Y58920D01*
X-75406Y58922D01*
X-75258Y59160D01*
X-75257Y59163D01*
X-75254Y59166D01*
X-75108Y59404D01*
X-75107Y59407D01*
X-75105Y59409D01*
X-75043Y59511D01*
X-74977Y59612D01*
X-74976Y59615D01*
X-74973Y59617D01*
X-74820Y59852D01*
X-74819Y59856D01*
X-74816Y59859D01*
X-74665Y60095D01*
X-74663Y60098D01*
X-74660Y60101D01*
X-74511Y60339D01*
X-74510Y60342D01*
X-74508Y60344D01*
X-74434Y60463D01*
X-74433Y60464D01*
X-74432Y60465D01*
X-74359Y60584D01*
X-74354Y60599D01*
X-74343Y60611D01*
X-74204Y60853D01*
X-74197Y60873D01*
X-74184Y60890D01*
X-74055Y61137D01*
X-74049Y61158D01*
X-74036Y61176D01*
X-73918Y61428D01*
X-73914Y61444D01*
X-73905Y61457D01*
X-73850Y61585D01*
X-73848Y61594D01*
X-73843Y61602D01*
X-73791Y61729D01*
X-73686Y61979D01*
X-73579Y62231D01*
X-73471Y62481D01*
X-73415Y62606D01*
X-73415Y62607D01*
X-73415Y62607D01*
X-73359Y62735D01*
X-73358Y62739D01*
X-73356Y62742D01*
X-73245Y62998D01*
X-73244Y63003D01*
X-73241Y63007D01*
X-73132Y63265D01*
X-73132Y63270D01*
X-73129Y63273D01*
X-73023Y63532D01*
X-73022Y63536D01*
X-73020Y63539D01*
X-72968Y63669D01*
X-72967Y63674D01*
X-72964Y63678D01*
X-72913Y63807D01*
X-72912Y63817D01*
X-72907Y63825D01*
X-72810Y64086D01*
X-72808Y64099D01*
X-72801Y64110D01*
X-72711Y64374D01*
X-72709Y64386D01*
X-72703Y64397D01*
X-72619Y64663D01*
X-72618Y64673D01*
X-72614Y64681D01*
X-72574Y64815D01*
X-72572Y64834D01*
X-72564Y64851D01*
X-72288Y65930D01*
X-72003Y67005D01*
X-72003Y67009D01*
X-72001Y67012D01*
X-71967Y67147D01*
X-71966Y67151D01*
X-71965Y67154D01*
X-71897Y67425D01*
X-71897Y67430D01*
X-71895Y67435D01*
X-71830Y67707D01*
X-71829Y67712D01*
X-71827Y67717D01*
X-71765Y67989D01*
X-71765Y67993D01*
X-71763Y67996D01*
X-71733Y68133D01*
X-71733Y68139D01*
X-71731Y68145D01*
X-71702Y68281D01*
X-71702Y68284D01*
X-71701Y68287D01*
X-71646Y68561D01*
X-71646Y68566D01*
X-71644Y68570D01*
X-71591Y68844D01*
X-71591Y68848D01*
X-71590Y68853D01*
X-71539Y69127D01*
X-71539Y69130D01*
X-71538Y69133D01*
X-71514Y69270D01*
X-71318Y70367D01*
X-71293Y70502D01*
X-71293Y70509D01*
X-71291Y70516D01*
X-71244Y70791D01*
X-71244Y70801D01*
X-71241Y70809D01*
X-71200Y71085D01*
X-71200Y71095D01*
X-71197Y71103D01*
X-71161Y71380D01*
X-71161Y71387D01*
X-71159Y71394D01*
X-71144Y71515D01*
X-71126Y71635D01*
X-71126Y71640D01*
X-71125Y71644D01*
X-71084Y71920D01*
X-71085Y71926D01*
X-71083Y71932D01*
X-71046Y72209D01*
X-71046Y72215D01*
X-71044Y72221D01*
X-71011Y72498D01*
X-71011Y72503D01*
X-71010Y72507D01*
X-70994Y72646D01*
X-70996Y72673D01*
X-70989Y72700D01*
X-70924Y73815D01*
X-70924Y73815D01*
X-70924Y73816D01*
X-70915Y73955D01*
X-70916Y73958D01*
X-70915Y73961D01*
X-70900Y74240D01*
X-70901Y74243D01*
X-70900Y74247D01*
X-70888Y74526D01*
X-70888Y74530D01*
X-70887Y74533D01*
X-70877Y74812D01*
X-70877Y74815D01*
X-70877Y74818D01*
X-70872Y74957D01*
X-70873Y74962D01*
X-70872Y74967D01*
X-70869Y75107D01*
X-70869Y75109D01*
X-70868Y75111D01*
X-70863Y75390D01*
X-70864Y75394D01*
X-70863Y75397D01*
X-70860Y75676D01*
X-70861Y75679D01*
X-70860Y75683D01*
X-70858Y75962D01*
X-70859Y75964D01*
X-70858Y75967D01*
X-70858Y76106D01*
X-70858Y76107D01*
X-70858Y76108D01*
X-70858Y76245D01*
X-70858Y76524D01*
X-70857Y76798D01*
X-70855Y77076D01*
X-70854Y77214D01*
X-70854Y77215D01*
X-70854Y77216D01*
X-70853Y77356D01*
X-70853Y77360D01*
X-70853Y77365D01*
X-70853Y77644D01*
X-70854Y77650D01*
X-70853Y77656D01*
X-70857Y77936D01*
X-70858Y77942D01*
X-70857Y77948D01*
X-70864Y78227D01*
X-70865Y78232D01*
X-70864Y78236D01*
X-70869Y78364D01*
X-70883Y79471D01*
X-70883Y79471D01*
X-70883Y79472D01*
X-70885Y79611D01*
X-70885Y79614D01*
X-70885Y79616D01*
X-70890Y79895D01*
X-70890Y79899D01*
X-70890Y79902D01*
X-70897Y80181D01*
X-70898Y80184D01*
X-70897Y80187D01*
X-70906Y80467D01*
X-70906Y80469D01*
X-70906Y80471D01*
X-70911Y80611D01*
X-70911Y80613D01*
X-70911Y80616D01*
X-70916Y80755D01*
X-70917Y80759D01*
X-70917Y80764D01*
X-70930Y81042D01*
X-70932Y81048D01*
X-70931Y81054D01*
X-70948Y81333D01*
X-70949Y81339D01*
X-70948Y81344D01*
X-70969Y81623D01*
X-70970Y81627D01*
X-70969Y81632D01*
X-70980Y81771D01*
X-70981Y81773D01*
X-70981Y81776D01*
X-71076Y82886D01*
X-71163Y83996D01*
X-71165Y84003D01*
X-71164Y84010D01*
X-71177Y84149D01*
X-71178Y84155D01*
X-71178Y84162D01*
X-71207Y84439D01*
X-71209Y84448D01*
X-71209Y84456D01*
X-71242Y84733D01*
X-71245Y84741D01*
X-71245Y84750D01*
X-71283Y85026D01*
X-71285Y85032D01*
X-71285Y85039D01*
X-71305Y85176D01*
X-71307Y85180D01*
X-71307Y85184D01*
X-71481Y86282D01*
X-71642Y87382D01*
X-71643Y87385D01*
X-71643Y87388D01*
X-71664Y87526D01*
X-71665Y87531D01*
X-71665Y87536D01*
X-71710Y87811D01*
X-71712Y87818D01*
X-71712Y87824D01*
X-71760Y88099D01*
X-71763Y88106D01*
X-71763Y88112D01*
X-71815Y88387D01*
X-71817Y88391D01*
Y88397D01*
X-71844Y88533D01*
X-71846Y88538D01*
X-71846Y88542D01*
X-71874Y88679D01*
X-71876Y88681D01*
X-71876Y88684D01*
X-71934Y88957D01*
X-71935Y88960D01*
X-71935Y88964D01*
X-71996Y89236D01*
X-71997Y89239D01*
X-71997Y89243D01*
X-72059Y89515D01*
X-72060Y89517D01*
X-72060Y89520D01*
X-72091Y89653D01*
X-72338Y90737D01*
X-72367Y90868D01*
X-72368Y90870D01*
X-72368Y90872D01*
X-72428Y91145D01*
X-72429Y91147D01*
X-72429Y91150D01*
X-72492Y91422D01*
X-72493Y91424D01*
X-72493Y91427D01*
X-72556Y91699D01*
X-72557Y91701D01*
X-72557Y91703D01*
X-72589Y91839D01*
X-72591Y91842D01*
X-72591Y91845D01*
X-72624Y91981D01*
X-72627Y91986D01*
X-72627Y91992D01*
X-72696Y92262D01*
X-72699Y92269D01*
X-72700Y92277D01*
X-72773Y92546D01*
X-72777Y92553D01*
X-72777Y92560D01*
X-72854Y92828D01*
X-72857Y92833D01*
X-72857Y92839D01*
X-72897Y92973D01*
X-73215Y94039D01*
X-73524Y95107D01*
X-73525Y95109D01*
X-73525Y95111D01*
X-73564Y95245D01*
X-73566Y95247D01*
X-73566Y95249D01*
X-73646Y95517D01*
X-73647Y95520D01*
X-73647Y95524D01*
X-73729Y95791D01*
X-73731Y95794D01*
X-73731Y95797D01*
X-73814Y96064D01*
X-73816Y96066D01*
X-73816Y96068D01*
X-73858Y96201D01*
X-73860Y96204D01*
X-73860Y96208D01*
X-73903Y96341D01*
X-73905Y96344D01*
X-73906Y96348D01*
X-73994Y96613D01*
X-73997Y96617D01*
X-73997Y96622D01*
X-74088Y96886D01*
X-74091Y96890D01*
X-74092Y96896D01*
X-74185Y97159D01*
X-74187Y97162D01*
X-74188Y97166D01*
X-74235Y97294D01*
X-74610Y98341D01*
X-74980Y99391D01*
X-74982Y99396D01*
X-74983Y99401D01*
X-75364Y100451D01*
X-75367Y100456D01*
X-75368Y100462D01*
X-75417Y100593D01*
X-75418Y100595D01*
X-75419Y100597D01*
X-75518Y100858D01*
X-75520Y100860D01*
X-75520Y100863D01*
X-75621Y101123D01*
X-75622Y101126D01*
X-75623Y101128D01*
X-75725Y101388D01*
X-75726Y101390D01*
X-75727Y101392D01*
X-75779Y101522D01*
X-76188Y102558D01*
X-76190Y102560D01*
X-76190Y102564D01*
X-76607Y103600D01*
X-76610Y103605D01*
X-76612Y103611D01*
X-77041Y104642D01*
X-77043Y104645D01*
X-77044Y104649D01*
X-77481Y105677D01*
X-77482Y105679D01*
X-77483Y105681D01*
X-77925Y106707D01*
X-77926Y106709D01*
X-77927Y106712D01*
X-78374Y107735D01*
X-78376Y107738D01*
X-78377Y107741D01*
X-78830Y108761D01*
X-78832Y108764D01*
X-78832Y108767D01*
X-79292Y109785D01*
X-79293Y109787D01*
X-79294Y109790D01*
X-79758Y110805D01*
X-79760Y110807D01*
X-79760Y110809D01*
X-80229Y111823D01*
X-80230Y111824D01*
X-80230Y111826D01*
X-80701Y112838D01*
X-80702Y112839D01*
X-80702Y112840D01*
X-81176Y113851D01*
X-81176Y113852D01*
X-81177Y113853D01*
X-81652Y114863D01*
X-81652Y114864D01*
X-81652Y114864D01*
X-82127Y115872D01*
X-82594Y116879D01*
X-83057Y117893D01*
X-83060Y117897D01*
X-83061Y117901D01*
X-83116Y118018D01*
X-83222Y118256D01*
X-83322Y118494D01*
X-83418Y118736D01*
X-83464Y118857D01*
X-83477Y118877D01*
X-83482Y118901D01*
X-83924Y119927D01*
X-83925Y119929D01*
X-83926Y119931D01*
X-84373Y120955D01*
X-84374Y120956D01*
X-84374Y120957D01*
X-84824Y121979D01*
X-84824Y121980D01*
X-84825Y121981D01*
X-85276Y123003D01*
X-85277Y123003D01*
X-85277Y123003D01*
X-85729Y124024D01*
X-85730Y124025D01*
X-85730Y124025D01*
X-86183Y125046D01*
X-86184Y125047D01*
X-86184Y125048D01*
X-86639Y126067D01*
X-86641Y126069D01*
X-86642Y126072D01*
X-87102Y127089D01*
X-87561Y128105D01*
X-87615Y128226D01*
X-87723Y128474D01*
X-87830Y128724D01*
X-87934Y128974D01*
X-87985Y129098D01*
X-88037Y129225D01*
X-88138Y129478D01*
X-88240Y129736D01*
X-88339Y129990D01*
X-88388Y130118D01*
X-88389Y130119D01*
X-88389Y130120D01*
X-88792Y131162D01*
X-88793Y131164D01*
X-88794Y131167D01*
X-89202Y132206D01*
X-89203Y132208D01*
X-89203Y132209D01*
X-89614Y133247D01*
X-90023Y134283D01*
X-90426Y135318D01*
X-90821Y136354D01*
X-91204Y137392D01*
X-91580Y138438D01*
X-91957Y139489D01*
X-91958Y139490D01*
X-91958Y139492D01*
X-92338Y140542D01*
X-92339Y140544D01*
X-92339Y140545D01*
X-92723Y141594D01*
X-92725Y141598D01*
X-92726Y141603D01*
X-92775Y141734D01*
X-92777Y141736D01*
X-92777Y141738D01*
X-92877Y141999D01*
X-92878Y142002D01*
X-92879Y142005D01*
X-92980Y142266D01*
X-92982Y142268D01*
X-92983Y142272D01*
X-93085Y142531D01*
X-93087Y142533D01*
X-93087Y142536D01*
X-93138Y142664D01*
X-93188Y142787D01*
X-93283Y143035D01*
X-93376Y143286D01*
X-93465Y143537D01*
X-93508Y143663D01*
X-93866Y144713D01*
X-94215Y145768D01*
X-94559Y146827D01*
X-94561Y146829D01*
X-94561Y146832D01*
X-94911Y147890D01*
X-95257Y148943D01*
X-95584Y150002D01*
X-95585Y150003D01*
X-95585Y150003D01*
X-95917Y151070D01*
X-95917Y151070D01*
X-95917Y151071D01*
X-95958Y151201D01*
X-96038Y151463D01*
X-96116Y151724D01*
X-96193Y151987D01*
X-96231Y152118D01*
X-96268Y152247D01*
X-96341Y152509D01*
X-96414Y152776D01*
X-96485Y153042D01*
X-96520Y153174D01*
X-96521Y153176D01*
X-96522Y153179D01*
X-96812Y154257D01*
X-96812Y154259D01*
X-96813Y154261D01*
X-97107Y155338D01*
X-97107Y155339D01*
X-97107Y155341D01*
X-97404Y156415D01*
X-97693Y157485D01*
X-97971Y158560D01*
X-98249Y159642D01*
X-98251Y159645D01*
X-98251Y159649D01*
X-98537Y160726D01*
X-98816Y161799D01*
X-98848Y161927D01*
X-98914Y162196D01*
X-98977Y162460D01*
X-99040Y162727D01*
X-99071Y162862D01*
X-99315Y163943D01*
X-99549Y165024D01*
X-99770Y166112D01*
X-99991Y167206D01*
X-99993Y167210D01*
X-99993Y167215D01*
X-100224Y168306D01*
X-100252Y168439D01*
X-100305Y168704D01*
X-100357Y168971D01*
X-100406Y169237D01*
X-100430Y169371D01*
X-100434Y169379D01*
X-100433Y169389D01*
X-100648Y170485D01*
X-100649Y170488D01*
X-100649Y170492D01*
X-100872Y171586D01*
X-101092Y172677D01*
X-101304Y173766D01*
X-101329Y173899D01*
X-101379Y174169D01*
X-101427Y174439D01*
X-101474Y174710D01*
X-101496Y174841D01*
X-101676Y175940D01*
X-101853Y177041D01*
X-102029Y178138D01*
X-102193Y179231D01*
X-102344Y180331D01*
X-102494Y181437D01*
X-102643Y182537D01*
X-102780Y183636D01*
X-102906Y184739D01*
Y184739D01*
X-103032Y185849D01*
X-103032Y185849D01*
X-103155Y186952D01*
X-103269Y188055D01*
X-103374Y189163D01*
X-103478Y190274D01*
X-103580Y191380D01*
X-103672Y192486D01*
X-103758Y193596D01*
X-103758Y193596D01*
X-103758Y193596D01*
X-103844Y194708D01*
X-103928Y195817D01*
X-104001Y196923D01*
X-104070Y198037D01*
X-104071Y198038D01*
X-104071Y198038D01*
X-104142Y199153D01*
X-104209Y200259D01*
X-104265Y201363D01*
X-104306Y202465D01*
X-104332Y203571D01*
X-104349Y204679D01*
X-104360Y205794D01*
X-104367Y206905D01*
X-104370Y208020D01*
X-104370Y208158D01*
X-104370Y208436D01*
X-104370Y208714D01*
X-104369Y208992D01*
X-104369Y209132D01*
X-104364Y210245D01*
X-104355Y211361D01*
X-104343Y212472D01*
X-104329Y213588D01*
X-104313Y214701D01*
X-104293Y215817D01*
X-104270Y216928D01*
X-104243Y218043D01*
X-104212Y219153D01*
X-104174Y220263D01*
X-104130Y221369D01*
X-104071Y222470D01*
X-103996Y223572D01*
X-103909Y224678D01*
X-103816Y225786D01*
X-103816Y225786D01*
X-103720Y226898D01*
X-103721Y226899D01*
X-103720Y226899D01*
X-103626Y228012D01*
X-103531Y229124D01*
X-103531Y229124D01*
X-103436Y230236D01*
Y230237D01*
X-103338Y231345D01*
X-103238Y232454D01*
X-103134Y233566D01*
X-103027Y234671D01*
X-102916Y235781D01*
X-102801Y236886D01*
X-102680Y237992D01*
X-102554Y239095D01*
X-102421Y240198D01*
X-102281Y241301D01*
X-102136Y242403D01*
X-101985Y243504D01*
X-101829Y244608D01*
X-101829Y244608D01*
X-101673Y245714D01*
X-101673Y245714D01*
X-101673Y245715D01*
X-101518Y246821D01*
X-101499Y246955D01*
X-101459Y247228D01*
X-101418Y247499D01*
X-101376Y247772D01*
X-101355Y247906D01*
X-101333Y248040D01*
X-101288Y248310D01*
X-101241Y248580D01*
X-101194Y248848D01*
X-101169Y248984D01*
X-100965Y250079D01*
X-100761Y251177D01*
Y251177D01*
X-100761Y251177D01*
X-100556Y252275D01*
X-100350Y253367D01*
X-100141Y254465D01*
X-99929Y255557D01*
X-99716Y256650D01*
X-99499Y257735D01*
X-99264Y258817D01*
X-99022Y259904D01*
X-99022Y259909D01*
X-99020Y259913D01*
X-98788Y261006D01*
Y261006D01*
X-98787Y261006D01*
X-98760Y261135D01*
X-98701Y261393D01*
X-98639Y261650D01*
X-98573Y261906D01*
X-98538Y262034D01*
X-98537Y262044D01*
X-98533Y262054D01*
X-98499Y262189D01*
X-98498Y262192D01*
X-98497Y262194D01*
X-98431Y262465D01*
X-98430Y262469D01*
X-98429Y262472D01*
X-98364Y262744D01*
X-98364Y262747D01*
X-98362Y262750D01*
X-98299Y263022D01*
X-98299Y263025D01*
X-98298Y263027D01*
X-98267Y263163D01*
X-98019Y264250D01*
X-98019Y264252D01*
X-98018Y264254D01*
X-97773Y265344D01*
X-97773Y265346D01*
X-97773Y265347D01*
X-97531Y266437D01*
X-97288Y267522D01*
X-97040Y268607D01*
X-96788Y269694D01*
X-96535Y270775D01*
X-96275Y271859D01*
X-96011Y272941D01*
X-96011Y272942D01*
X-96010Y272943D01*
X-95748Y274029D01*
X-95748Y274030D01*
X-95747Y274031D01*
X-95488Y275117D01*
X-95277Y275984D01*
X-95235D01*
X-95267Y276026D01*
X-95225Y276199D01*
X-95225Y276199D01*
X-94961Y277284D01*
X-94961Y277289D01*
X-94959Y277293D01*
X-94705Y278381D01*
X-94704Y278387D01*
X-94702Y278392D01*
X-94460Y279482D01*
X-94460Y279485D01*
X-94459Y279487D01*
X-94223Y280579D01*
X-94223Y280580D01*
X-94223Y280580D01*
X-93988Y281672D01*
X-93752Y282764D01*
X-93752Y282767D01*
X-93751Y282770D01*
X-93522Y283863D01*
X-93522Y283868D01*
X-93520Y283872D01*
X-93493Y284009D01*
Y284011D01*
X-93493Y284013D01*
X-93439Y284287D01*
X-93439Y284289D01*
X-93438Y284292D01*
X-93386Y284566D01*
X-93386Y284568D01*
X-93385Y284571D01*
X-93334Y284845D01*
X-93334Y284847D01*
X-93333Y284849D01*
X-93308Y284986D01*
X-93308Y284987D01*
X-93308Y284988D01*
X-93111Y286084D01*
X-92908Y287181D01*
Y287182D01*
X-92908Y287182D01*
X-92706Y288280D01*
X-92706Y288283D01*
X-92705Y288286D01*
X-92680Y288423D01*
X-92680Y288425D01*
X-92679Y288427D01*
X-92631Y288702D01*
X-92632Y288705D01*
X-92630Y288708D01*
X-92584Y288984D01*
X-92584Y288987D01*
X-92583Y288989D01*
X-92538Y289265D01*
X-92538Y289267D01*
X-92538Y289269D01*
X-92516Y289407D01*
X-92516Y289415D01*
X-92514Y289422D01*
X-92356Y290525D01*
X-92195Y291629D01*
X-92031Y292732D01*
X-92031Y292734D01*
X-92030Y292735D01*
X-92010Y292873D01*
X-92010Y292876D01*
X-92009Y292879D01*
X-91970Y293155D01*
X-91971Y293159D01*
X-91970Y293162D01*
X-91933Y293439D01*
X-91933Y293443D01*
X-91932Y293446D01*
X-91897Y293723D01*
X-91897Y293726D01*
X-91896Y293728D01*
X-91879Y293867D01*
X-91880Y293872D01*
X-91878Y293878D01*
X-91863Y294016D01*
X-91863Y294018D01*
X-91862Y294020D01*
X-91833Y294298D01*
X-91833Y294300D01*
X-91832Y294303D01*
X-91804Y294580D01*
X-91804Y294583D01*
X-91804Y294585D01*
X-91777Y294863D01*
X-91777Y294865D01*
X-91777Y294867D01*
X-91764Y295001D01*
X-91650Y296106D01*
X-91650Y296106D01*
X-91535Y297218D01*
X-91535Y297220D01*
X-91535Y297222D01*
X-91521Y297361D01*
X-91521Y297364D01*
X-91520Y297368D01*
X-91495Y297646D01*
X-91495Y297650D01*
X-91494Y297655D01*
X-91470Y297933D01*
X-91471Y297938D01*
X-91470Y297942D01*
X-91449Y298221D01*
X-91449Y298224D01*
X-91448Y298228D01*
X-91439Y298367D01*
X-91440Y298377D01*
X-91438Y298387D01*
X-91385Y299499D01*
X-91325Y300611D01*
X-91317Y300748D01*
X-91317Y300750D01*
X-91316Y300752D01*
X-91302Y301031D01*
X-91302Y301034D01*
X-91301Y301037D01*
X-91288Y301316D01*
X-91288Y301319D01*
X-91288Y301322D01*
X-91276Y301601D01*
X-91276Y301603D01*
X-91276Y301605D01*
X-91271Y301745D01*
X-91271Y301748D01*
X-91270Y301751D01*
X-91266Y301890D01*
X-91267Y301894D01*
X-91266Y301898D01*
X-91259Y302177D01*
X-91260Y302183D01*
X-91259Y302188D01*
X-91255Y302467D01*
X-91256Y302472D01*
X-91255Y302478D01*
X-91254Y302757D01*
X-91255Y302761D01*
X-91254Y302765D01*
X-91255Y302904D01*
X-91256Y302908D01*
X-91255Y302913D01*
X-91270Y304024D01*
X-91273Y305137D01*
X-91273Y305139D01*
X-91273Y305141D01*
X-91274Y305281D01*
X-91275Y305287D01*
X-91274Y305292D01*
X-91279Y305571D01*
X-91281Y305578D01*
X-91279Y305586D01*
X-91288Y305865D01*
X-91290Y305872D01*
X-91289Y305879D01*
X-91302Y306158D01*
X-91303Y306163D01*
X-91303Y306169D01*
X-91311Y306308D01*
X-91313Y306317D01*
X-91312Y306326D01*
X-91478Y308553D01*
X-91488Y308690D01*
X-91489Y308694D01*
X-91488Y308698D01*
X-91511Y308976D01*
X-91512Y308982D01*
X-91511Y308987D01*
X-91537Y309265D01*
X-91538Y309270D01*
X-91538Y309276D01*
X-91566Y309554D01*
X-91567Y309558D01*
X-91566Y309562D01*
X-91582Y309700D01*
X-91584Y309709D01*
X-91584Y309717D01*
X-91723Y310825D01*
X-91724Y310829D01*
X-91724Y310834D01*
X-91873Y311941D01*
X-91874Y311944D01*
X-91874Y311948D01*
X-91893Y312086D01*
X-91894Y312088D01*
X-91894Y312091D01*
X-91935Y312367D01*
X-91936Y312370D01*
X-91936Y312374D01*
X-91978Y312650D01*
X-91979Y312653D01*
X-91979Y312656D01*
X-92023Y312932D01*
X-92024Y312934D01*
X-92024Y312937D01*
X-92046Y313075D01*
X-92048Y313078D01*
X-92048Y313081D01*
X-92236Y314182D01*
X-92245Y314205D01*
X-92245Y314230D01*
X-92484Y315314D01*
X-92511Y315443D01*
X-92515Y315453D01*
X-92515Y315463D01*
X-92577Y315736D01*
X-92583Y315749D01*
X-92584Y315763D01*
X-92653Y316034D01*
X-92659Y316046D01*
X-92660Y316060D01*
X-92737Y316329D01*
X-92742Y316338D01*
X-92743Y316349D01*
X-92784Y316482D01*
X-92787Y316488D01*
X-92787Y316494D01*
X-93129Y317560D01*
X-93153Y317602D01*
X-93163Y317650D01*
X-93218Y317778D01*
X-93220Y317781D01*
X-93220Y317784D01*
X-93332Y318040D01*
X-93335Y318044D01*
X-93336Y318049D01*
X-93450Y318304D01*
X-93453Y318308D01*
X-93454Y318313D01*
X-93570Y318566D01*
X-93572Y318569D01*
X-93573Y318573D01*
X-93632Y318700D01*
X-93638Y318707D01*
X-93640Y318716D01*
X-93701Y318842D01*
X-93713Y318857D01*
X-93719Y318876D01*
X-93852Y319123D01*
X-93868Y319143D01*
X-93877Y319168D01*
X-94022Y319407D01*
X-94040Y319427D01*
X-94050Y319451D01*
X-94207Y319683D01*
X-94221Y319696D01*
X-94229Y319714D01*
X-94299Y319810D01*
X-94366Y319909D01*
X-94385Y319928D01*
X-94397Y319952D01*
X-94564Y320176D01*
X-94591Y320200D01*
X-94609Y320232D01*
X-94792Y320443D01*
X-94821Y320465D01*
X-94841Y320495D01*
X-95038Y320693D01*
X-95061Y320708D01*
X-95077Y320730D01*
X-95157Y320802D01*
X-95232Y320879D01*
X-95257Y320896D01*
X-95276Y320921D01*
X-95482Y321109D01*
X-95517Y321130D01*
X-95544Y321161D01*
X-95765Y321332D01*
X-95801Y321350D01*
X-95830Y321378D01*
X-96064Y321531D01*
X-96092Y321543D01*
X-96115Y321563D01*
X-96208Y321616D01*
X-96296Y321675D01*
X-96301Y321677D01*
X-96306Y321681D01*
X-96540Y321833D01*
X-96547Y321836D01*
X-96552Y321841D01*
X-96789Y321989D01*
X-96796Y321992D01*
X-96802Y321997D01*
X-97041Y322142D01*
X-97046Y322144D01*
X-97050Y322148D01*
X-97171Y322219D01*
X-97179Y322222D01*
X-97186Y322228D01*
X-97303Y322295D01*
X-97537Y322431D01*
X-97769Y322568D01*
X-97999Y322708D01*
X-98104Y322773D01*
X-98201Y322836D01*
X-98410Y322980D01*
X-98617Y323129D01*
X-98819Y323284D01*
X-98918Y323363D01*
X-98943Y323376D01*
X-98962Y323396D01*
X-99074Y323476D01*
X-99294Y323636D01*
X-99513Y323797D01*
X-99732Y323961D01*
X-99827Y324033D01*
X-99915Y324104D01*
X-100111Y324270D01*
X-100302Y324439D01*
X-100490Y324613D01*
X-100582Y324702D01*
X-100607Y324718D01*
X-100625Y324742D01*
X-100727Y324830D01*
X-100930Y325009D01*
X-101130Y325189D01*
X-101330Y325372D01*
X-101412Y325449D01*
X-101484Y325522D01*
X-101654Y325706D01*
X-101818Y325893D01*
X-101977Y326086D01*
X-102053Y326184D01*
X-102074Y326202D01*
X-102087Y326225D01*
X-102173Y326325D01*
X-102341Y326526D01*
X-102506Y326730D01*
X-102669Y326938D01*
X-102742Y327035D01*
X-102818Y327139D01*
X-102978Y327360D01*
X-103135Y327581D01*
X-103293Y327805D01*
X-103370Y327918D01*
X-103377Y327924D01*
X-103380Y327932D01*
X-104008Y328806D01*
X-104060Y328892D01*
X-104065Y328897D01*
X-104067Y328903D01*
X-104215Y329140D01*
X-104222Y329147D01*
X-104225Y329155D01*
X-104377Y329390D01*
X-104383Y329396D01*
X-104387Y329405D01*
X-104543Y329637D01*
X-104548Y329642D01*
X-104551Y329648D01*
X-104630Y329763D01*
X-104633Y329765D01*
X-104634Y329768D01*
X-104708Y329873D01*
X-104852Y330088D01*
X-104991Y330305D01*
X-105127Y330525D01*
X-105182Y330620D01*
X-105236Y330721D01*
X-105362Y330962D01*
X-105485Y331202D01*
X-105607Y331444D01*
X-105666Y331565D01*
X-105677Y331579D01*
X-105682Y331595D01*
X-105741Y331707D01*
X-105855Y331934D01*
X-105962Y332163D01*
X-106065Y332395D01*
X-106113Y332512D01*
X-106118Y332521D01*
X-106120Y332530D01*
X-106563Y333554D01*
X-106613Y333670D01*
X-106707Y333906D01*
X-106796Y334144D01*
X-106878Y334384D01*
X-106917Y334506D01*
X-106925Y334521D01*
X-106927Y334538D01*
X-107300Y335592D01*
X-107301Y335594D01*
X-107302Y335596D01*
X-107344Y335713D01*
X-107421Y335950D01*
X-107491Y336189D01*
X-107554Y336430D01*
X-107581Y336551D01*
X-107587Y336562D01*
X-107587Y336575D01*
X-107622Y336710D01*
X-107623Y336712D01*
X-107623Y336714D01*
X-107693Y336984D01*
X-107694Y336987D01*
X-107694Y336989D01*
X-107766Y337260D01*
X-107767Y337262D01*
X-107767Y337265D01*
X-107840Y337535D01*
X-107841Y337536D01*
X-107841Y337538D01*
X-107878Y337673D01*
X-107880Y337677D01*
X-107880Y337681D01*
X-107915Y337805D01*
X-107979Y338053D01*
X-108038Y338302D01*
X-108091Y338554D01*
X-108111Y338660D01*
X-108129Y338778D01*
X-108130Y338780D01*
X-108129Y338782D01*
X-108171Y339058D01*
X-108172Y339060D01*
X-108172Y339063D01*
X-108215Y339339D01*
X-108216Y339341D01*
X-108216Y339344D01*
X-108261Y339619D01*
X-108262Y339621D01*
X-108261Y339623D01*
X-108284Y339761D01*
X-108287Y339768D01*
X-108287Y339775D01*
X-108311Y339910D01*
X-108358Y340178D01*
X-108403Y340449D01*
X-108446Y340717D01*
X-108466Y340850D01*
X-108484Y340968D01*
X-108512Y341214D01*
X-108533Y341460D01*
X-108546Y341707D01*
X-108548Y341831D01*
X-108552Y341846D01*
X-108550Y341862D01*
X-108608Y342980D01*
X-108611Y342990D01*
X-108609Y343000D01*
X-108619Y343132D01*
X-108634Y343397D01*
X-108646Y343661D01*
X-108654Y343927D01*
X-108656Y344047D01*
X-108655Y344161D01*
X-108646Y344412D01*
X-108630Y344662D01*
X-108608Y344912D01*
X-108593Y345036D01*
X-108595Y345056D01*
X-108589Y345075D01*
X-108578Y345215D01*
X-108578Y345216D01*
X-108578Y345218D01*
X-108557Y345497D01*
X-108557Y345499D01*
X-108556Y345501D01*
X-108536Y345780D01*
X-108537Y345783D01*
X-108536Y345785D01*
X-108517Y346064D01*
X-108517Y346065D01*
X-108517Y346067D01*
X-108508Y346207D01*
X-108508Y346208D01*
X-108508Y346210D01*
X-108500Y346342D01*
X-108480Y346606D01*
X-108456Y346870D01*
X-108429Y347133D01*
X-108414Y347252D01*
X-108397Y347371D01*
X-108356Y347628D01*
X-108311Y347886D01*
X-108260Y348144D01*
X-108233Y348271D01*
X-108233Y348288D01*
X-108227Y348305D01*
X-108203Y348437D01*
X-108153Y348700D01*
X-108101Y348962D01*
X-108045Y349224D01*
X-108017Y349347D01*
X-107988Y349468D01*
X-107923Y349722D01*
X-107853Y349976D01*
X-107780Y350228D01*
X-107741Y350354D01*
X-107737Y350386D01*
X-107724Y350415D01*
X-107694Y350537D01*
X-107629Y350779D01*
X-107556Y351018D01*
X-107477Y351255D01*
X-107434Y351373D01*
X-107431Y351392D01*
X-107422Y351408D01*
X-107381Y351535D01*
X-107295Y351787D01*
X-107206Y352039D01*
X-107115Y352289D01*
X-107071Y352404D01*
X-107024Y352519D01*
X-106921Y352766D01*
X-106815Y353013D01*
X-106707Y353257D01*
X-106651Y353380D01*
X-106188Y354396D01*
X-106134Y354513D01*
X-106021Y354751D01*
X-105903Y354986D01*
X-105783Y355220D01*
X-105720Y355336D01*
X-105655Y355455D01*
X-105654Y355458D01*
X-105652Y355461D01*
X-105520Y355708D01*
X-105519Y355712D01*
X-105517Y355715D01*
X-105386Y355963D01*
X-105385Y355966D01*
X-105383Y355970D01*
X-105254Y356219D01*
X-105254Y356222D01*
X-105252Y356224D01*
X-105188Y356349D01*
X-105186Y356356D01*
X-105182Y356362D01*
X-105127Y356474D01*
X-105010Y356696D01*
X-104887Y356914D01*
X-104759Y357129D01*
X-104704Y357215D01*
X-104074Y358109D01*
X-104068Y358122D01*
X-104058Y358132D01*
X-103983Y358245D01*
X-103830Y358472D01*
X-103676Y358696D01*
X-103521Y358919D01*
X-103443Y359029D01*
X-103374Y359125D01*
X-103224Y359320D01*
X-103068Y359510D01*
X-102907Y359695D01*
X-102822Y359785D01*
X-102822Y359786D01*
X-102821Y359786D01*
X-102726Y359888D01*
X-102724Y359892D01*
X-102721Y359894D01*
X-102531Y360100D01*
X-102529Y360104D01*
X-102525Y360107D01*
X-102338Y360314D01*
X-102335Y360318D01*
X-102331Y360321D01*
X-102146Y360531D01*
X-102144Y360534D01*
X-102141Y360536D01*
X-102049Y360641D01*
X-102047Y360646D01*
X-102043Y360648D01*
X-101958Y360748D01*
X-101783Y360945D01*
X-101606Y361139D01*
X-101425Y361330D01*
X-101340Y361417D01*
X-101256Y361500D01*
X-101071Y361673D01*
X-100882Y361842D01*
X-100688Y362006D01*
X-100590Y362086D01*
X-100574Y362105D01*
X-100552Y362118D01*
X-99716Y362862D01*
X-99714Y362864D01*
X-99712Y362866D01*
X-99618Y362950D01*
X-99426Y363114D01*
X-99230Y363273D01*
X-99030Y363426D01*
X-98941Y363491D01*
X-98839Y363560D01*
X-98837Y363562D01*
X-98835Y363563D01*
X-98604Y363721D01*
X-98602Y363723D01*
X-98598Y363725D01*
X-98369Y363884D01*
X-98367Y363887D01*
X-98363Y363888D01*
X-98135Y364049D01*
X-98133Y364051D01*
X-98131Y364052D01*
X-98017Y364133D01*
X-98015Y364136D01*
X-98011Y364137D01*
X-97902Y364216D01*
X-97682Y364372D01*
X-97460Y364526D01*
X-97238Y364676D01*
X-97129Y364749D01*
X-97026Y364816D01*
X-96811Y364949D01*
X-96593Y365075D01*
X-96372Y365196D01*
X-96259Y365254D01*
X-96257Y365255D01*
X-96255Y365256D01*
X-96131Y365321D01*
X-96128Y365323D01*
X-96124Y365324D01*
X-95876Y365455D01*
X-95872Y365459D01*
X-95867Y365460D01*
X-95621Y365594D01*
X-95617Y365597D01*
X-95612Y365599D01*
X-95368Y365735D01*
X-95364Y365738D01*
X-95361Y365739D01*
X-95239Y365808D01*
X-95238Y365809D01*
X-95236Y365809D01*
X-95124Y365874D01*
X-94895Y365998D01*
X-94666Y366118D01*
X-94433Y366233D01*
X-94332Y366281D01*
X-94223Y366327D01*
X-93974Y366432D01*
X-93724Y366534D01*
X-93472Y366635D01*
X-93347Y366684D01*
X-93337Y366691D01*
X-93324Y366693D01*
X-92292Y367125D01*
X-92180Y367172D01*
X-91950Y367259D01*
X-91717Y367338D01*
X-91482Y367410D01*
X-91363Y367443D01*
X-91360Y367444D01*
X-91356Y367445D01*
X-91221Y367482D01*
X-91218Y367484D01*
X-91215Y367484D01*
X-90946Y367561D01*
X-90942Y367563D01*
X-90938Y367564D01*
X-90669Y367643D01*
X-90665Y367645D01*
X-90661Y367645D01*
X-90393Y367727D01*
X-90390Y367728D01*
X-90387Y367729D01*
X-90254Y367770D01*
X-90252Y367771D01*
X-90251Y367771D01*
X-90126Y367811D01*
X-89875Y367885D01*
X-89623Y367955D01*
X-89370Y368020D01*
X-89255Y368048D01*
X-89138Y368073D01*
X-88879Y368124D01*
X-88620Y368172D01*
X-88360Y368215D01*
X-88229Y368235D01*
X-88214Y368241D01*
X-88197Y368240D01*
X-87106Y368442D01*
X-86990Y368461D01*
X-86736Y368497D01*
X-86481Y368527D01*
X-86227Y368552D01*
X-86104Y368561D01*
X-84993Y368632D01*
X-84983Y368635D01*
X-84973Y368634D01*
X-84842Y368644D01*
X-84579Y368662D01*
X-84315Y368676D01*
X-84051Y368686D01*
X-83938Y368689D01*
X-83826Y368687D01*
D02*
G37*
G36*
X52711Y241932D02*
X52211Y241539D01*
X52195Y241727D01*
X52148Y241899D01*
X52069Y242055D01*
X51959Y242196D01*
X51818Y242320D01*
X51645Y242428D01*
X51441Y242521D01*
X51205Y242597D01*
X50938Y242658D01*
X50640Y242703D01*
X53363Y244611D01*
X52711Y241932D01*
D02*
G37*
G36*
X34562Y216643D02*
X34259Y216420D01*
X33750Y215993D01*
X33544Y215788D01*
X33369Y215589D01*
X33225Y215397D01*
X33114Y215210D01*
X33035Y215029D01*
X32987Y214855D01*
X32971Y214686D01*
X32471Y214766D01*
X32457Y214896D01*
X32416Y215050D01*
X32348Y215230D01*
X32252Y215435D01*
X32129Y215665D01*
X31802Y216201D01*
X31365Y216838D01*
X31105Y217194D01*
X34562Y216643D01*
D02*
G37*
G36*
X16641Y191706D02*
X16342Y191468D01*
X15839Y191015D01*
X15635Y190801D01*
X15462Y190595D01*
X15320Y190397D01*
X15210Y190207D01*
X15132Y190025D01*
X15085Y189852D01*
X15069Y189686D01*
X14569Y189746D01*
X14555Y189883D01*
X14513Y190042D01*
X14443Y190223D01*
X14344Y190427D01*
X14218Y190653D01*
X13881Y191173D01*
X13432Y191782D01*
X13165Y192120D01*
X16641Y191706D01*
D02*
G37*
G36*
X-1097Y167603D02*
X-1391Y167349D01*
X-1888Y166871D01*
X-2089Y166647D01*
X-2260Y166434D01*
X-2400Y166231D01*
X-2508Y166038D01*
X-2586Y165855D01*
X-2632Y165683D01*
X-2648Y165521D01*
X-3148Y165561D01*
X-3162Y165704D01*
X-3205Y165867D01*
X-3277Y166049D01*
X-3378Y166252D01*
X-3507Y166473D01*
X-3852Y166976D01*
X-4068Y167257D01*
X-4586Y167878D01*
X-1097Y167603D01*
D02*
G37*
G36*
X-63641Y150071D02*
X-63808Y150012D01*
X-63956Y149914D01*
X-64084Y149776D01*
X-64192Y149599D01*
X-64280Y149382D01*
X-64349Y149126D01*
X-64398Y148831D01*
X-64428Y148496D01*
X-64438Y148122D01*
X-66406D01*
X-66416Y148496D01*
X-66446Y148831D01*
X-66495Y149126D01*
X-66564Y149382D01*
X-66652Y149599D01*
X-66761Y149776D01*
X-66889Y149914D01*
X-67036Y150012D01*
X-67204Y150071D01*
X-67391Y150091D01*
X-63454D01*
X-63641Y150071D01*
D02*
G37*
G36*
X-17216Y144144D02*
X-17453Y143675D01*
X-17591Y143789D01*
X-17750Y143879D01*
X-17931Y143944D01*
X-18135Y143986D01*
X-18360Y144003D01*
X-18607Y143995D01*
X-18876Y143964D01*
X-19167Y143908D01*
X-19479Y143827D01*
X-19814Y143723D01*
X-18230Y146844D01*
X-17216Y144144D01*
D02*
G37*
G36*
X-213Y127145D02*
X-142Y127084D01*
X-71Y127031D01*
X-0Y126985D01*
X70Y126946D01*
X141Y126915D01*
X212Y126890D01*
X282Y126872D01*
X353Y126862D01*
X424Y126858D01*
X-677D01*
X-673Y126862D01*
X-677Y126872D01*
X-688Y126890D01*
X-708Y126915D01*
X-771Y126985D01*
X-990Y127212D01*
X-283D01*
X-213Y127145D01*
D02*
G37*
G36*
X-57085Y132045D02*
X-57043Y131767D01*
X-56973Y131488D01*
X-56876Y131210D01*
X-56751Y130931D01*
X-56598Y130653D01*
X-56417Y130375D01*
X-56208Y130096D01*
X-55971Y129818D01*
X-55707Y129540D01*
Y126756D01*
X-55726Y126761D01*
X-55771Y126766D01*
X-55943Y126774D01*
X-57099Y126784D01*
Y132323D01*
X-57085Y132045D01*
D02*
G37*
G36*
X-11122Y124883D02*
X-11127Y124931D01*
X-11142Y124973D01*
X-11167Y125011D01*
X-11202Y125043D01*
X-11247Y125071D01*
X-11302Y125093D01*
X-11367Y125111D01*
X-11442Y125123D01*
X-11527Y125131D01*
X-11622Y125133D01*
Y125633D01*
X-11527Y125636D01*
X-11442Y125643D01*
X-11367Y125656D01*
X-11302Y125673D01*
X-11247Y125696D01*
X-11202Y125723D01*
X-11167Y125756D01*
X-11142Y125793D01*
X-11127Y125836D01*
X-11122Y125883D01*
Y124883D01*
D02*
G37*
G36*
X-36717Y126611D02*
X-34628Y125645D01*
X-34537Y125633D01*
X-34380Y125133D01*
X-34558Y125117D01*
X-34734Y125068D01*
X-34909Y124986D01*
X-35083Y124872D01*
X-35256Y124725D01*
X-35428Y124545D01*
X-35599Y124333D01*
X-35769Y124088D01*
X-35937Y123810D01*
X-36105Y123500D01*
X-37148Y126841D01*
X-36717Y126611D01*
D02*
G37*
G36*
X-59403Y116021D02*
X-59339Y115412D01*
X-59282Y115174D01*
X-59209Y114981D01*
X-59120Y114832D01*
X-59015Y114728D01*
X-58894Y114669D01*
X-58756Y114654D01*
X-58602Y114684D01*
X-62364Y113476D01*
X-62177Y113556D01*
X-62010Y113669D01*
X-61862Y113814D01*
X-61734Y113993D01*
X-61626Y114205D01*
X-61537Y114450D01*
X-61468Y114728D01*
X-61419Y115039D01*
X-61390Y115383D01*
X-61380Y115761D01*
X-59411Y116393D01*
X-59403Y116021D01*
D02*
G37*
G36*
X-9392Y108970D02*
X-9369Y108659D01*
X-9355Y108572D01*
X-9338Y108494D01*
X-9318Y108424D01*
X-9295Y108362D01*
X-9268Y108309D01*
X-9239Y108264D01*
X-10249D01*
X-10220Y108309D01*
X-10193Y108362D01*
X-10170Y108424D01*
X-10150Y108494D01*
X-10133Y108572D01*
X-10119Y108659D01*
X-10100Y108858D01*
X-10094Y109091D01*
X-9394D01*
X-9392Y108970D01*
D02*
G37*
G36*
X29497Y108261D02*
X29492Y108299D01*
X29477Y108333D01*
X29452Y108363D01*
X29417Y108389D01*
X29372Y108411D01*
X29317Y108429D01*
X29252Y108443D01*
X29177Y108453D01*
X29092Y108459D01*
X28997Y108461D01*
Y108961D01*
X29092Y108963D01*
X29177Y108971D01*
X29252Y108983D01*
X29317Y109001D01*
X29372Y109023D01*
X29417Y109051D01*
X29452Y109083D01*
X29477Y109121D01*
X29492Y109163D01*
X29497Y109211D01*
Y108261D01*
D02*
G37*
G36*
X-35063Y107646D02*
X-35042Y107586D01*
X-35007Y107534D01*
X-34958Y107488D01*
X-34895Y107450D01*
X-34818Y107418D01*
X-34727Y107394D01*
X-34622Y107376D01*
X-34503Y107366D01*
X-34370Y107362D01*
Y106662D01*
X-34503Y106659D01*
X-34622Y106648D01*
X-34727Y106631D01*
X-34818Y106606D01*
X-34895Y106575D01*
X-34958Y106536D01*
X-35007Y106491D01*
X-35042Y106438D01*
X-35063Y106379D01*
X-35070Y106312D01*
Y107712D01*
X-35063Y107646D01*
D02*
G37*
G36*
X-49545Y109019D02*
X-49498Y108685D01*
X-49420Y108389D01*
X-49309Y108134D01*
X-49167Y107917D01*
X-48994Y107740D01*
X-48790Y107602D01*
X-48553Y107504D01*
X-48286Y107445D01*
X-47986Y107425D01*
X-50545Y105850D01*
X-53105Y107425D01*
X-52805Y107445D01*
X-52538Y107504D01*
X-52301Y107602D01*
X-52097Y107740D01*
X-51923Y107917D01*
X-51782Y108134D01*
X-51671Y108389D01*
X-51593Y108685D01*
X-51546Y109019D01*
X-51530Y109394D01*
X-49561D01*
X-49545Y109019D01*
D02*
G37*
G36*
X-56461Y108063D02*
X-56370Y107929D01*
X-56254Y107811D01*
X-56111Y107708D01*
X-55941Y107622D01*
X-55745Y107551D01*
X-55523Y107496D01*
X-55274Y107457D01*
X-54998Y107433D01*
X-54697Y107425D01*
X-54191Y105850D01*
X-54490Y105849D01*
X-55602Y105782D01*
X-55674Y105761D01*
X-55714Y105737D01*
X-55721Y105711D01*
X-56524Y108212D01*
X-56461Y108063D01*
D02*
G37*
G36*
X-44101Y105063D02*
X-44117Y105212D01*
X-44164Y105346D01*
X-44243Y105464D01*
X-44353Y105567D01*
X-44495Y105653D01*
X-44668Y105724D01*
X-44873Y105779D01*
X-45109Y105819D01*
X-45377Y105842D01*
X-45676Y105850D01*
Y107425D01*
X-45377Y107433D01*
X-45109Y107457D01*
X-44873Y107496D01*
X-44668Y107551D01*
X-44495Y107622D01*
X-44353Y107708D01*
X-44243Y107811D01*
X-44164Y107929D01*
X-44117Y108063D01*
X-44101Y108212D01*
Y105063D01*
D02*
G37*
G36*
X-48164Y104699D02*
X-45477Y103586D01*
X-44430Y103305D01*
Y101416D01*
X-44442Y101283D01*
X-44471Y101109D01*
X-44505Y100981D01*
X-44537Y100902D01*
X-44540Y100898D01*
X-44542Y100898D01*
X-45583D01*
Y95362D01*
X-45882Y95291D01*
Y92724D01*
X-44774D01*
Y91724D01*
X-45882D01*
Y89157D01*
X-43413D01*
Y90265D01*
X-42413D01*
Y89157D01*
X-39945D01*
Y91672D01*
X-40066Y91669D01*
X-40253Y91652D01*
X-40418Y91625D01*
X-40561Y91586D01*
X-40682Y91537D01*
X-40781Y91476D01*
X-40858Y91405D01*
X-40913Y91322D01*
X-40946Y91229D01*
X-40957Y91124D01*
Y91724D01*
X-41052D01*
Y92724D01*
X-40957D01*
Y93324D01*
X-40946Y93220D01*
X-40913Y93126D01*
X-40858Y93044D01*
X-40781Y92972D01*
X-40682Y92912D01*
X-40561Y92862D01*
X-40418Y92824D01*
X-40253Y92796D01*
X-40066Y92780D01*
X-39945Y92777D01*
Y93701D01*
X-32315D01*
X-32101Y93301D01*
X-32220Y93122D01*
X-32321Y92618D01*
X-32232Y92171D01*
X-32305Y91985D01*
X-32446Y91771D01*
X-32446Y91771D01*
X-32875Y91686D01*
X-33239Y91443D01*
X-33239Y91443D01*
X-42624Y82058D01*
X-42867Y81694D01*
X-42952Y81265D01*
X-42952Y81265D01*
Y68476D01*
X-47680Y63748D01*
X-47923Y63385D01*
X-48009Y62955D01*
X-48009Y62955D01*
Y52398D01*
X-48175Y52275D01*
X-48492Y52452D01*
X-48542Y52500D01*
Y56776D01*
X-48690Y57523D01*
X-49113Y58156D01*
X-49746Y58578D01*
X-50492Y58727D01*
X-51032Y58619D01*
X-51410Y58878D01*
X-51432Y58917D01*
Y81887D01*
X-50352Y82967D01*
X-49835Y83070D01*
X-49278Y83442D01*
X-48906Y84000D01*
X-48775Y84657D01*
Y90904D01*
X-48906Y91561D01*
X-49278Y92118D01*
X-51071Y93911D01*
X-51247Y94106D01*
X-51429Y94675D01*
X-51430Y94683D01*
X-51435Y94691D01*
X-52726Y98712D01*
X-58746Y96780D01*
X-57234Y92071D01*
X-55518Y92622D01*
X-55366Y92658D01*
X-55257Y92666D01*
X-55135Y92656D01*
X-54994Y92624D01*
X-54832Y92564D01*
X-54649Y92474D01*
X-54447Y92349D01*
X-54228Y92189D01*
X-54080Y92064D01*
X-52209Y90193D01*
Y85935D01*
X-52306Y85871D01*
X-54364Y83813D01*
X-54736Y83256D01*
X-54867Y82598D01*
Y57286D01*
X-54736Y56629D01*
X-54364Y56071D01*
X-53282Y54989D01*
X-53148Y54831D01*
X-52966Y54589D01*
X-52813Y54353D01*
X-52686Y54123D01*
X-52585Y53899D01*
X-52509Y53680D01*
X-52455Y53467D01*
X-52443Y53382D01*
Y52480D01*
X-52294Y51733D01*
X-52187Y51573D01*
X-52375Y51220D01*
X-56089D01*
X-56278Y51573D01*
X-56170Y51733D01*
X-56022Y52480D01*
Y56776D01*
X-56170Y57523D01*
X-56593Y58156D01*
X-57226Y58578D01*
X-57972Y58727D01*
X-58719Y58578D01*
X-59352Y58156D01*
X-59775Y57523D01*
X-59923Y56776D01*
Y52480D01*
X-59775Y51733D01*
X-59667Y51573D01*
X-59856Y51220D01*
X-61220D01*
X-61221Y51220D01*
X-61650Y51135D01*
X-62014Y50892D01*
X-70422Y42483D01*
X-70468Y42444D01*
X-70544Y42387D01*
X-70615Y42340D01*
X-70680Y42305D01*
X-70739Y42278D01*
X-70793Y42260D01*
X-70841Y42248D01*
X-70885Y42241D01*
X-70963Y42237D01*
X-70965Y42236D01*
X-70968Y42237D01*
X-70970Y42236D01*
X-74028D01*
Y36898D01*
X-72874D01*
Y31495D01*
X-72878Y31447D01*
X-72889Y31374D01*
X-72902Y31322D01*
X-72905Y31313D01*
X-73036Y31258D01*
X-73799Y30673D01*
X-74385Y29910D01*
X-74753Y29021D01*
X-75262Y27119D01*
X-75388Y26166D01*
X-75262Y25212D01*
X-74894Y24323D01*
X-74308Y23560D01*
X-73545Y22974D01*
X-72656Y22606D01*
X-71703Y22481D01*
X-70749Y22606D01*
X-69860Y22974D01*
X-69097Y23560D01*
X-68511Y24323D01*
X-68143Y25212D01*
X-67634Y27113D01*
X-67508Y28067D01*
X-67634Y29021D01*
X-68002Y29910D01*
X-68587Y30673D01*
X-69351Y31258D01*
X-70239Y31627D01*
X-70630Y31678D01*
Y36898D01*
X-69476D01*
Y39959D01*
X-69476Y39963D01*
X-69472Y40040D01*
X-69465Y40085D01*
X-69453Y40133D01*
X-69434Y40186D01*
X-69408Y40245D01*
X-69372Y40310D01*
X-69326Y40381D01*
X-69269Y40457D01*
X-69230Y40503D01*
X-68791Y40942D01*
X-68421Y40789D01*
Y40067D01*
X-67314D01*
Y39067D01*
X-68421D01*
Y36598D01*
X-66347D01*
Y37706D01*
X-65346D01*
Y36598D01*
X-63272D01*
Y39067D01*
X-64379D01*
Y40067D01*
X-63272D01*
Y41909D01*
X-62872Y42176D01*
X-62395Y41979D01*
X-61449D01*
X-60575Y42341D01*
X-60217Y42699D01*
X-59835Y42583D01*
X-59775Y42280D01*
X-59558Y41957D01*
X-59539Y41919D01*
X-59487Y41851D01*
X-59382Y41694D01*
X-59351Y41639D01*
X-59308Y41549D01*
X-59272Y41456D01*
X-59242Y41361D01*
X-59219Y41261D01*
X-59201Y41157D01*
X-59196Y41101D01*
Y39806D01*
X-59103Y39337D01*
X-58838Y38941D01*
X-56040Y36143D01*
X-55643Y35877D01*
X-55175Y35784D01*
X-51715D01*
Y32298D01*
X-57263Y26751D01*
X-57275Y26733D01*
X-57415Y26712D01*
X-57575Y26733D01*
X-57731Y26790D01*
X-57812Y26986D01*
X-58781Y26427D01*
X-59281Y27293D01*
X-58312Y27852D01*
X-58639Y28278D01*
X-59464Y28911D01*
X-60426Y29310D01*
X-61458Y29445D01*
X-62490Y29310D01*
X-62985Y29104D01*
X-62426Y28136D01*
X-63292Y27636D01*
X-63851Y28604D01*
X-64277Y28278D01*
X-64911Y27452D01*
X-65309Y26491D01*
X-65434Y26023D01*
X-64331Y25727D01*
X-64590Y24761D01*
X-65693Y25057D01*
X-65818Y24589D01*
X-65954Y23557D01*
X-65818Y22525D01*
X-65613Y22030D01*
X-64645Y22589D01*
X-64145Y21723D01*
X-65113Y21164D01*
X-64786Y20738D01*
X-63961Y20104D01*
X-62999Y19706D01*
X-61967Y19570D01*
X-60935Y19706D01*
X-60440Y19911D01*
X-60999Y20880D01*
X-60133Y21380D01*
X-59399Y20109D01*
X-59355Y20075D01*
X-59356Y20063D01*
X-59389Y19951D01*
X-59377Y19828D01*
X-59388Y19704D01*
X-59353Y19592D01*
X-59341Y19476D01*
X-58674Y17309D01*
X-58625Y17219D01*
X-58598Y17120D01*
X-58513Y17011D01*
X-58447Y16889D01*
X-58368Y16824D01*
X-58305Y16743D01*
X-58297Y16715D01*
X-58591Y16387D01*
X-74234Y21260D01*
X-77322Y24349D01*
Y43958D01*
X-67370Y53911D01*
X-67262Y54071D01*
X-67134Y54216D01*
X-67099Y54315D01*
X-67041Y54403D01*
X-67003Y54592D01*
X-66940Y54775D01*
X-64998Y68774D01*
X-65004Y68879D01*
X-64983Y68983D01*
X-65005Y69092D01*
X-65000Y69203D01*
X-66940Y82438D01*
X-64987Y83065D01*
X-65325Y84120D01*
X-64373Y84425D01*
X-64035Y83371D01*
X-61872Y84065D01*
X-62506Y86041D01*
X-63560Y85702D01*
X-63866Y86654D01*
X-62812Y86993D01*
X-63311Y88547D01*
X-62986Y88846D01*
X-62432Y88616D01*
X-61486D01*
X-60612Y88978D01*
X-60239Y89351D01*
X-59850Y89257D01*
X-59468Y88066D01*
X-58413Y88405D01*
X-58108Y87453D01*
X-59162Y87114D01*
X-58528Y85139D01*
X-56365Y85833D01*
X-56704Y86888D01*
X-55752Y87193D01*
X-55413Y86139D01*
X-53250Y86833D01*
X-53884Y88809D01*
X-54939Y88470D01*
X-55245Y89422D01*
X-54190Y89761D01*
X-54824Y91736D01*
X-56987Y91042D01*
X-56649Y89987D01*
X-57601Y89682D01*
X-57939Y90736D01*
X-59268Y90310D01*
X-59581Y90629D01*
Y91467D01*
X-59932Y92314D01*
X-60773Y91473D01*
X-61480Y92180D01*
X-60639Y93021D01*
X-61486Y93372D01*
X-61574D01*
X-61712Y93748D01*
X-61680Y93774D01*
X-61433Y94086D01*
X-61433Y94086D01*
X-61111Y94713D01*
X-61002Y95095D01*
X-60944Y95798D01*
X-60989Y96193D01*
X-60989Y96193D01*
X-61205Y96864D01*
X-61398Y97212D01*
X-61854Y97749D01*
X-62165Y97997D01*
X-62165Y97997D01*
X-62792Y98319D01*
X-63175Y98428D01*
X-63877Y98486D01*
X-64272Y98440D01*
X-64943Y98225D01*
X-65291Y98032D01*
X-65829Y97576D01*
X-66076Y97264D01*
X-66076Y97264D01*
X-66398Y96638D01*
X-66508Y96255D01*
X-66565Y95553D01*
X-66520Y95157D01*
X-66520Y95157D01*
X-66304Y94486D01*
X-66111Y94138D01*
X-65655Y93601D01*
X-65344Y93354D01*
X-65344Y93354D01*
X-64717Y93031D01*
X-64334Y92922D01*
X-63988Y92894D01*
X-63836Y92480D01*
X-63975Y92341D01*
X-64337Y91467D01*
Y90521D01*
X-63975Y89647D01*
X-63650Y89323D01*
X-63761Y88867D01*
X-65609Y88274D01*
X-65270Y87219D01*
X-66222Y86914D01*
X-66561Y87968D01*
X-67402Y87698D01*
X-67742Y87910D01*
X-68321Y91861D01*
X-67466Y98023D01*
X-60367Y103393D01*
X-60304Y103438D01*
X-60152Y103540D01*
X-55512Y105029D01*
X-55503Y105030D01*
X-55495Y105035D01*
X-55350Y105081D01*
X-54688Y105121D01*
X-51307D01*
X-51203Y105051D01*
X-50545Y104920D01*
X-49888Y105051D01*
X-49784Y105121D01*
X-48895D01*
X-48164Y104699D01*
D02*
G37*
G36*
X-60384Y104214D02*
X-60400Y104216D01*
X-60442Y104199D01*
X-60508Y104161D01*
X-60714Y104025D01*
X-61661Y103328D01*
X-62171Y104917D01*
X-61935Y105105D01*
X-61729Y105291D01*
X-61553Y105473D01*
X-61408Y105652D01*
X-61293Y105828D01*
X-61208Y106001D01*
X-61153Y106171D01*
X-61128Y106337D01*
X-61134Y106501D01*
X-61170Y106661D01*
X-60384Y104214D01*
D02*
G37*
G36*
X-41488Y105040D02*
X-41622Y104993D01*
X-41740Y104914D01*
X-41842Y104804D01*
X-41929Y104662D01*
X-42000Y104489D01*
X-42055Y104284D01*
X-42094Y104048D01*
X-42118Y103780D01*
X-42126Y103481D01*
X-43701D01*
X-43705Y103780D01*
X-43765Y104489D01*
X-43801Y104662D01*
X-43845Y104804D01*
X-43897Y104914D01*
X-43957Y104993D01*
X-44025Y105040D01*
X-44101Y105056D01*
X-41339D01*
X-41488Y105040D01*
D02*
G37*
G36*
X-42118Y101461D02*
X-42094Y101193D01*
X-42055Y100957D01*
X-42000Y100752D01*
X-41929Y100579D01*
X-41842Y100437D01*
X-41740Y100327D01*
X-41622Y100248D01*
X-41488Y100201D01*
X-41339Y100185D01*
X-44488D01*
X-44339Y100201D01*
X-44205Y100248D01*
X-44087Y100327D01*
X-43984Y100437D01*
X-43898Y100579D01*
X-43827Y100752D01*
X-43772Y100957D01*
X-43732Y101193D01*
X-43709Y101461D01*
X-43701Y101760D01*
X-42126D01*
X-42118Y101461D01*
D02*
G37*
G36*
X-40941Y100050D02*
X-40894Y99930D01*
X-40815Y99823D01*
X-40705Y99731D01*
X-40563Y99653D01*
X-40390Y99590D01*
X-40185Y99540D01*
X-39949Y99505D01*
X-39681Y99483D01*
X-39382Y99476D01*
Y97901D01*
X-39681Y97894D01*
X-39949Y97870D01*
X-40185Y97831D01*
X-40390Y97776D01*
X-40563Y97705D01*
X-40705Y97618D01*
X-40815Y97516D01*
X-40894Y97398D01*
X-40941Y97264D01*
X-40957Y97114D01*
Y100185D01*
X-40941Y100050D01*
D02*
G37*
G36*
X-31155Y95991D02*
X-31172Y95994D01*
X-31211Y95996D01*
X-32288Y96005D01*
Y97105D01*
X-31155Y97119D01*
Y95991D01*
D02*
G37*
G36*
X18379Y93060D02*
X18311Y93004D01*
X18250Y92947D01*
X18195Y92889D01*
X18146Y92831D01*
X18104Y92772D01*
X18068Y92712D01*
X18038Y92652D01*
X18014Y92591D01*
X17996Y92529D01*
X17985Y92467D01*
X17352Y93202D01*
X17431Y93204D01*
X17509Y93212D01*
X17585Y93224D01*
X17659Y93242D01*
X17731Y93264D01*
X17802Y93291D01*
X17870Y93324D01*
X17937Y93361D01*
X18003Y93403D01*
X18066Y93450D01*
X18379Y93060D01*
D02*
G37*
G36*
X-52176Y94426D02*
X-52205Y94361D01*
X-52198Y94272D01*
X-52155Y94157D01*
X-52075Y94017D01*
X-51960Y93852D01*
X-51808Y93661D01*
X-51396Y93205D01*
X-51135Y92939D01*
X-53243Y92263D01*
X-53518Y92524D01*
X-53786Y92750D01*
X-54047Y92942D01*
X-54302Y93099D01*
X-54550Y93222D01*
X-54791Y93310D01*
X-55026Y93364D01*
X-55253Y93383D01*
X-55474Y93367D01*
X-55688Y93316D01*
X-52111Y94465D01*
X-52176Y94426D01*
D02*
G37*
G36*
X-31296Y90144D02*
X-31330Y90164D01*
X-31377Y90182D01*
X-31437Y90198D01*
X-31510Y90212D01*
X-31697Y90233D01*
X-31935Y90245D01*
X-32226Y90250D01*
Y91050D01*
X-32074Y91051D01*
X-31510Y91088D01*
X-31437Y91101D01*
X-31377Y91117D01*
X-31330Y91135D01*
X-31296Y91155D01*
Y90144D01*
D02*
G37*
G36*
X29497Y86334D02*
X29495Y86336D01*
X29487Y86338D01*
X29474Y86340D01*
X29432Y86343D01*
X29235Y86346D01*
Y86846D01*
X29497Y86858D01*
Y86334D01*
D02*
G37*
G36*
X17897Y87048D02*
X17943Y87006D01*
X17994Y86968D01*
X18049Y86936D01*
X18110Y86908D01*
X18176Y86886D01*
X18246Y86868D01*
X18322Y86856D01*
X18402Y86848D01*
X18487Y86846D01*
X18369Y86346D01*
X18277Y86344D01*
X18036Y86324D01*
X17967Y86311D01*
X17905Y86296D01*
X17848Y86278D01*
X17797Y86257D01*
X17752Y86234D01*
X17713Y86207D01*
X17856Y87096D01*
X17897Y87048D01*
D02*
G37*
G36*
X-31296Y80302D02*
X-31341Y80331D01*
X-31395Y80358D01*
X-31459Y80381D01*
X-31532Y80401D01*
X-31614Y80418D01*
X-31706Y80432D01*
X-31917Y80451D01*
X-32165Y80457D01*
Y81157D01*
X-32036Y81159D01*
X-31706Y81182D01*
X-31614Y81196D01*
X-31532Y81213D01*
X-31459Y81233D01*
X-31395Y81257D01*
X-31341Y81283D01*
X-31296Y81313D01*
Y80302D01*
D02*
G37*
G36*
X17758Y75377D02*
X17813Y75351D01*
X17876Y75328D01*
X17949Y75308D01*
X18032Y75290D01*
X18123Y75276D01*
X18334Y75258D01*
X18582Y75252D01*
Y74552D01*
X18453Y74550D01*
X18123Y74527D01*
X18032Y74513D01*
X17949Y74496D01*
X17876Y74476D01*
X17813Y74452D01*
X17758Y74426D01*
X17713Y74396D01*
Y75407D01*
X17758Y75377D01*
D02*
G37*
G36*
X41884Y72922D02*
X41877Y72988D01*
X41856Y73048D01*
X41821Y73101D01*
X41772Y73146D01*
X41709Y73185D01*
X41632Y73216D01*
X41541Y73241D01*
X41436Y73258D01*
X41317Y73269D01*
X41184Y73272D01*
Y73972D01*
X41317Y73975D01*
X41436Y73986D01*
X41541Y74003D01*
X41632Y74028D01*
X41709Y74060D01*
X41772Y74098D01*
X41821Y74144D01*
X41856Y74196D01*
X41877Y74256D01*
X41884Y74322D01*
Y72922D01*
D02*
G37*
G36*
X17747Y73418D02*
X17794Y73400D01*
X17854Y73385D01*
X17928Y73371D01*
X18114Y73350D01*
X18352Y73337D01*
X18644Y73333D01*
Y72533D01*
X18492Y72532D01*
X17928Y72495D01*
X17854Y72481D01*
X17794Y72466D01*
X17747Y72448D01*
X17713Y72428D01*
Y73438D01*
X17747Y73418D01*
D02*
G37*
G36*
X26568Y72453D02*
X26412Y72445D01*
X26256Y72422D01*
X26101Y72383D01*
X25945Y72329D01*
X25790Y72259D01*
X25634Y72173D01*
X25479Y72072D01*
X25323Y71955D01*
X25168Y71823D01*
X25012Y71675D01*
X24333Y72551D01*
X24480Y72707D01*
X24613Y72862D01*
X24729Y73018D01*
X24830Y73174D01*
X24916Y73329D01*
X24986Y73485D01*
X25041Y73640D01*
X25079Y73796D01*
X25103Y73952D01*
X25111Y74107D01*
X26568Y72453D01*
D02*
G37*
G36*
X17590Y71526D02*
X17628Y71523D01*
X18705Y71515D01*
Y70415D01*
X17572Y70401D01*
Y71528D01*
X17590Y71526D01*
D02*
G37*
G36*
X25111Y69549D02*
X26117Y69553D01*
Y68439D01*
X26100Y68440D01*
X26051Y68441D01*
X25111Y68444D01*
Y67896D01*
X25099Y68001D01*
X25067Y68094D01*
X25011Y68177D01*
X24935Y68248D01*
X24836Y68309D01*
X24714Y68358D01*
X24571Y68397D01*
X24407Y68424D01*
X24219Y68441D01*
X24011Y68446D01*
Y69546D01*
X24219Y69552D01*
X24407Y69568D01*
X24571Y69596D01*
X24714Y69634D01*
X24836Y69684D01*
X24935Y69744D01*
X25011Y69816D01*
X25067Y69898D01*
X25099Y69992D01*
X25111Y70096D01*
Y69549D01*
D02*
G37*
G36*
X17590Y69557D02*
X17628Y69555D01*
X18705Y69546D01*
Y68446D01*
X17572Y68432D01*
Y69560D01*
X17590Y69557D01*
D02*
G37*
G36*
X-28855Y68408D02*
X-28940Y68396D01*
X-29025Y68374D01*
X-29110Y68345D01*
X-29195Y68306D01*
X-29280Y68260D01*
X-29364Y68205D01*
X-29449Y68141D01*
X-29534Y68069D01*
X-29619Y67988D01*
X-30468D01*
X-30391Y68069D01*
X-30332Y68141D01*
X-30289Y68205D01*
X-30264Y68260D01*
X-30255Y68306D01*
X-30264Y68345D01*
X-30289Y68374D01*
X-30332Y68396D01*
X-30391Y68408D01*
X-30468Y68413D01*
X-28770D01*
X-28855Y68408D01*
D02*
G37*
G36*
X44396Y65484D02*
X44328Y65460D01*
X44268Y65420D01*
X44216Y65364D01*
X44172Y65292D01*
X44136Y65204D01*
X44108Y65100D01*
X44088Y64980D01*
X44076Y64844D01*
X44072Y64692D01*
X43272D01*
X43268Y64844D01*
X43256Y64980D01*
X43236Y65100D01*
X43208Y65204D01*
X43172Y65292D01*
X43128Y65364D01*
X43076Y65420D01*
X43016Y65460D01*
X42948Y65484D01*
X42872Y65492D01*
X44472D01*
X44396Y65484D01*
D02*
G37*
G36*
X-22124Y59434D02*
X-22146Y59547D01*
X-22179Y59634D01*
X-22223Y59696D01*
X-22279Y59732D01*
X-22345Y59743D01*
X-22423Y59729D01*
X-22512Y59690D01*
X-22612Y59625D01*
X-22723Y59535D01*
X-22846Y59420D01*
Y60834D01*
X-22711Y60975D01*
X-22591Y61117D01*
X-22485Y61258D01*
X-22393Y61400D01*
X-22316Y61541D01*
X-22252Y61682D01*
X-22202Y61824D01*
X-22167Y61965D01*
X-22146Y62107D01*
X-22139Y62248D01*
X-22124Y59434D01*
D02*
G37*
G36*
X4511Y59210D02*
X4485Y59156D01*
X4462Y59092D01*
X4441Y59019D01*
X4424Y58937D01*
X4410Y58846D01*
X4392Y58635D01*
X4385Y58387D01*
X3685D01*
X3684Y58515D01*
X3661Y58846D01*
X3647Y58937D01*
X3630Y59019D01*
X3609Y59092D01*
X3586Y59156D01*
X3560Y59210D01*
X3530Y59255D01*
X4541D01*
X4511Y59210D01*
D02*
G37*
G36*
X574Y59210D02*
X548Y59156D01*
X525Y59092D01*
X504Y59019D01*
X487Y58937D01*
X473Y58846D01*
X455Y58635D01*
X448Y58387D01*
X-252D01*
X-253Y58515D01*
X-276Y58846D01*
X-290Y58937D01*
X-307Y59019D01*
X-328Y59092D01*
X-351Y59156D01*
X-377Y59210D01*
X-407Y59255D01*
X604D01*
X574Y59210D01*
D02*
G37*
G36*
X-1394D02*
X-1421Y59156D01*
X-1444Y59092D01*
X-1464Y59019D01*
X-1481Y58937D01*
X-1495Y58846D01*
X-1514Y58635D01*
X-1520Y58387D01*
X-2220D01*
X-2222Y58515D01*
X-2245Y58846D01*
X-2259Y58937D01*
X-2276Y59019D01*
X-2296Y59092D01*
X-2320Y59156D01*
X-2346Y59210D01*
X-2376Y59255D01*
X-1365D01*
X-1394Y59210D01*
D02*
G37*
G36*
X-15174D02*
X-15200Y59156D01*
X-15224Y59092D01*
X-15244Y59019D01*
X-15261Y58937D01*
X-15275Y58846D01*
X-15293Y58635D01*
X-15300Y58387D01*
X-16000D01*
X-16001Y58515D01*
X-16025Y58846D01*
X-16038Y58937D01*
X-16056Y59019D01*
X-16076Y59092D01*
X-16099Y59156D01*
X-16126Y59210D01*
X-16155Y59255D01*
X-15144D01*
X-15174Y59210D01*
D02*
G37*
G36*
X-20062Y93528D02*
X-17380Y93073D01*
X-15158Y92948D01*
X-14665Y92916D01*
X-12920D01*
X-12085Y91666D01*
X-10332Y89668D01*
X-8334Y87915D01*
X-6822Y86905D01*
X-6835Y86713D01*
X-6661Y84060D01*
X-6143Y81454D01*
X-5288Y78937D01*
X-4113Y76553D01*
X-2636Y74343D01*
X-883Y72345D01*
X1115Y70592D01*
X3325Y69116D01*
X5708Y67940D01*
X8225Y67086D01*
X9800Y66773D01*
Y64942D01*
X32543D01*
Y64574D01*
X32894Y63727D01*
X33735Y64568D01*
X34442Y63861D01*
X33601Y63020D01*
X34448Y62669D01*
X35394D01*
X36268Y63031D01*
X36666Y63429D01*
X37181Y63402D01*
X37264Y63307D01*
X37264Y63306D01*
Y56515D01*
X37216Y56488D01*
X36864Y56411D01*
X36436Y56969D01*
X35796Y57460D01*
X35051Y57769D01*
X34251Y57874D01*
X29527D01*
X28727Y57769D01*
X27982Y57460D01*
X27343Y56969D01*
X26852Y56330D01*
X26543Y55584D01*
X26438Y54785D01*
Y50060D01*
X26543Y49261D01*
X26852Y48516D01*
X27343Y47876D01*
X27982Y47385D01*
X28727Y47076D01*
X29527Y46971D01*
X30666D01*
Y46192D01*
X25857D01*
X25704Y46562D01*
X25854Y46712D01*
X26171Y47476D01*
Y48303D01*
X25854Y49067D01*
X25269Y49652D01*
X24506Y49968D01*
X24336D01*
X24216Y49986D01*
X23947Y50042D01*
X23849Y50070D01*
X23757Y50103D01*
X23679Y50136D01*
X23615Y50169D01*
X23563Y50200D01*
X23541Y50217D01*
X21722Y52036D01*
X21374Y52269D01*
X20965Y52350D01*
X14026D01*
X8431Y57945D01*
X8557Y58385D01*
X8903Y58616D01*
X9189Y59043D01*
X9289Y59547D01*
Y63484D01*
X9189Y63988D01*
X8903Y64415D01*
X8476Y64701D01*
X7972Y64801D01*
X7469Y64701D01*
X7300Y64588D01*
X6988Y64441D01*
X6676Y64588D01*
X6508Y64701D01*
X6004Y64801D01*
X5500Y64701D01*
X5332Y64588D01*
X5020Y64441D01*
X4707Y64588D01*
X4539Y64701D01*
X4035Y64801D01*
X3532Y64701D01*
X3363Y64588D01*
X2998Y64415D01*
X2571Y64701D01*
X2067Y64801D01*
X1563Y64701D01*
X1395Y64588D01*
X1083Y64441D01*
X771Y64588D01*
X602Y64701D01*
X98Y64801D01*
X-405Y64701D01*
X-833Y64415D01*
X-939D01*
X-1366Y64701D01*
X-1870Y64801D01*
X-2374Y64701D01*
X-2542Y64588D01*
X-2854Y64441D01*
X-3167Y64588D01*
X-3335Y64701D01*
X-3839Y64801D01*
X-4343Y64701D01*
X-4511Y64588D01*
X-4823Y64441D01*
X-5135Y64588D01*
X-5303Y64701D01*
X-5807Y64801D01*
X-6311Y64701D01*
X-6738Y64415D01*
X-7104Y64588D01*
X-7272Y64701D01*
X-7776Y64801D01*
X-8280Y64701D01*
X-8448Y64588D01*
X-8760Y64441D01*
X-9072Y64588D01*
X-9240Y64701D01*
X-9744Y64801D01*
X-10248Y64701D01*
X-10416Y64588D01*
X-10782Y64415D01*
X-11209Y64701D01*
X-11713Y64801D01*
X-12217Y64701D01*
X-12385Y64588D01*
X-12697Y64441D01*
X-13009Y64588D01*
X-13177Y64701D01*
X-13681Y64801D01*
X-14185Y64701D01*
X-14353Y64588D01*
X-14665Y64441D01*
X-14978Y64588D01*
X-15146Y64701D01*
X-15650Y64801D01*
X-16153Y64701D01*
X-16198Y64671D01*
X-16599Y64884D01*
Y65453D01*
X-16676Y65843D01*
X-16897Y66174D01*
X-18783Y68059D01*
X-19114Y68281D01*
X-19504Y68358D01*
X-24197D01*
X-24587Y68281D01*
X-24918Y68059D01*
X-26210Y66768D01*
X-27953D01*
X-28343Y66690D01*
X-28674Y66469D01*
X-38768Y56374D01*
X-39138Y56527D01*
Y57452D01*
X-29030Y67560D01*
X-29003Y67582D01*
X-28955Y67619D01*
X-28912Y67646D01*
X-28875Y67667D01*
X-28847Y67679D01*
X-27067D01*
X-26563Y67780D01*
X-26136Y68065D01*
X-25850Y68492D01*
X-25750Y68996D01*
X-25850Y69500D01*
X-25963Y69668D01*
X-26111Y69980D01*
X-25963Y70293D01*
X-25850Y70461D01*
X-25750Y70965D01*
X-25850Y71468D01*
X-25963Y71637D01*
X-26111Y71949D01*
X-25963Y72261D01*
X-25850Y72429D01*
X-25750Y72933D01*
X-25850Y73437D01*
X-26136Y73864D01*
Y73971D01*
X-25850Y74398D01*
X-25750Y74902D01*
X-25850Y75405D01*
X-25963Y75574D01*
X-26111Y75886D01*
X-25963Y76198D01*
X-25850Y76366D01*
X-25750Y76870D01*
X-25850Y77374D01*
X-26136Y77801D01*
Y77908D01*
X-25850Y78335D01*
X-25750Y78839D01*
X-25850Y79342D01*
X-25963Y79511D01*
X-26111Y79823D01*
X-25963Y80135D01*
X-25850Y80303D01*
X-25750Y80807D01*
X-25850Y81311D01*
X-25963Y81479D01*
X-26111Y81791D01*
X-25963Y82104D01*
X-25850Y82272D01*
X-25750Y82776D01*
X-25850Y83279D01*
X-25963Y83448D01*
X-26111Y83760D01*
X-25963Y84072D01*
X-25850Y84240D01*
X-25750Y84744D01*
X-25850Y85248D01*
X-26136Y85675D01*
Y85782D01*
X-25850Y86209D01*
X-25750Y86713D01*
X-25850Y87217D01*
X-26136Y87644D01*
Y87750D01*
X-25850Y88177D01*
X-25750Y88681D01*
X-25850Y89185D01*
X-25963Y89353D01*
X-26111Y89665D01*
X-25963Y89978D01*
X-25850Y90146D01*
X-25750Y90650D01*
X-25850Y91154D01*
X-25963Y91322D01*
X-26111Y91634D01*
X-25963Y91946D01*
X-25850Y92114D01*
X-25750Y92618D01*
X-25850Y93122D01*
X-25970Y93301D01*
X-25756Y93701D01*
X-20659D01*
X-20062Y93528D01*
D02*
G37*
G36*
X-3474Y56037D02*
X-3562Y55963D01*
X-3643Y55879D01*
X-3717Y55785D01*
X-3785Y55680D01*
X-3845Y55566D01*
X-3899Y55441D01*
X-3946Y55306D01*
X-3985Y55161D01*
X-4018Y55005D01*
X-4044Y54840D01*
X-5203Y56382D01*
X-5037Y56361D01*
X-4878Y56349D01*
X-4728Y56347D01*
X-4585Y56354D01*
X-4450Y56371D01*
X-4323Y56397D01*
X-4204Y56433D01*
X-4093Y56478D01*
X-3990Y56533D01*
X-3894Y56597D01*
X-3474Y56037D01*
D02*
G37*
G36*
X-24173Y58082D02*
X-24294Y57932D01*
X-24400Y57776D01*
X-24491Y57614D01*
X-24569Y57446D01*
X-24633Y57272D01*
X-24682Y57093D01*
X-24718Y56908D01*
X-24739Y56716D01*
X-24746Y56519D01*
X-25599Y55667D01*
X-24746Y55634D01*
X-24742Y55502D01*
X-24728Y55374D01*
X-24706Y55251D01*
X-24674Y55131D01*
X-24634Y55014D01*
X-24584Y54902D01*
X-24526Y54794D01*
X-24458Y54690D01*
X-24382Y54589D01*
X-24296Y54492D01*
X-26224Y54561D01*
X-26133Y54651D01*
X-26052Y54745D01*
X-25980Y54844D01*
X-25918Y54948D01*
X-25866Y55057D01*
X-25822Y55171D01*
X-25789Y55289D01*
X-25765Y55412D01*
X-25751Y55540D01*
X-25749Y55593D01*
X-25753Y55702D01*
X-25774Y55851D01*
X-25810Y55966D01*
X-25859Y56046D01*
X-25923Y56093D01*
X-26001Y56105D01*
X-26092Y56083D01*
X-26199Y56027D01*
X-26319Y55936D01*
X-26453Y55812D01*
X-25600Y58080D01*
X-24039Y58226D01*
X-24173Y58082D01*
D02*
G37*
G36*
X3509Y54962D02*
X3582Y54900D01*
X3651Y54848D01*
X3719Y54806D01*
X3784Y54773D01*
X3847Y54749D01*
X3908Y54734D01*
X3967Y54729D01*
X4024Y54734D01*
X4078Y54747D01*
X3225Y53895D01*
X3239Y53949D01*
X3243Y54005D01*
X3238Y54064D01*
X3224Y54125D01*
X3200Y54188D01*
X3167Y54254D01*
X3124Y54321D01*
X3072Y54391D01*
X3011Y54463D01*
X2940Y54537D01*
X3435Y55032D01*
X3509Y54962D01*
D02*
G37*
G36*
X-52334Y57876D02*
X-52208Y57792D01*
X-52075Y57728D01*
X-51936Y57687D01*
X-51790Y57666D01*
X-51638Y57667D01*
X-51480Y57690D01*
X-51315Y57733D01*
X-51143Y57798D01*
X-50965Y57885D01*
X-51698Y53050D01*
X-51712Y53329D01*
X-51754Y53607D01*
X-51823Y53885D01*
X-51921Y54164D01*
X-52046Y54442D01*
X-52199Y54721D01*
X-52380Y54999D01*
X-52589Y55277D01*
X-52826Y55556D01*
X-53090Y55834D01*
X-52454Y57982D01*
X-52334Y57876D01*
D02*
G37*
G36*
X-22486Y58616D02*
X-22059Y58331D01*
X-21555Y58231D01*
X-21051Y58331D01*
X-20799Y58499D01*
X-20733Y58400D01*
X-20207Y58049D01*
X-19587Y57925D01*
X-18966Y58049D01*
X-18440Y58400D01*
X-18374Y58499D01*
X-18122Y58331D01*
X-17618Y58231D01*
X-17435Y58267D01*
X-17238Y57898D01*
X-25423Y49713D01*
X-25459Y49682D01*
X-25522Y49635D01*
X-25578Y49599D01*
X-25629Y49571D01*
X-25674Y49550D01*
X-25713Y49537D01*
X-25747Y49528D01*
X-25777Y49524D01*
X-25841Y49520D01*
X-25844Y49520D01*
X-29047D01*
Y44969D01*
X-23709D01*
Y48172D01*
X-23708Y48175D01*
X-23705Y48239D01*
X-23700Y48269D01*
X-23692Y48303D01*
X-23678Y48342D01*
X-23658Y48386D01*
X-23630Y48437D01*
X-23593Y48494D01*
X-23546Y48556D01*
X-23515Y48593D01*
X-14893Y57215D01*
X-14893Y57215D01*
X-14660Y57563D01*
X-14227Y57693D01*
X-9173Y52640D01*
X-9326Y52270D01*
X-11445D01*
Y52270D01*
X-11587D01*
Y52270D01*
X-12162D01*
Y52276D01*
X-12256Y52744D01*
X-12432Y53008D01*
Y53814D01*
X-12748Y54578D01*
X-13333Y55163D01*
X-14097Y55479D01*
X-14924D01*
X-15688Y55163D01*
X-16273Y54578D01*
X-16589Y53814D01*
Y52987D01*
X-16430Y52603D01*
X-16652Y52270D01*
X-18925D01*
Y47041D01*
X-18197D01*
Y41542D01*
X-18925D01*
Y39998D01*
X-23522D01*
X-23546Y40026D01*
X-23593Y40088D01*
X-23630Y40145D01*
X-23658Y40196D01*
X-23678Y40241D01*
X-23692Y40280D01*
X-23700Y40314D01*
X-23705Y40344D01*
X-23708Y40408D01*
X-23709Y40411D01*
Y43614D01*
X-29047D01*
Y39063D01*
X-25844D01*
X-25841Y39062D01*
X-25777Y39059D01*
X-25747Y39055D01*
X-25713Y39046D01*
X-25674Y39032D01*
X-25629Y39012D01*
X-25578Y38984D01*
X-25522Y38947D01*
X-25459Y38901D01*
X-25423Y38870D01*
X-24724Y38170D01*
X-24376Y37938D01*
X-23967Y37857D01*
X-18925D01*
Y36313D01*
X-18196D01*
Y36172D01*
X-18115Y35762D01*
X-17883Y35415D01*
X-17132Y34664D01*
X-17285Y34294D01*
X-25987D01*
X-26053Y34300D01*
X-26071Y34303D01*
Y35248D01*
X-31409D01*
Y30697D01*
X-26071D01*
Y31839D01*
X-26053Y31842D01*
X-25987Y31847D01*
X-22328D01*
X-22250Y31618D01*
X-21324Y30692D01*
X-22031Y29985D01*
X-22835Y30789D01*
X-22972Y30610D01*
X-23252Y29936D01*
X-23347Y29213D01*
Y27547D01*
X-22215D01*
Y26547D01*
X-23347D01*
Y24882D01*
X-23252Y24158D01*
X-22972Y23484D01*
X-22835Y23305D01*
X-22031Y24110D01*
X-21324Y23403D01*
X-22128Y22598D01*
X-21949Y22461D01*
X-21275Y22182D01*
X-20551Y22086D01*
X-19828Y22182D01*
X-19153Y22461D01*
X-18974Y22598D01*
X-19779Y23403D01*
X-19072Y24110D01*
X-18267Y23305D01*
X-18130Y23484D01*
X-17851Y24158D01*
X-17756Y24882D01*
Y26087D01*
X-17221D01*
X-16999Y25754D01*
X-17083Y25552D01*
Y24684D01*
X-16778Y23949D01*
X-15936Y24791D01*
X-15229Y24084D01*
X-16071Y23242D01*
X-15335Y22937D01*
X-14468D01*
X-13712Y23250D01*
X-13652Y23266D01*
X-13208Y23161D01*
X-13069Y22953D01*
X-12459Y22343D01*
X-13302Y21499D01*
X-27268D01*
X-29891Y24123D01*
X-29738Y24492D01*
X-29240D01*
Y25600D01*
X-28240D01*
Y24492D01*
X-25772D01*
Y26567D01*
X-26879D01*
Y27567D01*
X-25772D01*
Y29642D01*
X-28240D01*
Y28534D01*
X-29240D01*
Y29642D01*
X-31709D01*
Y27567D01*
X-30601D01*
Y26567D01*
X-31709D01*
Y26463D01*
X-32078Y26310D01*
X-34111Y28343D01*
Y47131D01*
X-27744Y53499D01*
X-27374Y53346D01*
Y53130D01*
X-27057Y52366D01*
X-26473Y51781D01*
X-25709Y51465D01*
X-24882D01*
X-24118Y51781D01*
X-23533Y52366D01*
X-23216Y53130D01*
Y53957D01*
X-23533Y54721D01*
X-23737Y54925D01*
X-23761Y54966D01*
X-23829Y55042D01*
X-23873Y55100D01*
X-23910Y55158D01*
X-23942Y55217D01*
X-23968Y55277D01*
X-23990Y55339D01*
X-24008Y55405D01*
X-24020Y55476D01*
X-24023Y55497D01*
Y56694D01*
X-24011Y56801D01*
X-23986Y56931D01*
X-23952Y57054D01*
X-23909Y57172D01*
X-23856Y57287D01*
X-23792Y57398D01*
X-23718Y57507D01*
X-23651Y57591D01*
X-22613Y58629D01*
X-22486Y58616D01*
D02*
G37*
G36*
X-12884Y52139D02*
X-12866Y51909D01*
X-12851Y51816D01*
X-12831Y51737D01*
X-12807Y51672D01*
X-12779Y51622D01*
X-12746Y51586D01*
X-12709Y51565D01*
X-12667Y51557D01*
X-14104D01*
X-14063Y51565D01*
X-14026Y51586D01*
X-13993Y51622D01*
X-13964Y51672D01*
X-13940Y51737D01*
X-13921Y51816D01*
X-13905Y51909D01*
X-13895Y52017D01*
X-13886Y52276D01*
X-12886D01*
X-12884Y52139D01*
D02*
G37*
G36*
X-32763Y53531D02*
X-32802Y53450D01*
X-32819Y53361D01*
X-32816Y53266D01*
X-32791Y53163D01*
X-32745Y53054D01*
X-32678Y52937D01*
X-32590Y52813D01*
X-32480Y52682D01*
X-32414Y52613D01*
X-32308Y52517D01*
X-32166Y52418D01*
X-32025Y52348D01*
X-31883Y52305D01*
X-31742Y52291D01*
X-31601Y52305D01*
X-31459Y52348D01*
X-31318Y52418D01*
X-31176Y52517D01*
X-31035Y52644D01*
X-31389Y50877D01*
X-33156Y50523D01*
X-33029Y50665D01*
X-32930Y50806D01*
X-32859Y50947D01*
X-32817Y51089D01*
X-32803Y51230D01*
X-32817Y51372D01*
X-32859Y51513D01*
X-32930Y51655D01*
X-33029Y51796D01*
X-33125Y51902D01*
X-33194Y51968D01*
X-33325Y52078D01*
X-33449Y52166D01*
X-33565Y52233D01*
X-33675Y52279D01*
X-33777Y52304D01*
X-33873Y52308D01*
X-33961Y52290D01*
X-34043Y52251D01*
X-34117Y52191D01*
X-32703Y53605D01*
X-32763Y53531D01*
D02*
G37*
G36*
X38791Y49367D02*
X38808Y49247D01*
X38837Y49128D01*
X38876Y49010D01*
X38927Y48894D01*
X38989Y48778D01*
X39062Y48663D01*
X39147Y48550D01*
X39243Y48438D01*
X39350Y48327D01*
X37421D01*
X37528Y48438D01*
X37624Y48550D01*
X37709Y48663D01*
X37783Y48778D01*
X37845Y48894D01*
X37896Y49010D01*
X37935Y49128D01*
X37963Y49247D01*
X37980Y49367D01*
X37986Y49488D01*
X38786D01*
X38791Y49367D01*
D02*
G37*
G36*
X-23926Y49201D02*
X-24021Y49102D01*
X-24105Y49003D01*
X-24179Y48904D01*
X-24243Y48805D01*
X-24298Y48706D01*
X-24342Y48607D01*
X-24377Y48508D01*
X-24402Y48409D01*
X-24417Y48310D01*
X-24421Y48211D01*
X-25805Y48807D01*
X-25706Y48812D01*
X-25607Y48827D01*
X-25508Y48851D01*
X-25409Y48886D01*
X-25310Y48931D01*
X-25211Y48985D01*
X-25112Y49049D01*
X-25013Y49124D01*
X-24914Y49208D01*
X-24815Y49302D01*
X-23926Y49201D01*
D02*
G37*
G36*
X23070Y49677D02*
X23162Y49609D01*
X23264Y49546D01*
X23376Y49488D01*
X23498Y49436D01*
X23631Y49389D01*
X23774Y49348D01*
X24091Y49282D01*
X24264Y49256D01*
X22729Y48089D01*
X22747Y48247D01*
X22754Y48398D01*
X22751Y48541D01*
X22737Y48677D01*
X22712Y48804D01*
X22676Y48924D01*
X22629Y49036D01*
X22572Y49140D01*
X22503Y49237D01*
X22424Y49325D01*
X22989Y49751D01*
X23070Y49677D01*
D02*
G37*
G36*
X12622Y49722D02*
X12719Y49654D01*
X12823Y49599D01*
X12933Y49556D01*
X13050Y49526D01*
X13174Y49508D01*
X13304Y49503D01*
X13441Y49510D01*
X13584Y49531D01*
X13734Y49564D01*
X12733Y47914D01*
X12689Y48091D01*
X12539Y48555D01*
X12484Y48687D01*
X12364Y48918D01*
X12300Y49018D01*
X12233Y49106D01*
X12163Y49183D01*
X12532Y49803D01*
X12622Y49722D01*
D02*
G37*
G36*
X-47151Y48588D02*
X-47144Y48525D01*
X-47131Y48470D01*
X-47114Y48423D01*
X-47092Y48382D01*
X-47065Y48350D01*
X-47033Y48324D01*
X-46996Y48307D01*
X-46954Y48296D01*
X-46907Y48294D01*
X-47975Y47751D01*
X-47952Y47789D01*
X-47932Y47838D01*
X-47913Y47900D01*
X-47897Y47973D01*
X-47884Y48058D01*
X-47864Y48263D01*
X-47855Y48514D01*
X-47853Y48658D01*
X-47153D01*
X-47151Y48588D01*
D02*
G37*
G36*
X-2449Y47431D02*
X-2456Y47498D01*
X-2477Y47557D01*
X-2512Y47610D01*
X-2561Y47655D01*
X-2624Y47694D01*
X-2701Y47725D01*
X-2792Y47750D01*
X-2897Y47767D01*
X-3016Y47778D01*
X-3149Y47781D01*
Y48481D01*
X-3016Y48484D01*
X-2897Y48494D01*
X-2792Y48510D01*
X-2701Y48533D01*
X-2624Y48562D01*
X-2561Y48598D01*
X-2512Y48641D01*
X-2477Y48690D01*
X-2456Y48745D01*
X-2449Y48807D01*
Y47431D01*
D02*
G37*
G36*
X-9012Y47746D02*
X-9072Y47725D01*
X-9124Y47690D01*
X-9170Y47641D01*
X-9208Y47578D01*
X-9240Y47501D01*
X-9264Y47410D01*
X-9282Y47305D01*
X-9292Y47186D01*
X-9296Y47053D01*
X-9996D01*
X-9999Y47186D01*
X-10010Y47305D01*
X-10027Y47410D01*
X-10052Y47501D01*
X-10083Y47578D01*
X-10122Y47641D01*
X-10167Y47690D01*
X-10220Y47725D01*
X-10279Y47746D01*
X-10346Y47753D01*
X-8946D01*
X-9012Y47746D01*
D02*
G37*
G36*
X-16492D02*
X-16552Y47725D01*
X-16604Y47690D01*
X-16650Y47641D01*
X-16689Y47578D01*
X-16720Y47501D01*
X-16745Y47410D01*
X-16762Y47305D01*
X-16772Y47186D01*
X-16776Y47053D01*
X-17476D01*
X-17480Y47186D01*
X-17490Y47305D01*
X-17507Y47410D01*
X-17532Y47501D01*
X-17563Y47578D01*
X-17602Y47641D01*
X-17648Y47690D01*
X-17700Y47725D01*
X-17760Y47746D01*
X-17826Y47753D01*
X-16426D01*
X-16492Y47746D01*
D02*
G37*
G36*
X-57067Y42230D02*
X-57152Y42102D01*
X-57227Y41970D01*
X-57292Y41834D01*
X-57347Y41694D01*
X-57392Y41550D01*
X-57427Y41402D01*
X-57452Y41249D01*
X-57467Y41093D01*
X-57472Y40933D01*
X-58472D01*
X-58477Y41093D01*
X-58492Y41249D01*
X-58517Y41402D01*
X-58552Y41550D01*
X-58597Y41694D01*
X-58652Y41834D01*
X-58717Y41970D01*
X-58792Y42102D01*
X-58877Y42230D01*
X-58972Y42353D01*
X-56972D01*
X-57067Y42230D01*
D02*
G37*
G36*
X-9292Y41396D02*
X-9282Y41277D01*
X-9264Y41172D01*
X-9240Y41081D01*
X-9208Y41004D01*
X-9170Y40941D01*
X-9124Y40892D01*
X-9072Y40857D01*
X-9012Y40836D01*
X-8946Y40829D01*
X-10346D01*
X-10279Y40836D01*
X-10220Y40857D01*
X-10167Y40892D01*
X-10122Y40941D01*
X-10083Y41004D01*
X-10052Y41081D01*
X-10027Y41172D01*
X-10010Y41277D01*
X-9999Y41396D01*
X-9996Y41529D01*
X-9296D01*
X-9292Y41396D01*
D02*
G37*
G36*
X-16772D02*
X-16762Y41277D01*
X-16745Y41172D01*
X-16720Y41081D01*
X-16689Y41004D01*
X-16650Y40941D01*
X-16604Y40892D01*
X-16552Y40857D01*
X-16492Y40836D01*
X-16426Y40829D01*
X-17826D01*
X-17760Y40836D01*
X-17700Y40857D01*
X-17648Y40892D01*
X-17602Y40941D01*
X-17563Y41004D01*
X-17532Y41081D01*
X-17507Y41172D01*
X-17490Y41277D01*
X-17480Y41396D01*
X-17476Y41529D01*
X-16776D01*
X-16772Y41396D01*
D02*
G37*
G36*
X-69624Y41130D02*
X-69731Y41017D01*
X-69827Y40903D01*
X-69912Y40790D01*
X-69986Y40677D01*
X-70048Y40564D01*
X-70099Y40451D01*
X-70138Y40338D01*
X-70166Y40225D01*
X-70183Y40112D01*
X-70189Y39998D01*
X-70927Y41523D01*
X-70814Y41529D01*
X-70701Y41546D01*
X-70587Y41574D01*
X-70474Y41614D01*
X-70361Y41665D01*
X-70248Y41727D01*
X-70135Y41801D01*
X-70022Y41886D01*
X-69909Y41982D01*
X-69796Y42089D01*
X-69624Y41130D01*
D02*
G37*
G36*
X17523Y41906D02*
X17571Y41807D01*
X17649Y41721D01*
X17760Y41645D01*
X17901Y41582D01*
X18075Y41530D01*
X18279Y41489D01*
X18516Y41460D01*
X18783Y41443D01*
X19083Y41437D01*
Y39862D01*
X18783Y39856D01*
X18279Y39810D01*
X18075Y39770D01*
X17901Y39718D01*
X17760Y39654D01*
X17649Y39579D01*
X17571Y39492D01*
X17523Y39394D01*
X17508Y39284D01*
Y42016D01*
X17523Y41906D01*
D02*
G37*
G36*
X-1065Y39776D02*
X-1164Y39771D01*
X-1263Y39756D01*
X-1362Y39731D01*
X-1461Y39697D01*
X-1560Y39652D01*
X-1659Y39598D01*
X-1758Y39533D01*
X-1857Y39459D01*
X-1956Y39375D01*
X-2055Y39281D01*
X-2944Y39382D01*
X-2850Y39481D01*
X-2765Y39580D01*
X-2691Y39679D01*
X-2627Y39778D01*
X-2572Y39877D01*
X-2528Y39976D01*
X-2493Y40075D01*
X-2468Y40174D01*
X-2454Y40273D01*
X-2449Y40372D01*
X-1065Y39776D01*
D02*
G37*
G36*
X-24417Y40273D02*
X-24402Y40174D01*
X-24377Y40075D01*
X-24342Y39976D01*
X-24298Y39877D01*
X-24243Y39778D01*
X-24179Y39679D01*
X-24105Y39580D01*
X-24021Y39481D01*
X-23926Y39382D01*
X-24815Y39281D01*
X-24914Y39375D01*
X-25013Y39459D01*
X-25112Y39533D01*
X-25211Y39598D01*
X-25310Y39652D01*
X-25409Y39697D01*
X-25508Y39731D01*
X-25607Y39756D01*
X-25706Y39771D01*
X-25805Y39776D01*
X-24421Y40372D01*
X-24417Y40273D01*
D02*
G37*
G36*
X-18212Y38227D02*
X-18219Y38294D01*
X-18240Y38353D01*
X-18275Y38406D01*
X-18324Y38451D01*
X-18387Y38490D01*
X-18464Y38521D01*
X-18555Y38546D01*
X-18660Y38563D01*
X-18779Y38574D01*
X-18912Y38577D01*
Y39277D01*
X-18779Y39281D01*
X-18660Y39291D01*
X-18555Y39309D01*
X-18464Y39333D01*
X-18387Y39365D01*
X-18324Y39403D01*
X-18275Y39449D01*
X-18240Y39501D01*
X-18219Y39561D01*
X-18212Y39627D01*
Y38227D01*
D02*
G37*
G36*
X72020Y38078D02*
X72012Y38154D01*
X71988Y38222D01*
X71948Y38282D01*
X71892Y38334D01*
X71820Y38378D01*
X71732Y38414D01*
X71628Y38442D01*
X71508Y38462D01*
X71372Y38474D01*
X71220Y38478D01*
Y39278D01*
X71372Y39282D01*
X71508Y39294D01*
X71628Y39314D01*
X71732Y39342D01*
X71820Y39378D01*
X71892Y39422D01*
X71948Y39474D01*
X71988Y39534D01*
X72012Y39602D01*
X72020Y39678D01*
Y38078D01*
D02*
G37*
G36*
X-8552Y39561D02*
X-8531Y39501D01*
X-8496Y39449D01*
X-8447Y39403D01*
X-8384Y39365D01*
X-8307Y39333D01*
X-8216Y39309D01*
X-8111Y39291D01*
X-7992Y39281D01*
X-7859Y39277D01*
Y38577D01*
X-7992Y38574D01*
X-8111Y38563D01*
X-8216Y38546D01*
X-8307Y38521D01*
X-8384Y38490D01*
X-8447Y38451D01*
X-8476Y38425D01*
X-8435Y38336D01*
X-8381Y38237D01*
X-8317Y38138D01*
X-8242Y38039D01*
X-8158Y37940D01*
X-8064Y37841D01*
Y36851D01*
X-8101Y36884D01*
X-8140Y36914D01*
X-8182Y36940D01*
X-8227Y36963D01*
X-8275Y36982D01*
X-8326Y36998D01*
X-8380Y37010D01*
X-8437Y37018D01*
X-8497Y37024D01*
X-8559Y37025D01*
Y38227D01*
Y39627D01*
X-8552Y39561D01*
D02*
G37*
G36*
X-71028Y37602D02*
X-71096Y37578D01*
X-71156Y37538D01*
X-71208Y37482D01*
X-71252Y37410D01*
X-71288Y37322D01*
X-71316Y37218D01*
X-71336Y37098D01*
X-71348Y36962D01*
X-71352Y36810D01*
X-72152D01*
X-72156Y36962D01*
X-72168Y37098D01*
X-72188Y37218D01*
X-72216Y37322D01*
X-72252Y37410D01*
X-72296Y37482D01*
X-72348Y37538D01*
X-72408Y37578D01*
X-72476Y37602D01*
X-72552Y37610D01*
X-70952D01*
X-71028Y37602D01*
D02*
G37*
G36*
X-16492Y37018D02*
X-16552Y36997D01*
X-16604Y36962D01*
X-16650Y36913D01*
X-16689Y36850D01*
X-16720Y36773D01*
X-16745Y36682D01*
X-16762Y36577D01*
X-16772Y36458D01*
X-16776Y36325D01*
X-17476D01*
X-17480Y36458D01*
X-17490Y36577D01*
X-17507Y36682D01*
X-17532Y36773D01*
X-17563Y36850D01*
X-17602Y36913D01*
X-17648Y36962D01*
X-17700Y36997D01*
X-17760Y37018D01*
X-17826Y37025D01*
X-16426D01*
X-16492Y37018D01*
D02*
G37*
G36*
X-26774Y33976D02*
X-26744Y33891D01*
X-26694Y33816D01*
X-26624Y33751D01*
X-26534Y33696D01*
X-26424Y33651D01*
X-26294Y33616D01*
X-26144Y33591D01*
X-25974Y33576D01*
X-25784Y33571D01*
Y32571D01*
X-25974Y32566D01*
X-26144Y32551D01*
X-26294Y32526D01*
X-26424Y32491D01*
X-26534Y32446D01*
X-26624Y32391D01*
X-26694Y32326D01*
X-26744Y32251D01*
X-26774Y32166D01*
X-26784Y32071D01*
Y34071D01*
X-26774Y33976D01*
D02*
G37*
G36*
X18910Y31972D02*
X18900Y32067D01*
X18870Y32152D01*
X18820Y32227D01*
X18750Y32293D01*
X18660Y32347D01*
X18550Y32392D01*
X18420Y32427D01*
X18270Y32452D01*
X18100Y32467D01*
X17910Y32472D01*
Y33472D01*
X18100Y33477D01*
X18270Y33492D01*
X18420Y33518D01*
X18550Y33552D01*
X18660Y33597D01*
X18750Y33652D01*
X18820Y33718D01*
X18870Y33792D01*
X18900Y33877D01*
X18910Y33972D01*
Y31972D01*
D02*
G37*
G36*
X1898Y32266D02*
X1936Y31641D01*
X1948Y31598D01*
X1961Y31571D01*
X1976Y31563D01*
X819D01*
X834Y31571D01*
X847Y31598D01*
X859Y31641D01*
X869Y31702D01*
X878Y31780D01*
X895Y32118D01*
X898Y32431D01*
X1898D01*
X1898Y32266D01*
D02*
G37*
G36*
X-6124Y32130D02*
X-6106Y31906D01*
X-6090Y31815D01*
X-6069Y31738D01*
X-6044Y31675D01*
X-6014Y31626D01*
X-5980Y31591D01*
X-5941Y31570D01*
X-5898Y31563D01*
X-7055D01*
X-7012Y31570D01*
X-6973Y31591D01*
X-6938Y31626D01*
X-6909Y31675D01*
X-6883Y31738D01*
X-6863Y31815D01*
X-6847Y31906D01*
X-6836Y32011D01*
X-6826Y32263D01*
X-6126D01*
X-6124Y32130D01*
D02*
G37*
G36*
X-9913Y32373D02*
X-9863Y31603D01*
X-9850Y31573D01*
X-9835Y31563D01*
X-10992D01*
X-10977Y31573D01*
X-10964Y31603D01*
X-10952Y31653D01*
X-10942Y31723D01*
X-10926Y31923D01*
X-10913Y32563D01*
X-9913D01*
X-9913Y32373D01*
D02*
G37*
G36*
X-71348Y31660D02*
X-71336Y31524D01*
X-71316Y31404D01*
X-71288Y31299D01*
X-71252Y31210D01*
X-71208Y31137D01*
X-71156Y31080D01*
X-71096Y31038D01*
X-71028Y31013D01*
X-70952Y31003D01*
X-72552Y30677D01*
X-72476Y30721D01*
X-72408Y30777D01*
X-72348Y30845D01*
X-72296Y30924D01*
X-72252Y31016D01*
X-72216Y31119D01*
X-72188Y31234D01*
X-72168Y31361D01*
X-72156Y31500D01*
X-72152Y31650D01*
X-71352Y31812D01*
X-71348Y31660D01*
D02*
G37*
G36*
X32685Y30458D02*
X32708Y30190D01*
X32748Y29954D01*
X32803Y29749D01*
X32874Y29576D01*
X32960Y29434D01*
X33062Y29324D01*
X33181Y29245D01*
X33314Y29198D01*
X33464Y29182D01*
X30314D01*
X30464Y29198D01*
X30598Y29245D01*
X30716Y29324D01*
X30819Y29434D01*
X30905Y29576D01*
X30976Y29749D01*
X31031Y29954D01*
X31070Y30190D01*
X31094Y30458D01*
X31102Y30757D01*
X32677D01*
X32685Y30458D01*
D02*
G37*
G36*
X74323Y27937D02*
X74313Y28032D01*
X74283Y28117D01*
X74233Y28192D01*
X74163Y28257D01*
X74073Y28312D01*
X73963Y28357D01*
X73833Y28392D01*
X73683Y28417D01*
X73513Y28432D01*
X73323Y28437D01*
Y29437D01*
X73513Y29442D01*
X73683Y29457D01*
X73833Y29482D01*
X73963Y29517D01*
X74073Y29562D01*
X74163Y29617D01*
X74233Y29682D01*
X74283Y29757D01*
X74313Y29842D01*
X74323Y29937D01*
Y27937D01*
D02*
G37*
G36*
X6062Y27089D02*
X5977Y27059D01*
X5902Y27009D01*
X5837Y26939D01*
X5782Y26849D01*
X5737Y26739D01*
X5702Y26609D01*
X5677Y26459D01*
X5662Y26289D01*
X5657Y26099D01*
X4657D01*
X4756Y27099D01*
X6157D01*
X6062Y27089D01*
D02*
G37*
G36*
X-11704Y26099D02*
X-12704D01*
X-12709Y26289D01*
X-12724Y26459D01*
X-12749Y26609D01*
X-12784Y26739D01*
X-12829Y26849D01*
X-12884Y26939D01*
X-12949Y27009D01*
X-13024Y27059D01*
X-13109Y27089D01*
X-13204Y27099D01*
X-11803D01*
X-11704Y26099D01*
D02*
G37*
G36*
X-50591Y25914D02*
X-50673Y25598D01*
X-51258Y25755D01*
X-51256Y25758D01*
X-51253Y25767D01*
X-51170Y26070D01*
X-50591Y25914D01*
D02*
G37*
G36*
X-32190Y25398D02*
X-31836Y23630D01*
X-31978Y23758D01*
X-32119Y23857D01*
X-32261Y23927D01*
X-32402Y23970D01*
X-32543Y23984D01*
X-32685Y23970D01*
X-32826Y23927D01*
X-32968Y23857D01*
X-33109Y23758D01*
X-33250Y23630D01*
X-33958Y24337D01*
X-33830Y24479D01*
X-33731Y24620D01*
X-33661Y24762D01*
X-33618Y24903D01*
X-33604Y25045D01*
X-33618Y25186D01*
X-33661Y25327D01*
X-33731Y25469D01*
X-33830Y25610D01*
X-33958Y25752D01*
X-32190Y25398D01*
D02*
G37*
G36*
X-40856Y23306D02*
X-40937Y22989D01*
X-41522Y23146D01*
X-41521Y23149D01*
X-41518Y23159D01*
X-41435Y23461D01*
X-40856Y23306D01*
D02*
G37*
G36*
X31248Y19742D02*
X31114Y19694D01*
X30996Y19616D01*
X30894Y19505D01*
X30807Y19364D01*
X30736Y19191D01*
X30681Y18986D01*
X30642Y18750D01*
X30618Y18482D01*
X30610Y18183D01*
X29035D01*
X29028Y18482D01*
X29004Y18750D01*
X28964Y18986D01*
X28909Y19191D01*
X28839Y19364D01*
X28752Y19505D01*
X28650Y19616D01*
X28531Y19694D01*
X28398Y19742D01*
X28248Y19757D01*
X31398D01*
X31248Y19742D01*
D02*
G37*
G36*
X-29057Y18107D02*
X-29046Y17974D01*
X-28999Y17855D01*
X-28916Y17753D01*
X-28797Y17666D01*
X-28643Y17596D01*
X-28453Y17540D01*
X-28227Y17501D01*
X-27966Y17477D01*
X-27669Y17470D01*
X-28091Y15895D01*
X-28392Y15887D01*
X-28666Y15863D01*
X-28913Y15824D01*
X-29133Y15769D01*
X-29325Y15698D01*
X-29490Y15611D01*
X-29627Y15509D01*
X-29738Y15391D01*
X-29821Y15257D01*
X-29877Y15107D01*
X-29033Y18257D01*
X-29057Y18107D01*
D02*
G37*
G36*
X30618Y13960D02*
X30642Y13693D01*
X30681Y13456D01*
X30736Y13252D01*
X30807Y13079D01*
X30894Y12937D01*
X30996Y12827D01*
X31114Y12748D01*
X31248Y12701D01*
X31398Y12685D01*
X30093D01*
X27768Y10556D01*
X27757Y10779D01*
X27723Y11002D01*
X27668Y11224D01*
X27590Y11447D01*
X27490Y11670D01*
X27367Y11892D01*
X27222Y12115D01*
X27055Y12338D01*
X26866Y12561D01*
X26654Y12783D01*
X27866Y13798D01*
X28089Y13587D01*
X28312Y13397D01*
X28534Y13230D01*
X28757Y13086D01*
X28821Y13050D01*
X28839Y13079D01*
X28909Y13252D01*
X28964Y13456D01*
X29004Y13693D01*
X29028Y13960D01*
X29035Y14260D01*
X30610D01*
X30618Y13960D01*
D02*
G37*
G36*
X-32675Y12657D02*
X-32829Y12682D01*
X-32981Y12674D01*
X-33130Y12634D01*
X-33278Y12562D01*
X-33424Y12456D01*
X-33568Y12319D01*
X-33710Y12148D01*
X-33850Y11945D01*
X-33988Y11710D01*
X-34124Y11441D01*
X-35669Y11860D01*
X-35559Y12109D01*
X-35474Y12344D01*
X-35413Y12564D01*
X-35376Y12770D01*
X-35363Y12962D01*
X-35375Y13139D01*
X-35411Y13302D01*
X-35471Y13451D01*
X-35555Y13586D01*
X-35664Y13706D01*
X-32675Y12657D01*
D02*
G37*
%LPC*%
G36*
X-84212Y359268D02*
X-86260D01*
X-88282Y358947D01*
X-90229Y358315D01*
X-92054Y357385D01*
X-93710Y356182D01*
X-94081Y355811D01*
X-93290Y355021D01*
X-93997Y354314D01*
X-94788Y355104D01*
X-95158Y354734D01*
X-96362Y353077D01*
X-97291Y351253D01*
X-97924Y349306D01*
X-98244Y347284D01*
Y345236D01*
X-97924Y343214D01*
X-97291Y341267D01*
X-96362Y339442D01*
X-95158Y337786D01*
X-94788Y337415D01*
X-93997Y338206D01*
X-93290Y337499D01*
X-94081Y336708D01*
X-93710Y336338D01*
X-92054Y335135D01*
X-90229Y334205D01*
X-88282Y333572D01*
X-86260Y333252D01*
X-84212D01*
X-82190Y333572D01*
X-80243Y334205D01*
X-78419Y335135D01*
X-76762Y336338D01*
X-76392Y336708D01*
X-77182Y337499D01*
X-76475Y338206D01*
X-75685Y337415D01*
X-75314Y337786D01*
X-74111Y339442D01*
X-73181Y341267D01*
X-72549Y343214D01*
X-72228Y345236D01*
Y347284D01*
X-72549Y349306D01*
X-73181Y351253D01*
X-74111Y353077D01*
X-75314Y354734D01*
X-75685Y355104D01*
X-76475Y354314D01*
X-77182Y355021D01*
X-76392Y355811D01*
X-76762Y356182D01*
X-78419Y357385D01*
X-80243Y358315D01*
X-82190Y358947D01*
X-84212Y359268D01*
D02*
G37*
G36*
X-72593Y117458D02*
X-74756Y116763D01*
X-74417Y115709D01*
X-75369Y115403D01*
X-75708Y116458D01*
X-77871Y115763D01*
X-77237Y113788D01*
X-76182Y114126D01*
X-75876Y113174D01*
X-76931Y112836D01*
X-76297Y110860D01*
X-74134Y111555D01*
X-74472Y112609D01*
X-73520Y112915D01*
X-73182Y111860D01*
X-71019Y112555D01*
X-71653Y114530D01*
X-72707Y114192D01*
X-73013Y115144D01*
X-71959Y115482D01*
X-72593Y117458D01*
D02*
G37*
G36*
X76157Y48539D02*
X74083D01*
Y47432D01*
X73083D01*
Y48539D01*
X71008D01*
Y46858D01*
X72115D01*
Y45858D01*
X71008D01*
Y44177D01*
X73083D01*
Y45285D01*
X74083D01*
Y44177D01*
X76157D01*
Y45858D01*
X75050D01*
Y46858D01*
X76157D01*
Y48539D01*
D02*
G37*
G36*
X62204Y57874D02*
X57480D01*
X56680Y57769D01*
X55935Y57460D01*
X55295Y56969D01*
X54804Y56330D01*
X54496Y55584D01*
X54390Y54785D01*
Y50060D01*
X54496Y49261D01*
X54804Y48516D01*
X55295Y47876D01*
X55935Y47385D01*
X56680Y47076D01*
X57480Y46971D01*
X62204D01*
X63004Y47076D01*
X63749Y47385D01*
X64389Y47876D01*
X64880Y48516D01*
X65188Y49261D01*
X65294Y50060D01*
Y54785D01*
X65188Y55584D01*
X64880Y56330D01*
X64389Y56969D01*
X63749Y57460D01*
X63004Y57769D01*
X62204Y57874D01*
D02*
G37*
G36*
X23835Y29642D02*
X21366D01*
Y28534D01*
X20366D01*
Y29642D01*
X17898D01*
Y27567D01*
X19005D01*
Y26567D01*
X17898D01*
Y24492D01*
X20366D01*
Y25600D01*
X21366D01*
Y24492D01*
X23835D01*
Y26567D01*
X22727D01*
Y27567D01*
X23835D01*
Y29642D01*
D02*
G37*
G36*
X83811Y44500D02*
X79260D01*
Y40736D01*
X80414D01*
Y31606D01*
X79516D01*
Y26268D01*
X84067D01*
Y31606D01*
X82657D01*
Y40736D01*
X83811D01*
Y44500D01*
D02*
G37*
G36*
X62204Y29921D02*
X57480D01*
X56680Y29816D01*
X55935Y29508D01*
X55295Y29017D01*
X54804Y28377D01*
X54496Y27632D01*
X54390Y26832D01*
Y22108D01*
X54496Y21308D01*
X54804Y20563D01*
X55295Y19923D01*
X55935Y19432D01*
X56680Y19124D01*
X57480Y19018D01*
X62204D01*
X63004Y19124D01*
X63749Y19432D01*
X64389Y19923D01*
X64880Y20563D01*
X65188Y21308D01*
X65294Y22108D01*
Y26832D01*
X65188Y27632D01*
X64880Y28377D01*
X64389Y29017D01*
X63749Y29508D01*
X63004Y29816D01*
X62204Y29921D01*
D02*
G37*
%LPD*%
G36*
X82259Y41441D02*
X82191Y41417D01*
X82131Y41377D01*
X82079Y41321D01*
X82035Y41249D01*
X81999Y41161D01*
X81971Y41057D01*
X81951Y40937D01*
X81939Y40801D01*
X81935Y40649D01*
X81135D01*
X81131Y40801D01*
X81119Y40937D01*
X81099Y41057D01*
X81071Y41161D01*
X81035Y41249D01*
X80991Y41321D01*
X80939Y41377D01*
X80879Y41417D01*
X80811Y41441D01*
X80735Y41449D01*
X82335D01*
X82259Y41441D01*
D02*
G37*
G36*
X81939Y31541D02*
X81951Y31405D01*
X81971Y31286D01*
X81999Y31181D01*
X82035Y31093D01*
X82079Y31021D01*
X82131Y30966D01*
X82191Y30926D01*
X82259Y30902D01*
X82335Y30893D01*
X80735D01*
X80811Y30902D01*
X80879Y30926D01*
X80939Y30966D01*
X80991Y31021D01*
X81035Y31093D01*
X81071Y31181D01*
X81099Y31286D01*
X81119Y31405D01*
X81131Y31541D01*
X81135Y31694D01*
X81935D01*
X81939Y31541D01*
D02*
G37*
D12*
X-26378Y41339D02*
D03*
Y47244D02*
D03*
X-492Y41339D02*
D03*
Y47244D02*
D03*
X-28740Y32972D02*
D03*
Y27067D02*
D03*
X20866Y32972D02*
D03*
Y27067D02*
D03*
X43840Y67055D02*
D03*
Y72961D02*
D03*
X1280Y125295D02*
D03*
Y119390D02*
D03*
X-9166Y125383D02*
D03*
Y119478D02*
D03*
X10925Y125197D02*
D03*
Y119291D02*
D03*
D19*
X43672Y63929D02*
G03*
X44019Y63085I1200J0D01*
G01*
X44019D02*
X44026Y63078D01*
X43672Y63929D02*
Y65880D01*
X43840Y67055D01*
X44026Y63078D02*
X48424Y58680D01*
X56218Y38878D02*
X73583D01*
X48424Y46672D02*
X56218Y38878D01*
X48424Y46672D02*
Y58680D01*
X38386Y47343D02*
Y63307D01*
X38403Y63324D01*
X19783Y72933D02*
X25943Y79092D01*
X17439Y72933D02*
X19783D01*
X81535Y29193D02*
X81791Y28937D01*
X81535Y29193D02*
Y42618D01*
X38403Y63324D02*
Y68172D01*
X38386Y68190D02*
X38403Y68172D01*
X38386Y68190D02*
Y71379D01*
X36280Y73485D02*
X38386Y71379D01*
X30672Y79092D02*
X36269Y73496D01*
X25943Y79092D02*
X30672D01*
X15453Y72933D02*
X17126D01*
X-42835Y48228D02*
X-41634Y49430D01*
Y59842D01*
X-32695Y68782D01*
X-30790Y70687D02*
X-30512Y70965D01*
X-29035D01*
X-31704Y70687D02*
X-30790D01*
X-32695Y68782D02*
Y69696D01*
X-31704Y70687D01*
X-41831Y68012D02*
Y81265D01*
X-46887Y51810D02*
Y62955D01*
X-41831Y68012D01*
X-48599Y50098D02*
X-46887Y51810D01*
X-61221Y50098D02*
X-48599D01*
X-41831Y81265D02*
X-32446Y90650D01*
X-29035D01*
X-71752Y39567D02*
X-61221Y50098D01*
X-71752Y30439D02*
X-70511Y29197D01*
X-71752Y30439D02*
Y39567D01*
D20*
X2067Y96116D02*
Y106004D01*
X11652Y96555D02*
X15453D01*
X10693Y97515D02*
X11652Y96555D01*
X-7677Y87992D02*
X-5217Y90453D01*
X-13287Y87992D02*
X-7677D01*
X-25787Y96555D02*
X-20866Y91634D01*
X-29035Y96555D02*
X-25787D01*
X-19587Y61516D02*
Y62552D01*
X-19715Y62680D02*
X-19587Y62552D01*
X-19715Y62680D02*
Y64247D01*
X-20793Y65325D02*
X-19715Y64247D01*
X-22318Y65325D02*
X-20793D01*
X-22339Y65304D02*
X-22318Y65325D01*
X-22575Y65540D02*
X-22339Y65304D01*
X-22575Y65379D02*
Y65540D01*
X-26081Y61873D02*
X-22575Y65379D01*
X-29271Y58682D02*
X-26081Y61873D01*
X-30392Y58682D02*
X-29271D01*
X-54232Y40846D02*
X-54134Y40748D01*
X-54232Y40846D02*
Y45175D01*
X11220Y29331D02*
X13504Y27047D01*
X9075Y29331D02*
X11220D01*
X-20551Y27047D02*
X-18268Y29331D01*
X-16122D01*
X34921Y65047D02*
Y69115D01*
X29528Y74508D02*
X34921Y69115D01*
X27067Y74508D02*
X29528D01*
X5606Y94587D02*
X15453D01*
X11614Y68996D02*
X15453D01*
X-38780Y92224D02*
X-34449Y96555D01*
X-29035D01*
X-42913Y92224D02*
X-38780D01*
X15453Y68996D02*
X26673D01*
X23524Y70965D02*
X27067Y74508D01*
X15453Y70965D02*
X23524D01*
D21*
X43179Y73622D02*
X43840Y72961D01*
X31273Y80542D02*
X38193Y73622D01*
X43179D01*
X25342Y80542D02*
X31273D01*
X19701Y74902D02*
X25342Y80542D01*
X15453Y74902D02*
X19701D01*
X-9744Y106004D02*
Y109091D01*
X-10693Y110039D02*
X-9744Y109091D01*
X-24508Y110039D02*
X-10693D01*
X-27535Y107012D02*
X-24508Y110039D01*
X-36633Y107012D02*
X-27535D01*
X24092Y47889D02*
X24223Y48021D01*
X20965Y51279D02*
X24223Y48021D01*
X13583Y51279D02*
X20965D01*
X6004Y58858D02*
X13583Y51279D01*
X6004Y58858D02*
Y61516D01*
X13612Y48228D02*
X14075D01*
X4035Y57805D02*
X13612Y48228D01*
X4035Y57805D02*
Y61516D01*
X98Y57874D02*
Y61516D01*
Y57874D02*
X3188Y54785D01*
X4528Y53445D01*
X-1870Y57680D02*
Y61516D01*
X-5410Y55020D02*
X-1870Y57680D01*
X-47503Y47541D02*
X-46879Y46916D01*
X-47503Y47541D02*
Y48658D01*
X-45079Y51083D01*
Y59153D01*
X-32551Y80807D02*
X-29035D01*
X-38484Y74874D02*
X-32551Y80807D01*
X-38484Y65748D02*
Y74874D01*
X-45079Y59153D02*
X-38484Y65748D01*
X-9646Y38927D02*
Y49655D01*
X-17126Y38927D02*
X-17126Y38927D01*
X-17126Y38927D02*
Y49655D01*
X-1379Y48131D02*
X-492Y47244D01*
X-3151Y48131D02*
X-1379D01*
X-13681Y58661D02*
X-3151Y48131D01*
X-13681Y58661D02*
Y61516D01*
X-15650Y57972D02*
Y61516D01*
X-26378Y47244D02*
X-15650Y57972D01*
X-2903Y38927D02*
X-492Y41339D01*
X-9646Y38927D02*
X-2903D01*
X-26378Y41339D02*
X-23967Y38927D01*
X-17126D01*
X-8987Y34860D02*
X-8758D01*
X-6476Y32579D01*
X-9646Y38927D02*
X-3472Y32754D01*
X-3602D02*
X-1455D01*
X-17126Y36172D02*
X-15895Y34941D01*
X-17126Y36172D02*
Y38927D01*
X-15895Y34941D02*
X-8987D01*
X-6476Y29331D02*
Y32579D01*
X-6476Y26980D02*
X-5398Y25901D01*
X-3618D02*
X-2539Y26980D01*
X-5398Y25901D02*
X-3618D01*
X-6476Y26980D02*
Y29331D01*
X-2539Y26980D02*
Y29331D01*
X-6476Y29331D02*
X-6476Y29331D01*
X-4508Y31848D02*
X-3602Y32754D01*
X-1455D02*
X-571Y31870D01*
Y29331D02*
Y31870D01*
X-4508Y29331D02*
Y31848D01*
D22*
X-50545Y106638D02*
Y122986D01*
X-59842Y132283D02*
X-50545Y122986D01*
X-53150Y82598D02*
X-51091Y84657D01*
X-53150Y57286D02*
X-50492Y54628D01*
X-53150Y57286D02*
Y82598D01*
X-54980Y95392D02*
X-50492Y90904D01*
Y84657D02*
Y90904D01*
X-51091Y84657D02*
X-50492D01*
X-60396Y112260D02*
Y118959D01*
X-65464Y124027D02*
X-60396Y118959D01*
X-65464Y124027D02*
Y145177D01*
X-63852Y152601D02*
X-60469Y155984D01*
X-65422Y152601D02*
X-63852D01*
X-65422Y145219D02*
Y152601D01*
X-65464Y145177D02*
X-65422Y145219D01*
D23*
X49532Y92248D02*
G03*
X52461Y99319I-7071J7071D01*
G01*
X40422Y86596D02*
G03*
X46323Y89040I0J8345D01*
G01*
X10925Y128853D02*
G03*
X8340Y135095I-8827J0D01*
G01*
X-2898Y148642D02*
G03*
X-1265Y144700I5575J0D01*
G01*
X46424Y128251D02*
G03*
X43758Y134687I-9100J0D01*
G01*
X39665Y140798D02*
G03*
X41093Y137352I4874J0D01*
G01*
X27338Y130348D02*
G03*
X32408Y128248I5070J5070D01*
G01*
X41732Y125098D02*
G03*
X40897Y127115I-2851J0D01*
G01*
X40748Y127264D02*
G03*
X38372Y128248I-2376J-2376D01*
G01*
X45373Y106813D02*
G03*
X46424Y109352I-2538J2538D01*
G01*
X40650Y115748D02*
G03*
X41732Y118362I-2614J2614D01*
G01*
X26727Y107234D02*
G03*
X25755Y104887I2348J-2348D01*
G01*
X19588Y88681D02*
G03*
X22570Y89916I0J4218D01*
G01*
X17347Y90650D02*
G03*
X20129Y91802I0J3935D01*
G01*
X24980Y96653D02*
G03*
X25755Y98524I-1871J1871D01*
G01*
X21660Y96549D02*
G03*
X22662Y98969I-2420J2420D01*
G01*
X23498Y118256D02*
G03*
X22662Y116240I2016J-2016D01*
G01*
X28297Y122028D02*
G03*
X26542Y121301I0J-2482D01*
G01*
X36395Y123117D02*
G03*
X35839Y123597I-3228J-3170D01*
G01*
D02*
G03*
X34319Y124849I-1521J-298D01*
G01*
X28033D02*
G03*
X25248Y123695I0J-3940D01*
G01*
X20826Y119274D02*
G03*
X19692Y116535I2738J-2738D01*
G01*
X18698Y96555D02*
G03*
X19692Y97549I0J994D01*
G01*
X15453Y113916D02*
G03*
X14853Y115363I-2046J0D01*
G01*
X-20818Y112191D02*
G03*
X-19168Y111507I1651J1651D01*
G01*
X-17690Y114146D02*
G03*
X-14665Y112894I3025J3025D01*
G01*
X-5433Y115745D02*
G03*
X-2826Y114665I2607J2607D01*
G01*
X6004Y109795D02*
G03*
X5413Y111221I-2016J0D01*
G01*
X2614Y114020D02*
G03*
X1116Y114665I-1498J-1415D01*
G01*
X4035Y108671D02*
G03*
X3347Y110335I-2352J-0D01*
G01*
X1448Y112233D02*
G03*
X-147Y112894I-1596J-1596D01*
G01*
X7972Y112148D02*
G03*
X7584Y113085I-1326J0D01*
G01*
X28513Y108711D02*
G03*
X27985Y108492I1J-750D01*
G01*
X98Y110615D02*
G03*
X-646Y111364I-750J-0D01*
G01*
X39665Y148207D02*
G03*
X38189Y151772I-5041J0D01*
G01*
X32721Y161382D02*
G03*
X35650Y154311I10000J0D01*
G01*
X14819Y147010D02*
G03*
X17748Y139939I10000J0D01*
G01*
X50929Y245186D02*
X52461Y243655D01*
Y99319D02*
Y243655D01*
X46323Y89040D02*
X49532Y92248D01*
X-1265Y144700D02*
X8340Y135095D01*
X-2898Y148642D02*
Y169520D01*
X39665Y140798D02*
Y148207D01*
X41093Y137352D02*
X43758Y134687D01*
X32408Y128248D02*
X38372D01*
X40748Y127264D02*
X40897Y127115D01*
X46424Y109352D02*
Y128251D01*
X41732Y118362D02*
Y125098D01*
X26727Y107234D02*
X27985Y108492D01*
X22570Y89916D02*
X31060Y98407D01*
X15453Y90650D02*
X17347D01*
X20129Y91802D02*
X24980Y96653D01*
X25755Y98524D02*
Y104887D01*
X22662Y98969D02*
Y116240D01*
X23498Y118256D02*
X26542Y121301D01*
X28297Y122028D02*
X29932D01*
X28033Y124849D02*
X34319D01*
X36395Y123117D02*
X36474Y122029D01*
X20826Y119274D02*
X25248Y123695D01*
X15453Y96555D02*
X18698D01*
X19692Y97549D02*
Y116535D01*
X15453Y98524D02*
Y113916D01*
X-19168Y111507D02*
X-646Y111364D01*
X-18799Y115256D02*
X-17690Y114146D01*
X-14665Y112894D02*
X-147D01*
X-2826Y114665D02*
X1116D01*
X6004Y106004D02*
Y109795D01*
X2614Y114020D02*
X5413Y111221D01*
X4035Y106004D02*
Y108671D01*
X3347Y110335D02*
Y110335D01*
X1448Y112233D02*
X3347Y110335D01*
X-9166Y119478D02*
X-5433Y115745D01*
X7972Y106004D02*
Y112148D01*
X1280Y119390D02*
X7584Y113085D01*
X-23720Y115093D02*
X-20818Y112191D01*
X-23720Y115093D02*
Y115256D01*
X10925Y125197D02*
Y128853D01*
X127Y102194D02*
Y106204D01*
X-1269Y100798D02*
X127Y102194D01*
X-18032Y100798D02*
X-1269D01*
X98Y106204D02*
Y110615D01*
X-13386Y38927D02*
Y42717D01*
X18927Y93816D02*
X21660Y96549D01*
X17421Y92618D02*
X18927Y93816D01*
X28513Y108711D02*
X29735D01*
X31060Y110218D01*
X15453Y92618D02*
X17421D01*
X29932Y122028D02*
X31552Y122029D01*
X36966Y86596D02*
X40422D01*
X36966Y98407D02*
X45373Y106813D01*
X36966Y112064D02*
X40650Y115748D01*
X36966Y110218D02*
Y112064D01*
X15570Y86596D02*
X29235D01*
X15453Y86713D02*
X15570Y86596D01*
X15453Y88681D02*
X19588D01*
X29235Y86596D02*
X31060D01*
X-20614Y146091D02*
X-19516D01*
X1280Y125295D01*
X-38331Y124639D02*
X-37586Y125383D01*
X-9166D01*
X10925Y119291D02*
X14853Y115363D01*
X35650Y154311D02*
X38189Y151772D01*
X32721Y161382D02*
Y218682D01*
X17748Y139939D02*
X27338Y130348D01*
X14819Y147010D02*
Y193686D01*
D24*
X-50492Y37008D02*
Y45175D01*
Y31791D02*
Y37008D01*
X-57972Y39806D02*
X-55175Y37008D01*
X-50492D01*
X30720Y44969D02*
X31889Y43799D01*
X13415Y44969D02*
X30720D01*
X10827Y42380D02*
X13415Y44969D01*
X31889Y44291D02*
Y49015D01*
Y43799D02*
Y44291D01*
X10827Y40650D02*
Y42380D01*
X-12795Y20276D02*
X-10236Y22835D01*
X-27775Y20276D02*
X-12795D01*
X64074Y33170D02*
X68307Y28937D01*
X75886D01*
X40173Y33170D02*
X64074D01*
X31889Y41454D02*
Y43799D01*
Y41454D02*
X40173Y33170D01*
X-34568Y54056D02*
X-31742Y51230D01*
X-34568Y54056D02*
Y54506D01*
X-57972Y39806D02*
Y45175D01*
X-42815Y12795D02*
X-41262Y12992D01*
X-57505Y17669D02*
X-42815Y12795D01*
X-58171Y19836D02*
X-57505Y17669D01*
X-58171Y19836D02*
X-56398Y25886D01*
X-50492Y31791D01*
X-41262Y12992D02*
X-37252Y17002D01*
Y20336D01*
X-32543Y25045D01*
X-27775Y20276D01*
X-14511Y53400D02*
X-13386Y52276D01*
Y49655D02*
Y52276D01*
X-25295Y53543D02*
X-25246Y53592D01*
Y57726D01*
X-21555Y61417D01*
Y61516D01*
X-35335Y47638D02*
X-25246Y57726D01*
X-35335Y27836D02*
Y47638D01*
Y27836D02*
X-32543Y25045D01*
X-28740Y32972D02*
X-28642Y33071D01*
X-10827D01*
X-10413Y32658D01*
Y29331D02*
Y32658D01*
X1398Y32431D02*
X1926Y32959D01*
X1398Y29331D02*
Y32431D01*
X1926Y32972D02*
X20866D01*
X3909Y22835D02*
X5157Y24082D01*
Y28562D01*
X5925Y29331D01*
X-11220Y22835D02*
X3909D01*
X-12204Y23818D02*
Y29331D01*
Y23818D02*
X-11220Y22835D01*
X-12972Y29331D02*
X-12204D01*
D26*
X7854Y25118D02*
D03*
X-14902D02*
D03*
D27*
X13504Y27047D02*
D03*
X-20551D02*
D03*
D28*
X13504Y10630D02*
D03*
X-20551D02*
D03*
D29*
X-2701Y169520D02*
D03*
X15114Y193686D02*
D03*
X33115Y218682D02*
D03*
X50929Y245186D02*
D03*
X-20614Y146091D02*
D03*
X-38331Y124639D02*
D03*
D30*
X-18032Y100798D02*
D03*
X10693Y97515D02*
D03*
X-5217Y90453D02*
D03*
X-26081Y61873D02*
D03*
X-61922Y44357D02*
D03*
X-54134Y40748D02*
D03*
X34921Y65047D02*
D03*
X-13386Y42717D02*
D03*
X-61959Y90994D02*
D03*
X38386Y47343D02*
D03*
X24092Y47889D02*
D03*
X4528Y53445D02*
D03*
X14075Y48228D02*
D03*
X-5410Y55020D02*
D03*
X-46879Y46916D02*
D03*
X-42835Y48228D02*
D03*
X-14511Y53400D02*
D03*
X-25295Y53543D02*
D03*
D31*
X-85236Y346260D02*
D03*
D32*
X-54980Y95392D02*
D03*
X-58591Y106638D02*
D03*
X-60396Y112260D02*
D03*
D33*
X-65823Y116927D02*
D03*
X-74445Y114159D02*
D03*
X-56676Y88437D02*
D03*
X-65298Y85669D02*
D03*
D34*
X-59842Y132283D02*
D03*
X-70079D02*
D03*
D35*
X-60469Y270158D02*
D03*
Y155984D02*
D03*
D36*
X98Y106004D02*
D03*
X4035D02*
D03*
X-19587Y61516D02*
D03*
X-21555D02*
D03*
X-17618D02*
D03*
X-15650Y61516D02*
D03*
X-13681D02*
D03*
X-11713D02*
D03*
X-9744Y61516D02*
D03*
X-7776D02*
D03*
X-5807Y61516D02*
D03*
X-3839D02*
D03*
X-1870D02*
D03*
X98D02*
D03*
X2067D02*
D03*
X4035Y61516D02*
D03*
X6004D02*
D03*
X7972D02*
D03*
Y106004D02*
D03*
X6004D02*
D03*
X2067D02*
D03*
X-1870D02*
D03*
X-3839D02*
D03*
X-5807D02*
D03*
X-7776D02*
D03*
X-9744D02*
D03*
X-11713D02*
D03*
X-13681D02*
D03*
X-15650D02*
D03*
X-17618D02*
D03*
X-19587D02*
D03*
X-21555D02*
D03*
D37*
X-23720Y115256D02*
D03*
X-18799D02*
D03*
X31552Y122029D02*
D03*
X36474D02*
D03*
D38*
X59842Y24470D02*
D03*
X59842Y52423D02*
D03*
X31889Y52423D02*
D03*
D39*
Y24470D02*
D03*
D40*
X-29035Y70965D02*
D03*
Y80807D02*
D03*
Y96555D02*
D03*
X15453Y70965D02*
D03*
Y96555D02*
D03*
X-29035Y98524D02*
D03*
Y94587D02*
D03*
Y92618D02*
D03*
Y90650D02*
D03*
Y88681D02*
D03*
Y86713D02*
D03*
Y84744D02*
D03*
Y82776D02*
D03*
Y78839D02*
D03*
Y76870D02*
D03*
Y74902D02*
D03*
Y72933D02*
D03*
Y68996D02*
D03*
X15453D02*
D03*
Y72933D02*
D03*
X15453Y76870D02*
D03*
Y78839D02*
D03*
Y80807D02*
D03*
Y82776D02*
D03*
X15453Y84744D02*
D03*
Y86713D02*
D03*
X15453Y88681D02*
D03*
Y90650D02*
D03*
Y92618D02*
D03*
Y94587D02*
D03*
X15453Y98524D02*
D03*
X15453Y74902D02*
D03*
D41*
X-30392Y58682D02*
D03*
X-34568Y54506D02*
D03*
D42*
X-57972Y54628D02*
D03*
X-54232Y45175D02*
D03*
X-50492Y54628D02*
D03*
X-57972Y45175D02*
D03*
D43*
X-50492D02*
D03*
D44*
X-9646Y38927D02*
D03*
X-13386D02*
D03*
X-17126D02*
D03*
X-17126Y49655D02*
D03*
X-13386D02*
D03*
X-9646D02*
D03*
D45*
X31060Y86596D02*
D03*
X36966D02*
D03*
X31060Y110218D02*
D03*
X36966D02*
D03*
X31060Y98407D02*
D03*
X36966D02*
D03*
X-65847Y39567D02*
D03*
X-71752D02*
D03*
X75886Y28937D02*
D03*
X81791D02*
D03*
X-42539Y107012D02*
D03*
X-36633D02*
D03*
D46*
X9075Y29331D02*
D03*
X5925D02*
D03*
X-12972D02*
D03*
X-16122D02*
D03*
D47*
X-2539D02*
D03*
X-571Y29331D02*
D03*
X1398D02*
D03*
X3366D02*
D03*
X-4508Y29331D02*
D03*
X-6476Y29331D02*
D03*
X-8445D02*
D03*
X-10413D02*
D03*
D48*
X27067Y68602D02*
D03*
Y74508D02*
D03*
X-42913Y98130D02*
D03*
Y92224D02*
D03*
D49*
X73583Y46358D02*
D03*
Y38878D02*
D03*
X81535Y42618D02*
D03*
D50*
X35728Y10728D02*
D03*
X29823D02*
D03*
D51*
X-61713Y24508D02*
D03*
X-42242Y19291D02*
D03*
X-51977Y21899D02*
D03*
X-71448Y27116D02*
D03*
D52*
X-32507Y16682D02*
D03*
D53*
X16339Y40650D02*
D03*
X10827D02*
D03*
D54*
X2067Y96116D02*
X5606D01*
X-23917Y98524D02*
X-21510Y96116D01*
X5606D01*
Y94587D02*
Y96116D01*
X-69853Y91856D02*
X-66500Y68983D01*
X-68442Y54983D02*
X-66500Y68983D01*
Y68983D01*
X-69853Y91856D02*
X-68882Y98854D01*
X-78839Y44587D02*
X-68442Y54983D01*
X-42355Y98689D02*
X-33384D01*
X-42913Y98130D02*
X-42355Y98689D01*
X-42913Y98130D02*
Y106637D01*
X-42539Y107012D01*
X-43602Y105948D02*
X-42913Y106637D01*
X29823Y23603D02*
X31889Y25670D01*
X5606Y75004D02*
Y94587D01*
Y75004D02*
X11614Y68996D01*
X-50545Y106638D02*
X-43602D01*
X29823Y10728D02*
Y23603D01*
X31889Y25670D02*
Y30906D01*
X22146Y40650D02*
X31889Y30906D01*
X16339Y40650D02*
X22146D01*
X26673Y68996D02*
X27067Y68602D01*
X23869Y16682D02*
X29823Y10728D01*
X-32507Y16682D02*
X23869D01*
X-78839Y23720D02*
Y44587D01*
X-68882Y98854D02*
X-58591Y106638D01*
X-78839Y23720D02*
X-75042Y19924D01*
X-37850Y8337D01*
X-58591Y106638D02*
X-50545D01*
X-36535Y8201D02*
X-32507Y16682D01*
X-37850Y8337D02*
X-36535Y8201D01*
D55*
X-17618Y61516D02*
Y65453D01*
X-19504Y67339D02*
X-17618Y65453D01*
X-24197Y67339D02*
X-19504D01*
X-27953Y65748D02*
X-25787D01*
X-24197Y67339D01*
X-38583Y55118D02*
X-27953Y65748D01*
X-38583Y25946D02*
Y55118D01*
X-40157Y57874D02*
X-29035Y68996D01*
X-40157Y36715D02*
Y57874D01*
X-50881Y25992D02*
X-40157Y36715D01*
X-41145Y23383D02*
X-38583Y25946D01*
X-42242Y19291D02*
X-41145Y23383D01*
X-51977Y21899D02*
X-50881Y25992D01*
D56*
X-33384Y98524D02*
X-29035D01*
X-23917D01*
D57*
X-69390Y270079D02*
X-69311Y270158D01*
X-60469D01*
M02*
