M48
;Layer_Color=9474304
;FILE_FORMAT=2:5
INCH
;TYPE=PLATED
T01F00S00C0.01378
T03F00S00C0.02800
T04F00S00C0.19685
%
T01
X-0061922Y0044357
X-0054134Y0040748
X-0046879Y0046916
X-0042835Y0048228
X-0025295Y0053543
X-0026081Y0061873
X-0014511Y0053400
X-0005410Y0055020
X0004528Y0053445
X0014075Y0048228
X0024092Y0047889
X0038386Y0047343
X0034921Y0065047
X-0013386Y0042717
X-0005217Y0090453
X0010693Y0097515
X-0018032Y0100798
X-0061959Y0090994
T03
X-0002701Y0169520
X0015114Y0193686
X0033115Y0218682
X-0020614Y0146091
X-0038331Y0124639
X0050929Y0245186
T04
X-0085236Y0346260
M30
